<svg width="40" height="40" viewBox="0 0 40 40" fill="none" xmlns="http://www.w3.org/2000/svg">
<path d="M7.23364 28.0702C7.23364 30.068 8.85905 31.6938 10.8573 31.6938C12.8555 31.6938 14.4809 30.068 14.4809 28.0702C14.4809 26.0723 12.8555 24.4465 10.8573 24.4465C8.85905 24.4465 7.23364 26.0719 7.23364 28.0702ZM13.2898 28.0702C13.2898 29.4113 12.1984 30.5027 10.8573 30.5027C9.51612 30.5027 8.42471 29.4113 8.42471 28.0702C8.42471 26.729 9.51612 25.6376 10.8573 25.6376C12.1984 25.6376 13.2898 26.729 13.2898 28.0702Z" fill="#B3966F"/>
<path d="M35.8188 14.5381C35.5734 14.3194 35.1975 14.3404 34.9779 14.5858L26.328 24.2743L21.875 19.8213C21.6423 19.5887 21.2655 19.5887 21.0329 19.8213C20.8002 20.054 20.8002 20.4307 21.0329 20.6634L25.9317 25.5619C26.0437 25.6738 26.195 25.7361 26.353 25.7361C26.3585 25.7361 26.3641 25.7362 26.3697 25.7358C26.5332 25.731 26.6881 25.6595 26.7973 25.5372L35.8668 15.3786C36.0856 15.1337 36.0642 14.7569 35.8188 14.5381Z" fill="#B3966F"/>
<path d="M26.5584 27.2254C26.2292 27.2254 25.9628 27.4922 25.9628 27.8209V33.7473H4.87539V5.95572H25.9628V18.4329C25.9628 18.7617 26.2292 19.0285 26.5584 19.0285C26.8875 19.0285 27.1539 18.7617 27.1539 18.4329V5.36018C27.1539 5.03145 26.8875 4.76465 26.5584 4.76465H4.27986C3.95073 4.76465 3.68433 5.03145 3.68433 5.36018V34.3428C3.68433 34.6715 3.95073 34.9383 4.27986 34.9383H26.5584C26.8875 34.9383 27.1539 34.6715 27.1539 34.3428V27.8209C27.1539 27.4922 26.8875 27.2254 26.5584 27.2254Z" fill="#B3966F"/>
<path d="M19.5971 12.7943C19.9262 12.7943 20.1926 12.5275 20.1926 12.1988C20.1926 11.8701 19.9262 11.6033 19.5971 11.6033H7.6324C7.30327 11.6033 7.03687 11.8701 7.03687 12.1988C7.03687 12.5275 7.30327 12.7943 7.6324 12.7943H19.5971Z" fill="#B3966F"/>
<path d="M20.3391 17.4967C20.3391 17.1679 20.0727 16.9011 19.7435 16.9011H7.78206C7.45293 16.9011 7.18652 17.1679 7.18652 17.4967C7.18652 17.8254 7.45293 18.0922 7.78206 18.0922H19.7435C20.0727 18.0922 20.3391 17.8254 20.3391 17.4967Z" fill="#B3966F"/>
</svg>
