<svg width="34" height="35" viewBox="0 0 34 35" fill="none" xmlns="http://www.w3.org/2000/svg">
<g clip-path="url(#clip0_11_152)">
<path d="M0.43257 35.0008H33.5674C33.827 35.0008 34 34.826 34 34.5638V32.248C34 31.9858 33.827 31.811 33.5674 31.811H32.7455V29.6263C32.7455 29.3641 32.5725 29.1893 32.313 29.1893H30.626V14.9009H32.313C32.5725 14.9009 32.7455 14.7261 32.7455 14.464V11.4927C32.7455 11.2305 32.5725 11.0557 32.313 11.0557H31.0585C31.0585 11.0557 31.0585 11.0557 31.0153 11.012L17.2595 0.0881828C17.0865 -0.0429034 16.8702 -0.0429034 16.7405 0.0881828L2.98473 11.012C2.98473 11.012 2.98473 11.012 2.94148 11.0557H1.64377C1.38422 11.0557 1.2112 11.2305 1.2112 11.4927V14.464C1.2112 14.7261 1.38422 14.9009 1.64377 14.9009H3.33079V29.1893H1.68702C1.42748 29.1893 1.25445 29.3641 1.25445 29.6263V31.811H0.43257C0.173028 31.811 0 31.9858 0 32.248V34.5638C0 34.826 0.216285 35.0008 0.43257 35.0008ZM29.7608 29.1893H27.0789V14.9009H29.7608V29.1893ZM14.7074 14.9009V29.1893H7.78626V14.9009H14.7074ZM15.5725 14.9009H18.2977V29.1893H15.6158L15.5725 14.9009ZM19.1628 14.9009H26.1705V29.1893H19.1628V14.9009ZM17 0.962091L29.6743 11.0557H4.3257L17 0.962091ZM2.07634 11.9296H31.8372V14.027H2.07634V11.9296ZM4.19593 14.9009H6.87786V29.1893H4.19593V14.9009ZM2.11959 30.0632H31.8804V31.811H2.11959V30.0632ZM0.86514 32.6849H33.1349V34.1269H0.86514V32.6849Z" fill="#B3966F"/>
</g>
<defs>
<clipPath id="clip0_11_152">
<rect width="34" height="35" fill="white"/>
</clipPath>
</defs>
</svg>
