<svg width="40" height="40" viewBox="0 0 40 40" fill="none" xmlns="http://www.w3.org/2000/svg">
<path d="M35.8503 19.4597C36.7595 18.8745 37.357 17.9054 37.357 16.8092C37.357 15.0313 35.7804 13.5854 33.8426 13.5854H24.4784C24.9211 12.7556 25.3693 11.3958 25.2669 9.37098C25.0656 5.22011 22.5469 3.06666 21.0902 2.4485C20.2311 2.08403 19.2961 2.17058 18.5898 2.67996C17.8807 3.19133 17.0803 4.36572 17.2943 7.05753C17.5158 9.85495 13.9549 12.8894 12.2199 14.1932V13.1284C12.2199 12.7993 11.9535 12.5329 11.6244 12.5329H3.73836C3.40922 12.5329 3.14282 12.7993 3.14282 13.1284V34.6399C3.14282 34.9686 3.40922 35.2354 3.73836 35.2354H11.6244C11.9535 35.2354 12.2199 34.9686 12.2199 34.6399V33.5532C14.4647 34.3604 20.777 36.5352 23.8964 36.6373L30.1602 36.681C32.0957 36.681 33.6703 35.1703 33.6703 33.3138C33.6703 32.459 33.3352 31.6801 32.7877 31.0849C34.4584 30.8249 35.7392 29.4381 35.7392 27.7662C35.7392 26.8757 35.3735 26.067 34.7819 25.4643C36.2648 25.0688 37.3574 23.7658 37.3574 22.2198C37.357 21.078 36.7599 20.0687 35.8503 19.4597ZM4.33389 34.0439V13.7235H11.0289V15.3196C11.0281 15.3354 11.0285 15.3513 11.0289 15.3672V32.6909C11.0285 32.7072 11.0277 32.7234 11.0289 32.7397V34.0443H4.33389V34.0439ZM33.8426 24.3987H30.7899C30.7887 24.3987 30.7875 24.3991 30.7859 24.3991H30.1602C29.8315 24.3991 29.5647 24.6659 29.5647 24.9946C29.5647 25.3233 29.8315 25.5901 30.1602 25.5901H32.2227C33.5047 25.5901 34.5477 26.5664 34.5477 27.7658C34.5477 28.9652 33.5047 29.9411 32.2227 29.9411H30.1681C30.1654 29.9411 30.163 29.9407 30.1602 29.9407H27.971C27.6423 29.9407 27.3755 30.2075 27.3755 30.5362C27.3755 30.865 27.6423 31.1318 27.971 31.1318H30.1562C30.1574 31.1318 30.1586 31.1322 30.1602 31.1322H30.1681C31.443 31.1365 32.4788 32.1128 32.4788 33.3134C32.4788 34.5132 31.4386 35.4895 30.1642 35.4895L23.9198 35.4462C20.8143 35.3442 13.9271 32.9065 12.2199 32.2855V15.665C13.5099 14.7776 18.793 10.8908 18.4814 6.96344C18.3488 5.29396 18.6346 4.11599 19.2861 3.64631C19.8281 3.25604 20.4478 3.47083 20.6253 3.54547C21.8259 4.05525 23.9047 5.86805 24.0774 9.43053C24.2342 12.5265 22.9804 13.6846 22.9324 13.7275C22.7422 13.8895 22.6731 14.1523 22.7589 14.387C22.8455 14.6212 23.0682 14.7768 23.3179 14.7768H33.8422C35.1234 14.7768 36.1656 15.6888 36.1656 16.8096C36.1656 17.9359 35.1234 18.8527 33.8422 18.8527H31.2961C30.9673 18.8527 30.7005 19.1191 30.7005 19.4482C30.7005 19.7773 30.9673 20.0437 31.2961 20.0437H33.8422C35.1234 20.0437 36.1656 21.0196 36.1656 22.2198C36.166 23.4208 35.1238 24.3987 33.8426 24.3987Z" fill="#B3966F"/>
</svg>
