<svg width="220" height="44" viewBox="0 0 220 44" fill="none" xmlns="http://www.w3.org/2000/svg">
<path d="M51.5946 16.0317C52.9664 16.0317 54.4933 16.0792 55.8175 16.982C56.7002 17.5641 57.7381 18.7165 57.7381 20.7716C57.7381 23.0287 56.2947 25.6897 52.3342 25.6897H48.994V31.879H46.0713V16.0317H51.5946ZM51.7139 23.3614C52.358 23.3614 53.2885 23.3851 54.0401 22.6961C54.553 22.2328 54.8274 21.4488 54.8274 20.7836C54.8274 20.1658 54.5768 19.4174 54.0639 18.9778C53.5509 18.5383 52.7398 18.3244 51.8332 18.3244H49.0059V23.3614H51.7139Z" fill="#1D5B28"/>
<path d="M60.4333 21.2933C61.2446 20.533 62.4494 19.8677 64.2507 19.8677C66.0639 19.8677 67.2688 20.533 68.08 21.2933C69.2849 22.4218 69.9052 24.18 69.9052 25.9738C69.9052 27.7676 69.2849 29.5258 68.08 30.6544C67.2688 31.4147 66.0639 32.0918 64.2507 32.0918C62.4494 32.0918 61.2326 31.4265 60.4333 30.6544C59.2285 29.5258 58.5962 27.7676 58.5962 25.9738C58.5962 24.1681 59.2285 22.4218 60.4333 21.2933ZM62.4016 29.3001C62.6522 29.5971 63.2367 30.1554 64.2507 30.1554C65.2766 30.1554 65.8492 29.6089 66.0998 29.3001C66.2906 29.0981 66.9825 28.1715 66.9825 25.9738C66.9825 23.7761 66.2906 22.8613 66.0998 22.6476C65.8492 22.3506 65.2647 21.7922 64.2507 21.7922C63.2367 21.7922 62.6522 22.3386 62.4016 22.6476C62.2227 22.8613 61.5189 23.7761 61.5189 25.9738C61.5189 28.1597 62.2227 29.0862 62.4016 29.3001Z" fill="#1D5B28"/>
<path d="M79.151 24.4072C79.1032 23.8132 78.8766 23.1124 78.5665 22.6728C78.2921 22.257 77.7314 21.7937 76.8128 21.7937C75.9062 21.7937 75.2978 22.257 74.928 22.8748C74.3435 23.8251 74.3077 25.2981 74.3077 25.9753C74.3077 27.0563 74.4628 28.3512 74.928 29.0877C75.2263 29.551 75.8346 30.145 76.8128 30.145C77.5048 30.145 78.0773 29.8718 78.5307 29.2659C78.8766 28.7789 79.1152 28.0899 79.1629 27.484L81.6203 27.781C81.4772 28.8621 81 30.0738 80.1411 30.8459C79.4253 31.4874 78.304 32.0696 76.7294 32.0696C74.9757 32.0696 73.8305 31.3805 73.1625 30.7508C72.2559 29.8956 71.397 28.3749 71.397 25.9753C71.397 23.7419 72.1604 22.3996 72.7569 21.6868C73.6158 20.6651 75.0712 19.8336 76.789 19.8336C78.2443 19.8336 79.4611 20.3444 80.2127 21.1284C80.9762 21.8887 81.4414 23.041 81.6084 24.0746L79.151 24.4072Z" fill="#1D5B28"/>
<path d="M90.652 24.4074C90.6043 23.8134 90.3776 23.1125 90.0794 22.6729C89.805 22.2571 89.2444 21.7938 88.3138 21.7938C87.4072 21.7938 86.8108 22.2571 86.441 22.8749C85.8683 23.8252 85.8206 25.2983 85.8206 25.9754C85.8206 27.0564 85.9876 28.3513 86.441 29.0879C86.7392 29.5511 87.3476 30.1451 88.3138 30.1451C89.0058 30.1451 89.5903 29.8719 90.0317 29.2661C90.3776 28.779 90.6043 28.09 90.652 27.4842L93.109 27.7812C92.9663 28.8622 92.4895 30.0739 91.6302 30.846C90.9025 31.4875 89.805 32.0697 88.2185 32.0697C86.4529 32.0697 85.3196 31.3806 84.6516 30.751C83.745 29.8957 82.8979 28.3751 82.8979 25.9754C82.8979 23.742 83.6614 22.3997 84.2699 21.6869C85.1168 20.6652 86.5841 19.8337 88.3019 19.8337C89.7573 19.8337 90.9622 20.3445 91.7375 21.1285C92.5015 21.8888 92.9663 23.0412 93.1329 24.0747L90.652 24.4074Z" fill="#1D5B28"/>
<path d="M105.503 28.4448C105.086 29.8229 104.251 30.6307 103.559 31.1178C102.629 31.7473 101.424 32.0919 100.147 32.0919C98.5489 32.0919 96.9261 31.4148 95.9485 30.4287C95.0418 29.514 94.3735 27.9102 94.3735 26.0215C94.3735 23.6217 95.376 22.0299 96.4612 21.127C97.0936 20.6043 98.2746 19.856 100.052 19.856C102.306 19.856 103.738 20.8895 104.502 21.9586C105.313 23.0634 105.694 24.6078 105.694 25.9501V26.4847H97.3081C97.3081 26.6154 97.2842 27.6846 97.7021 28.5399C98.3225 29.8348 99.4676 30.1555 100.255 30.1555C100.887 30.1555 101.662 29.9654 102.318 29.3002C102.712 28.8844 102.867 28.4923 102.939 28.1241L105.503 28.4448ZM102.771 24.7266C102.771 24.0613 102.617 23.301 102.259 22.7902C101.818 22.1487 101.03 21.7092 100.171 21.7092C99.2881 21.7092 98.525 22.1487 98.0592 22.6951C97.6901 23.1584 97.3679 23.8712 97.3679 24.7266H102.771Z" fill="#1D5B28"/>
<path d="M117.135 20.0942V31.8668H114.438V22.0781H111.384C111.313 23.67 111.266 24.3115 111.218 25.4044C111.146 26.628 111.05 29.2058 110.013 30.6195C109.44 31.3798 108.724 31.6768 108.211 31.8193C107.913 31.9144 107.591 31.9619 107.257 31.9619C107.03 31.9619 106.792 31.9381 106.565 31.8668V29.8355H106.792C107.138 29.8116 107.603 29.6335 107.913 29.3959C108.844 28.6594 108.927 26.9962 109.022 25.6776C109.142 23.9431 109.166 22.9097 109.178 21.3415L109.202 20.0942H117.135Z" fill="#1D5B28"/>
<path d="M122.658 24.2877H125.629C126.392 24.2877 127.883 24.3827 128.849 25.3568C129.732 26.2122 129.816 27.412 129.816 28.0535C129.816 29.7404 129.124 30.5958 128.587 31.0353C128.396 31.1778 127.525 31.8668 125.843 31.8668H119.962V20.0942H122.646V24.2877H122.658ZM122.658 29.9186H124.77C125.282 29.9186 125.831 29.8949 126.297 29.5028C126.571 29.2415 126.904 28.8138 126.904 28.0654C126.904 27.4239 126.714 26.913 126.189 26.5686C125.723 26.2716 125.139 26.2241 124.77 26.2241H122.658V29.9186Z" fill="#1D5B28"/>
<path d="M133.728 20.0942L135.91 23.7531L138.177 20.0942H140.634L137.175 25.4162L141.278 31.855H138.129L135.445 27.4239L132.617 31.855H130.161L134.18 25.7489L130.578 20.0942H133.728Z" fill="#1D5B28"/>
<path d="M143.354 21.2933C144.165 20.533 145.37 19.8677 147.172 19.8677C148.985 19.8677 150.189 20.533 151.001 21.2933C152.206 22.4218 152.826 24.18 152.826 25.9738C152.826 27.7676 152.194 29.5258 151.001 30.6544C150.189 31.4147 148.985 32.0918 147.172 32.0918C145.358 32.0918 144.165 31.4265 143.354 30.6544C142.149 29.5258 141.517 27.7676 141.517 25.9738C141.529 24.1681 142.149 22.4218 143.354 21.2933ZM145.322 29.3001C145.573 29.5971 146.157 30.1554 147.172 30.1554C148.197 30.1554 148.77 29.6089 149.032 29.3001C149.212 29.0981 149.915 28.1715 149.915 25.9738C149.915 23.7761 149.224 22.8613 149.032 22.6476C148.782 22.3506 148.197 21.7922 147.172 21.7922C146.157 21.7922 145.573 22.3386 145.322 22.6476C145.144 22.8613 144.44 23.7761 144.44 25.9738C144.44 28.1597 145.144 29.0862 145.322 29.3001Z" fill="#1D5B28"/>
<path d="M154.269 23.2771C154.615 21.8516 155.52 21.0675 156.165 20.6755C156.559 20.426 157.644 19.8677 159.505 19.8677C160.662 19.8677 161.843 20.0696 162.726 20.5567C164.027 21.2695 164.348 22.303 164.348 23.0514C164.348 23.8592 163.955 25.4036 161.939 25.6293V25.6768C162.63 25.7718 163.406 26.0688 163.859 26.5559C164.277 26.9954 164.599 27.7319 164.599 28.5161C164.599 29.6921 163.907 30.7375 163.024 31.3077C161.963 31.9967 160.496 32.0918 159.41 32.0918C158.312 32.0918 156.655 31.973 155.486 31.0583C154.841 30.5474 154.233 29.6683 154.053 28.5635L156.487 28.1477C156.583 28.5161 156.785 29.0744 157.072 29.3951C157.668 30.096 158.623 30.1554 159.231 30.1554C159.828 30.1554 160.484 30.0841 160.985 29.7396C161.449 29.4189 161.677 28.9793 161.677 28.3973C161.677 27.9101 161.581 27.5182 161.175 27.1736C160.638 26.7341 159.922 26.6628 159.255 26.6628H158.026V24.8571H159.255C159.72 24.8571 160.388 24.762 160.758 24.5839C161.247 24.3344 161.521 23.9186 161.521 23.2534C161.521 22.8851 161.379 22.5288 161.032 22.2555C160.496 21.816 159.732 21.7922 159.338 21.7922C158.801 21.7922 158.014 21.8634 157.37 22.41C157.095 22.6356 156.725 23.0752 156.607 23.7761L154.269 23.2771Z" fill="#1D5B28"/>
<path d="M178.355 18.7996H170.684V22.3041H174.096C175.324 22.3041 176.505 22.3992 177.71 23.2307C178.891 24.0385 179.631 25.2384 179.631 26.9728C179.631 28.5884 179.034 29.7882 178.259 30.5485C177.102 31.7009 175.777 31.8672 174.394 31.8672H166.974V16.0317H178.355V18.7996ZM170.684 29.0874H173.679C174.239 29.0874 174.752 29.0635 175.277 28.529C175.789 28.0182 175.861 27.4479 175.861 27.0084C175.861 26.4976 175.718 25.9987 175.277 25.5591C174.752 25.0364 174.072 24.977 173.583 24.977H170.684V29.0874Z" fill="#1D5B28"/>
<path d="M181.54 23.3604C181.91 21.7686 182.96 20.9607 183.581 20.5925C184.498 20.0579 185.727 19.856 187.254 19.856C189.198 19.856 191.179 20.1054 192.05 21.9349C192.515 22.8733 192.467 23.895 192.467 24.7741V29.3239C192.467 30.2743 192.611 31.1534 192.813 31.8661H189.45C189.354 31.4028 189.294 30.7851 189.27 30.0011C188.829 30.7851 187.767 32.1037 185.31 32.1037C184.224 32.1037 183.103 31.8306 182.34 31.2009C181.6 30.5951 181.135 29.6328 181.135 28.5756C181.135 27.3995 181.647 25.9858 183.663 25.1542C184.964 24.6196 187.076 24.4415 188.029 24.3939L189.139 24.3464V24.0969C189.139 23.7762 189.116 23.0872 188.793 22.7071C188.351 22.1962 187.469 22.1843 187.123 22.1843C186.646 22.1843 186.061 22.2319 185.572 22.5289C185.274 22.7071 184.88 23.0872 184.738 23.7287L181.54 23.3604ZM188.101 26.2946C186.944 26.3897 185.787 26.5085 185.131 27.3044C184.952 27.5301 184.762 27.8865 184.762 28.3617C184.762 28.8725 185.012 29.217 185.274 29.3952C185.596 29.6447 186.085 29.7635 186.55 29.7635C187.242 29.7635 188.053 29.4665 188.519 28.9081C188.591 28.8369 189.139 28.1478 189.139 26.8055V26.1877L188.101 26.2946Z" fill="#1D5B28"/>
<path d="M198.611 20.0942V24.5015H202.345V20.0942H205.793V31.855H202.345V26.913H198.611V31.855H195.164V20.0942H198.611Z" fill="#1D5B28"/>
<path d="M211.936 20.0941V24.6202H212.866C213.868 24.6202 214.286 24.1331 214.536 23.5985C215.025 22.565 215.001 21.7572 215.443 20.9494C215.789 20.3079 216.254 20.1416 216.552 20.0941H219.403C219.034 20.4861 218.711 20.9494 218.497 21.3652C218.127 22.1254 217.781 23.3728 217.566 23.9074C217.292 24.644 216.826 25.3804 215.645 25.4755V25.5231C216.278 25.618 216.922 25.9388 217.411 26.6516C217.709 27.0911 217.912 27.6614 218.246 28.5642C218.568 29.4908 218.711 29.8115 219.01 30.5243C219.248 31.0589 219.38 31.3797 219.773 31.8667H216.528C216.015 31.7004 215.669 31.3559 215.252 30.1561C214.93 29.2294 214.882 28.9087 214.668 28.3979L214.5 27.9821C214.154 27.103 213.689 26.9129 212.973 26.9129H211.936V31.8549H208.488V20.0941H211.936Z" fill="#1D5B28"/>
<path fill-rule="evenodd" clip-rule="evenodd" d="M19.6272 44C8.80377 44 0 35.2329 0 24.4637C0 18.2747 2.85503 12.5792 7.8215 8.84936L8.03264 8.68481V0H19.2967V4.92749C19.4069 4.92749 19.517 4.92749 19.6272 4.92749C30.4506 4.92749 39.2451 13.6945 39.2451 24.4729C39.2451 35.2329 30.4414 44 19.6272 44Z" fill="#245E2E"/>
<path fill-rule="evenodd" clip-rule="evenodd" d="M13.9434 24.7749L18.0285 20.7799V18.0647L13.9434 22.0414V24.7749Z" fill="#FFCC00"/>
<path fill-rule="evenodd" clip-rule="evenodd" d="M13.9434 14.6536L18.0285 10.6494V8.08972L13.9434 12.0664V14.6536Z" fill="#FFCC00"/>
<path fill-rule="evenodd" clip-rule="evenodd" d="M13.9434 17.9999L18.0285 14.0049V11.4451L13.9434 15.4218V17.9999Z" fill="#FFCC00"/>
<path fill-rule="evenodd" clip-rule="evenodd" d="M12.7791 8.11864L12.2283 7.59755V1.26221H11.6132V6.99419L11.0808 6.46395V1.26221H10.4565V5.86973L9.91488 5.3395V1.26221H9.2998V7.30501L13.3942 11.3V1.26221H12.7791V8.11864Z" fill="#FFCC00"/>
<path fill-rule="evenodd" clip-rule="evenodd" d="M13.9434 21.3458L18.0285 17.3508V14.791L13.9434 18.7678V21.3458Z" fill="#FFCC00"/>
<path fill-rule="evenodd" clip-rule="evenodd" d="M9.2998 20.7799L13.3942 24.7749V22.0414L9.2998 18.0647V20.7799Z" fill="#FFCC00"/>
<path fill-rule="evenodd" clip-rule="evenodd" d="M17.4135 5.3395L16.8718 5.86973V1.26221H16.2568V6.4731L15.715 6.99419V1.26221H15.1001V7.58841L14.5584 8.11864V1.26221H13.9434V11.3L18.0285 7.30501V1.26221H17.4135V5.3395Z" fill="#FFCC00"/>
<path fill-rule="evenodd" clip-rule="evenodd" d="M9.2998 10.6494L13.3942 14.6536V12.0664L9.2998 8.08972V10.6494Z" fill="#FFCC00"/>
<path fill-rule="evenodd" clip-rule="evenodd" d="M9.2998 14.0049L13.3942 17.9999V15.4218L9.2998 11.4451V14.0049Z" fill="#FFCC00"/>
<path fill-rule="evenodd" clip-rule="evenodd" d="M9.2998 17.3508L13.3942 21.3458V18.7678L9.2998 14.791V17.3508Z" fill="#FFCC00"/>
<path fill-rule="evenodd" clip-rule="evenodd" d="M33.6546 19.4635H24.144H23.7125C23.9236 19.1343 24.043 18.7504 24.043 18.339C24.043 17.1598 23.0791 16.209 21.8948 16.209C20.7106 16.209 19.7559 17.1688 19.7559 18.339C19.7559 18.8053 19.9027 19.2258 20.1598 19.5732C19.9761 19.692 19.8476 19.9023 19.8476 20.14C19.8476 20.3777 19.9761 20.5879 20.1598 20.7068C19.9119 21.0542 19.7559 21.4839 19.7559 21.9409C19.7559 23.1203 20.7106 24.071 21.8948 24.071C23.0791 24.071 24.043 23.1203 24.043 21.9409C24.043 21.5296 23.9236 21.1364 23.7125 20.8165H25.5118H31.1117V21.2644H30.3773V21.8953H31.1117V22.5443H30.3773V23.7419H31.1117V23.2025H32.195V23.7419H32.9201V22.5443H32.195V21.8953H32.9201V21.2644H32.195V20.8165H33.6546C33.9391 20.8165 34.1687 20.5788 34.1687 20.2954V19.9754C34.1687 19.7012 33.93 19.4635 33.6546 19.4635ZM23.0056 21.9501C23.0056 22.5534 22.5099 23.0471 21.8948 23.0471C21.289 23.0471 20.7932 22.5534 20.7932 21.9501C20.7932 21.7307 20.8574 21.5204 20.9768 21.3467L21.2797 20.8256C21.087 20.6611 20.9676 20.4142 20.9676 20.14C20.9676 19.8658 21.087 19.6189 21.2797 19.4544L20.9768 18.9332C20.8574 18.7595 20.7932 18.5584 20.7932 18.3299C20.7932 17.7265 21.289 17.2328 21.8948 17.2328C22.5007 17.2328 23.0056 17.7265 23.0056 18.3299C23.0056 18.7779 22.4915 19.8474 22.4915 19.8474V20.4234C22.4823 20.4325 23.0056 21.5021 23.0056 21.9501Z" fill="#FFCC00"/>
<path fill-rule="evenodd" clip-rule="evenodd" d="M5.58252 18.166V20.8264C5.58252 23.3678 6.69332 25.0042 7.33593 25.635C7.71232 26.0007 11.5129 29.7214 11.5679 29.7762C12.7523 30.9281 12.9542 31.3121 13.2204 31.9612V29.0175C13.2204 26.3937 11.8893 25.379 11.2008 24.7117C9.60341 23.1575 8.52935 22.1336 7.66642 21.2743C6.02317 19.6379 5.58252 18.166 5.58252 18.166Z" fill="white"/>
<path fill-rule="evenodd" clip-rule="evenodd" d="M11.1999 31.2835C9.60252 29.7202 8.52846 28.7055 7.66553 27.8461C6.02229 26.2097 5.59082 25.1035 5.59082 25.1035V27.3981C5.59082 29.9396 6.74751 31.5578 7.33504 32.2251C7.71144 32.5908 11.5211 36.3023 11.5671 36.3481C12.7513 37.5 12.9532 38.0485 13.2195 38.6976V35.5893C13.2195 32.9656 11.8792 31.9508 11.1999 31.2835Z" fill="white"/>
<path fill-rule="evenodd" clip-rule="evenodd" d="M19.6275 6.1803C19.3336 6.1803 19.0399 6.18944 18.7462 6.19859V7.44188C19.0307 7.4236 19.3245 7.41445 19.6275 7.41445C29.0738 7.41445 36.73 15.0388 36.73 24.455C36.73 33.862 29.0738 41.4864 19.6275 41.4864C10.1811 41.4864 2.51559 33.862 2.51559 24.455C2.51559 19.2349 4.87489 14.5634 8.59285 11.4369V9.84624C4.14047 13.183 1.26709 18.4853 1.26709 24.455C1.26709 34.5477 9.48335 42.7296 19.6275 42.7296C29.7623 42.7296 37.9786 34.5477 37.9786 24.455C37.9786 14.3623 29.7623 6.1803 19.6275 6.1803Z" fill="white"/>
<path fill-rule="evenodd" clip-rule="evenodd" d="M32.6064 34.0086C32.891 33.6247 33.1573 33.2224 33.4143 32.811V30.361H32.6064V34.0086Z" fill="white"/>
<path fill-rule="evenodd" clip-rule="evenodd" d="M34.9566 29.4639C35.0667 29.1074 35.1769 28.7509 35.2687 28.3943H32.6064V29.0434H33.0104C33.7172 29.0251 34.5159 29.016 34.9566 29.4639Z" fill="white"/>
<path d="M17.231 28.303H16.5059V35.5891H17.231V28.303Z" fill="white"/>
<path fill-rule="evenodd" clip-rule="evenodd" d="M14.8444 26.9046H17.2313C17.8463 26.9046 18.2778 27.0326 18.5257 27.2703C18.7736 27.508 18.8929 27.9376 18.8929 28.5501V35.3609C18.8929 35.9734 18.7827 36.403 18.5257 36.6407C18.1493 37.0155 17.4515 37.0155 16.8732 37.0155C16.7447 37.0065 16.6162 37.0065 16.506 37.0065V40.2335C16.7447 40.2792 16.9834 40.3249 17.2313 40.3615V37.7104C18.3328 37.7104 19.0489 37.3355 19.3886 36.5859V40.5352C19.462 40.5352 19.5447 40.5352 19.6272 40.5352C19.7834 40.5352 19.9302 40.5352 20.0863 40.5261V28.669C20.0863 28.0383 20.2148 27.5994 20.4535 27.3526C20.6922 27.0966 21.1236 26.9778 21.7296 26.9778C22.3446 26.9778 23.2535 26.8864 23.7216 27.3526C23.9603 27.5994 24.0705 28.0473 24.0705 28.669V32.1612H22.4364V28.4313H21.7296V40.398C21.9683 40.3706 22.1977 40.3341 22.4364 40.2884V32.8651H24.0705V39.9136C24.4102 39.8221 24.7406 39.7125 25.0711 39.5936V33.1394C25.0711 32.408 25.2455 31.8596 25.9983 31.6035L25.1721 27.1149H26.8246L27.1 32.0149H27.3019L27.5772 27.1149H29.3215L28.3852 31.6035C29.1655 31.8778 29.3215 32.3532 29.3215 33.1394V37.3081C29.8081 36.9424 30.267 36.5585 30.7077 36.1379V27.0783H35.5549C35.5916 26.8589 35.6191 26.6487 35.6466 26.4201H24.3L24.456 27.2337C24.098 26.5755 23.4187 26.2464 22.418 26.2464H21.7112C20.5085 26.2464 19.7742 26.7217 19.4987 27.6725C19.2417 26.6761 18.4797 26.1824 17.2221 26.1824H14.1191V39.557C14.3578 39.6393 14.5965 39.7215 14.8352 39.7947V26.9046H14.8444ZM29.8907 32.0515L29.1103 31.311L29.8907 27.2886V32.0515Z" fill="white"/>
<path fill-rule="evenodd" clip-rule="evenodd" d="M26.8159 38.8529C27.0638 38.7248 27.3208 38.5968 27.5595 38.4597V32.9471H26.8159V38.8529Z" fill="white"/>
</svg>
