<svg width="220" height="36" viewBox="0 0 220 36" fill="none" xmlns="http://www.w3.org/2000/svg">
<path d="M98.466 10.3764L102.951 6.98816H87.5728V27.1058H102.951V23.7176H92.0582V18.6352H101.456V15.247H92.0582V10.3764H98.466Z" fill="#21A038"/>
<path d="M76.0391 14.8235H70.6993V10.3764H79.243L83.7284 6.98816H66.2139V27.1058H75.3983C80.5245 27.1058 83.5148 24.7764 83.5148 20.7529C83.5148 16.9411 80.9517 14.8235 76.0391 14.8235ZM75.1847 23.7176H70.6993V18.2117H75.1847C77.9614 18.2117 79.243 19.0587 79.243 20.9646C79.4566 22.8705 77.9614 23.7176 75.1847 23.7176Z" fill="#21A038"/>
<path d="M115.34 6.98816H107.01V27.1058H111.495V21.3882H115.34C120.68 21.3882 123.884 18.6352 123.884 14.1882C123.884 9.7411 120.68 6.98816 115.34 6.98816ZM115.34 17.9999H111.495V10.3764H115.34C118.117 10.3764 119.612 11.8587 119.612 14.1882C119.612 16.5176 118.117 17.9999 115.34 17.9999Z" fill="#21A038"/>
<path d="M58.7379 22.6588C57.6699 23.2941 56.1748 23.7177 54.8932 23.7177C50.835 23.7177 48.0583 20.9647 48.0583 17.153C48.0583 13.3412 50.835 10.5883 54.8932 10.5883C56.3884 10.5883 57.6699 11.0118 58.9515 11.8588L62.1554 9.52943L61.9418 9.1059C60.0195 7.41178 57.6699 6.77649 54.8932 6.77649C51.903 6.77649 49.1263 7.83531 47.2039 9.7412C45.2816 11.6471 44 14.4 44.2136 17.153C44.2136 19.9059 45.2816 22.6588 47.2039 24.5647C49.3398 26.4706 52.1165 27.5294 54.8932 27.5294C58.0971 27.5294 60.8738 26.4706 62.5826 24.5647L59.8059 22.4471L58.7379 22.6588Z" fill="#21A038"/>
<path d="M176.855 6.98825V27.1059H181.34V18.8471H190.738V27.1059H195.223V6.98825H190.738V15.2471H181.34V6.98825H176.855ZM169.165 27.1059H173.864L165.321 6.98825H160.835L152.078 27.1059H156.563L158.272 23.0824H167.67L169.165 27.1059ZM159.554 19.6941L162.971 11.6471L166.175 19.6941H159.554ZM204.835 18.8471H207.612L214.233 26.8941H219.787L210.816 16.5177L218.719 6.77649H213.592L207.185 15.4588H204.835V6.98825H200.35V27.1059H204.835V18.8471ZM137.554 14.8235V10.3765H149.088V6.98825H133.282V27.1059H142.466C147.592 27.1059 150.583 24.7765 150.583 20.753C150.369 16.9412 147.806 14.8235 142.893 14.8235H137.554ZM137.554 23.7177V18.2118H142.039C144.816 18.2118 146.097 19.0588 146.097 20.9647C146.097 22.8706 144.816 23.7177 142.039 23.7177H137.554Z" fill="#21A038"/>
<path d="M30.3302 6.77649C31.1845 7.83531 31.8253 8.89414 32.2525 10.1647L17.0875 21.3883L10.6797 17.3647V12.4941L17.0875 16.5177L30.3302 6.77649Z" fill="#21A038"/>
<path d="M4.05805 17.0584C4.05805 16.8466 4.05805 16.6348 4.05805 16.4231L0.213393 16.2113C0.213393 16.4231 0.213393 16.8466 0.213393 17.0584C-0.000198767 21.5054 1.92213 25.7407 5.12602 28.7054L7.90271 25.9525C5.5532 23.8348 4.05805 20.6584 4.05805 17.0584Z" fill="url(#paint0_linear_18_2492)"/>
<path d="M16.8736 4.14074C17.0871 4.14074 17.3007 4.14074 17.5143 4.14074L17.7279 0.328979C17.5143 0.328979 17.3007 0.328979 17.0871 0.328979C12.3881 0.328979 8.11627 2.23486 5.12598 5.19957L7.90268 7.95251C10.0386 5.6231 13.4561 4.14074 16.8736 4.14074Z" fill="url(#paint1_linear_18_2492)"/>
<path d="M16.8734 29.7643C16.6598 29.7643 16.4462 29.7643 16.2326 29.7643L16.019 33.576C16.2326 33.576 16.6598 33.576 16.8734 33.576C21.5724 33.576 25.8443 31.6702 28.8346 28.7055L26.0579 25.9525C23.7084 28.4937 20.5045 29.7643 16.8734 29.7643Z" fill="url(#paint2_linear_18_2492)"/>
<path d="M24.3497 6.35297L27.5536 4.02356C24.5633 1.69414 20.9323 0.211792 16.874 0.211792V4.23532C19.6507 4.23532 22.2138 5.08238 24.3497 6.35297Z" fill="url(#paint3_linear_18_2492)"/>
<path d="M33.7474 16.9411C33.7474 15.8823 33.7474 15.0353 33.5338 13.9764L29.9027 16.7294C29.9027 16.7294 29.9027 16.9411 29.9027 17.1529C29.9027 20.9647 28.194 24.3529 25.6309 26.6823L28.194 29.647C31.6114 26.2588 33.7474 21.8117 33.7474 16.9411Z" fill="#21A038"/>
<path d="M16.8734 29.8589C13.0288 29.8589 9.61129 28.1648 7.26178 25.6237L4.27148 28.1648C7.26178 31.5531 11.7472 33.6707 16.8734 33.6707V29.8589Z" fill="url(#paint4_linear_18_2492)"/>
<path d="M8.3301 7.41175L5.5534 4.65881C2.13592 7.62352 0 12.0706 0 16.9412H3.84466C4.05825 13.3412 5.5534 9.74117 8.3301 7.41175Z" fill="url(#paint5_linear_18_2492)"/>
<defs>
<linearGradient id="paint0_linear_18_2492" x1="4.74436" y1="28.3069" x2="0.836884" y2="16.9315" gradientUnits="userSpaceOnUse">
<stop offset="0.1444" stop-color="#F2E913"/>
<stop offset="0.3037" stop-color="#E7E518"/>
<stop offset="0.5823" stop-color="#CADB26"/>
<stop offset="0.891" stop-color="#A3CD39"/>
</linearGradient>
<linearGradient id="paint1_linear_18_2492" x1="6.21484" y1="4.9053" x2="16.2765" y2="1.04429" gradientUnits="userSpaceOnUse">
<stop offset="0.0592" stop-color="#0FA8E0"/>
<stop offset="0.5385" stop-color="#0099F9"/>
<stop offset="0.9234" stop-color="#0291EB"/>
</linearGradient>
<linearGradient id="paint2_linear_18_2492" x1="15.8519" y1="30.3505" x2="27.8596" y2="27.6168" gradientUnits="userSpaceOnUse">
<stop offset="0.1226" stop-color="#A3CD39"/>
<stop offset="0.2846" stop-color="#86C339"/>
<stop offset="0.8693" stop-color="#21A038"/>
</linearGradient>
<linearGradient id="paint3_linear_18_2492" x1="16.1212" y1="2.85497" x2="26.1013" y2="5.9551" gradientUnits="userSpaceOnUse">
<stop offset="0.0566" stop-color="#0291EB"/>
<stop offset="0.79" stop-color="#0C8ACB"/>
</linearGradient>
<linearGradient id="paint4_linear_18_2492" x1="5.47321" y1="28.6753" x2="16.1835" y2="32.7042" gradientUnits="userSpaceOnUse">
<stop offset="0.1324" stop-color="#F2E913"/>
<stop offset="0.2977" stop-color="#EBE716"/>
<stop offset="0.5306" stop-color="#D9E01F"/>
<stop offset="0.8023" stop-color="#BBD62D"/>
<stop offset="0.9829" stop-color="#A3CD39"/>
</linearGradient>
<linearGradient id="paint5_linear_18_2492" x1="3.19062" y1="17.5107" x2="7.41905" y2="6.43708" gradientUnits="userSpaceOnUse">
<stop offset="0.0698" stop-color="#A3CD39"/>
<stop offset="0.2599" stop-color="#81C55F"/>
<stop offset="0.9216" stop-color="#0FA8E0"/>
</linearGradient>
</defs>
</svg>
