<svg width="155" height="54" viewBox="0 0 155 54" fill="none" xmlns="http://www.w3.org/2000/svg">
<g clip-path="url(#clip0_18_2544)">
<path d="M17.4979 0.000232697C21.2068 0.000232697 22.3722 2.63602 23.35 5.26768C23.7607 6.3852 33.3988 32.5365 33.6886 33.3215C33.7657 33.5404 33.7136 33.8999 33.3738 34.03C33.0319 34.1581 28.0241 36.0874 27.7468 36.1907C27.4696 36.296 27.1589 36.1432 27.0589 35.8684C26.9546 35.5978 24.876 29.8966 24.6425 29.2604H10.3574C10.1322 29.8966 8.02863 35.6102 7.93482 35.8684C7.83892 36.1308 7.54079 36.3084 7.24474 36.1907C6.9487 36.075 1.9222 34.1457 1.62199 34.03C1.33428 33.9185 1.20294 33.5941 1.30301 33.3215C1.65743 32.3424 11.1496 6.61036 11.6333 5.26768C12.5756 2.67527 13.7806 0.000232697 17.4979 0.000232697ZM0.539968 46.7937C0.239754 46.7937 0 47.0416 0 47.3432V53.4555C0 53.7571 0.239754 54.0009 0.539968 54.0009H34.4412C34.7477 54.0009 34.9874 53.7571 34.9874 53.4555V47.3432C34.9874 47.0416 34.7477 46.7937 34.4412 46.7937H0.539968ZM17.4645 8.5397L12.6361 22.9064H22.3722L17.5271 8.5397H17.4645ZM89.9182 32.0965C89.2073 32.3341 88.7382 32.3919 88.1795 32.3919C87.0245 32.3919 86.3844 31.9395 86.3844 30.7663C86.3844 29.5434 87.1975 29.1344 88.7945 29.1344C89.1844 29.1344 89.5679 29.1901 89.7472 29.2521V30.128C89.7472 31.072 89.7994 31.6917 89.9182 32.0965ZM94.0232 33.4971C93.1705 32.2143 92.9474 31.4583 92.9474 29.8408V26.5564C92.9474 24.7882 92.739 24.1499 92.2678 23.5054C91.6111 22.5924 90.5165 22.1958 88.5047 22.1958C87.0808 22.1958 85.6985 22.3487 84.3601 22.6874L84.8438 25.0216C85.7486 24.8956 86.6972 24.7882 87.3664 24.7882C89.5033 24.7882 89.7472 25.0939 89.7472 26.6824V27.2753C89.2719 27.1493 88.7382 27.0584 88.119 27.0584C84.9021 27.0584 83.203 28.618 83.203 31.2C83.203 33.621 85.0189 34.941 87.2309 34.941C88.0565 34.941 88.9196 34.7902 89.6034 34.5134C90.0162 34.3357 90.1955 34.2304 90.7292 33.8875C91.0503 34.3502 91.6945 34.8232 91.9572 34.912L94.0232 33.4971ZM125.844 32.0965C125.129 32.3341 124.668 32.3919 124.105 32.3919C122.946 32.3919 122.298 31.9395 122.298 30.7663C122.298 29.5434 123.121 29.1344 124.722 29.1344C125.112 29.1344 125.498 29.1901 125.673 29.2521V30.128C125.673 31.072 125.723 31.6917 125.844 32.0965ZM129.953 33.4971C129.094 32.2143 128.875 31.4583 128.875 29.8408V26.5564C128.875 24.7882 128.662 24.1499 128.187 23.5054C127.539 22.5924 126.442 22.1958 124.424 22.1958C123.002 22.1958 121.612 22.3487 120.273 22.6874L120.751 25.0216C121.657 24.8956 122.608 24.7882 123.296 24.7882C125.421 24.7882 125.673 25.0939 125.673 26.6824V27.2753C125.197 27.1493 124.668 27.0584 124.036 27.0584C120.815 27.0584 119.11 28.618 119.11 31.2C119.11 33.621 120.93 34.941 123.152 34.941C123.988 34.941 124.843 34.7902 125.521 34.5134C125.94 34.3357 126.113 34.2304 126.646 33.8875C126.972 34.3502 127.616 34.8232 127.881 34.912L129.953 33.4971ZM155 34.6662C155 34.6662 153.236 30.9418 152.805 30.0949C152.319 29.1406 151.869 28.4816 150.876 28.2441V28.1904C151.541 28.0644 152.071 27.6657 152.65 26.4469C153.199 25.2592 153.361 25.003 153.684 24.72C154.001 24.4391 154.435 24.5403 154.435 24.5403L154.598 22.3445C154.137 22.2826 153.626 22.2805 153.099 22.3094C152.223 22.3611 151.771 22.611 151.339 23.0407C151.001 23.3691 150.772 23.8607 150.488 24.4247C150.188 25.0402 149.951 25.536 149.638 26.1619C149.327 26.8043 149.181 27.0935 148.345 27.0935H147.801V17.3663H144.58V34.6662H147.801V29.6921L148.241 29.6838C149.165 29.6838 149.327 29.9131 149.815 30.8778C150.386 32.0284 151.481 34.6662 151.481 34.6662H155ZM64.2603 34.6662H67.9776L62.3548 17.6555C61.7627 17.4592 61.031 17.3374 60.2492 17.3374C59.3965 17.3374 59.0921 17.4489 58.4249 17.6555L52.4749 34.6662H56.042C56.042 34.6662 56.5236 33.1748 57.0907 31.326H63.2534C63.8038 33.1728 64.2603 34.6662 64.2603 34.6662ZM57.9955 28.4734C57.9955 28.4734 59.0254 25.0588 59.1859 24.5279C59.5945 23.1522 60.2158 20.9667 60.2158 20.9667H60.318C60.318 20.9667 60.8934 23.2307 61.2686 24.5032C61.4104 25.0092 62.3944 28.4734 62.3944 28.4734H57.9955ZM99.5105 26.5275C98.3742 26.5275 97.4506 27.4467 97.4506 28.5725C97.4506 29.7066 98.3742 30.6196 99.5105 30.6196C100.649 30.6196 101.568 29.7066 101.568 28.5725C101.568 27.4467 100.649 26.5275 99.5105 26.5275ZM72.3911 17.3663H69.1618V34.6642H72.3911V17.3663ZM136.551 24.9452C138.336 24.9824 138.557 25.348 138.557 26.8312V34.6662H141.757V26.5564C141.757 24.7882 141.549 24.1499 141.073 23.5054C140.417 22.5924 139.126 22.1958 136.943 22.1958C134.783 22.1958 133.408 22.423 131.637 22.9456V34.6662H134.871V25.0939C135.72 24.9721 135.87 24.9452 136.551 24.9452ZM80.3781 17.0585C78.36 17.0585 77.2613 17.4551 76.615 18.3661C76.1396 19.0126 75.9291 19.6654 75.9291 21.4377V22.9456H74.3259V25.5319H75.9291V34.6662H79.1314L79.123 25.5319H82.3149V22.9456H79.123L79.1314 21.5596C79.1314 19.9732 79.3753 19.6654 81.5143 19.6654C81.7457 19.6654 82.0063 19.6778 82.2836 19.6984L82.7881 17.2134C81.998 17.1101 81.1891 17.0585 80.3781 17.0585ZM106.071 17.2196C107.17 17.1556 109.626 17.0647 111.167 17.0647C111.448 17.0647 111.74 17.0668 112.032 17.0812C115.061 17.0812 116.798 19.2667 116.798 21.8322C116.798 23.5777 115.991 24.7366 114.1 25.4265C116.325 25.914 117.49 27.6347 117.49 29.7396C117.49 31.2847 117.05 32.5117 116.243 33.3483C115.197 34.3688 113.612 34.941 111.502 34.941C109.626 34.941 107.27 34.8831 106.071 34.8129V17.2196ZM111.167 20.0537C110.633 20.0537 109.972 20.064 109.317 20.0868V24.2408H111.169C111.903 24.2408 112.493 24.0384 112.895 23.648C113.279 23.2803 113.479 22.7597 113.479 22.1421C113.479 20.8139 112.753 20.062 111.404 20.0537H111.167ZM111.233 31.9581H111.373C113.056 31.9581 114.085 31.072 114.098 29.2872C114.081 28.6469 113.833 28.0561 113.389 27.6285C112.903 27.1451 112.215 26.8931 111.409 26.8931H109.317V31.9395C109.907 31.9519 110.558 31.954 111.233 31.9581Z" fill="#EE2A23"/>
</g>
<defs>
<clipPath id="clip0_18_2544">
<rect width="155" height="54" fill="white"/>
</clipPath>
</defs>
</svg>
