<svg width="184" height="34" viewBox="0 0 184 34" fill="none" xmlns="http://www.w3.org/2000/svg">
<g clip-path="url(#clip0_18_2511)">
<path d="M0.0732422 17.2466H33.7287V0.000192642H0.0732422V17.2466Z" fill="#EE293D"/>
<path d="M0.0732422 33.8168H33.7312V16.9084H0.0732422V33.8168Z" fill="#231F20"/>
<path d="M5.94336 17.9375H27.8413V15.8793H5.94336V17.9375Z" fill="white"/>
<path d="M55.2031 8.44432C58.8654 8.44432 61.1648 10.8495 61.1648 14.1731C61.1648 17.634 58.8654 19.6269 55.2031 19.6269H47.9182V25.2843H44.8145V8.44432H55.2031ZM55.3808 16.8433C56.9884 16.8433 57.9952 15.724 57.9952 14.2182C57.9952 12.5576 56.9884 11.231 55.2031 11.231H47.9182V16.8433H55.3808Z" fill="#231F20"/>
<path d="M72.6719 25.7549C67.3339 25.7549 62.9102 22.1878 62.9102 16.8432C62.9102 11.568 67.3339 7.93005 72.6719 7.93005C78.0348 7.93005 82.3879 11.568 82.3879 16.8432C82.3879 22.1878 78.0348 25.7549 72.6719 25.7549ZM72.6719 10.8053C68.7823 10.8053 66.1236 13.4529 66.1236 16.8432C66.1236 20.3243 68.6719 22.9029 72.6719 22.9029C76.6489 22.9029 79.1701 20.3026 79.1701 16.8432C79.1701 13.4529 76.6489 10.8053 72.6719 10.8053Z" fill="#231F20"/>
<path d="M95.2563 25.7346C89.6477 25.7346 85.4248 22.1644 85.4248 16.8224C85.4248 11.568 89.7118 7.92999 95.2563 7.92999C98.5644 7.92999 100.929 8.87539 103.055 10.4427L101.396 12.9163C99.8567 11.7227 97.9139 10.8494 95.3466 10.8494C91.255 10.8494 88.7091 13.4529 88.7091 16.8224C88.7091 20.3026 91.2796 22.8128 95.3893 22.8128C97.9574 22.8128 99.9897 21.9824 101.532 20.7965L103.185 23.2648C101.064 24.8353 98.5644 25.7346 95.2563 25.7346Z" fill="#231F20"/>
<path d="M130.019 21.1975L128.099 25.2859H124.746L132.899 8.44432H136.158L144.337 25.2859H140.985L139.066 21.1975H130.019ZM131.313 18.4598H137.773L134.553 11.6334L131.313 18.4598Z" fill="#231F20"/>
<path d="M160.777 25.2844V18.0799H149.809V25.2844H146.703V8.44444H149.809V15.3181H160.777V8.44444H163.884V25.2844H160.777Z" fill="#231F20"/>
<path d="M168.481 25.2843V8.44432H171.591V16.3028L180.011 8.44432H183.825L175.163 16.5529L184.184 25.2843H180.011L171.591 17.1121V25.2843H168.481Z" fill="#231F20"/>
<path d="M117.073 14.6183H109.797V11.0679H121.784V8.43028H106.691V25.2563H117.073C120.731 25.2563 123.252 23.2571 123.252 19.9376C123.252 16.4836 120.731 14.6183 117.073 14.6183ZM117.252 22.4727H109.797V17.4041H117.252C119.198 17.4041 120.305 18.4355 120.305 19.9376C120.305 21.5966 119.425 22.4727 117.252 22.4727Z" fill="#231F20"/>
</g>
<defs>
<clipPath id="clip0_18_2511">
<rect width="184" height="34" fill="white"/>
</clipPath>
</defs>
</svg>
