<svg width="19" height="19" viewBox="0 0 19 19" fill="none" xmlns="http://www.w3.org/2000/svg">
<path d="M10.7141 9.49999L17.8527 2.36138C17.9938 2.19665 18.0675 1.98475 18.0592 1.76803C18.0508 1.55131 17.961 1.34573 17.8076 1.19237C17.6542 1.03901 17.4487 0.94917 17.2319 0.940799C17.0152 0.932428 16.8033 1.00614 16.6386 1.14722L9.49997 8.28583L2.36136 1.13861C2.19921 0.976456 1.97929 0.885361 1.74997 0.885361C1.52065 0.885361 1.30073 0.976456 1.13858 1.13861C0.976431 1.30076 0.885336 1.52068 0.885336 1.75C0.885336 1.97931 0.976431 2.19923 1.13858 2.36138L8.2858 9.49999L1.13858 16.6386C1.04844 16.7158 0.975227 16.8108 0.92354 16.9176C0.871853 17.0245 0.842808 17.1408 0.838227 17.2594C0.833646 17.378 0.853629 17.4963 0.896921 17.6068C0.940213 17.7173 1.00588 17.8176 1.0898 17.9016C1.17372 17.9855 1.27408 18.0511 1.38458 18.0944C1.49508 18.1377 1.61334 18.1577 1.73193 18.1531C1.85052 18.1485 1.96689 18.1195 2.07372 18.0678C2.18056 18.0161 2.27555 17.9429 2.35275 17.8528L9.49997 10.7142L16.6386 17.8528C16.8033 17.9938 17.0152 18.0676 17.2319 18.0592C17.4487 18.0508 17.6542 17.961 17.8076 17.8076C17.961 17.6543 18.0508 17.4487 18.0592 17.232C18.0675 17.0152 17.9938 16.8033 17.8527 16.6386L10.7141 9.49999Z" fill="#292929"/>
</svg>
