<svg width="138" height="138" viewBox="0 0 138 138" fill="none" xmlns="http://www.w3.org/2000/svg">
<g style="mix-blend-mode:luminosity" opacity="0.6">
<path d="M70.6937 138L70.4995 130.447H71.5783L71.8804 138H70.6937ZM66.1304 138L64.9869 137.871L65.4184 130.318L66.4325 130.372L66.1304 138ZM76.379 137.666L75.5699 130.113L76.584 129.994L77.5117 137.547L76.379 137.666ZM60.4451 137.536L59.3663 137.385L60.4451 129.908L61.4484 130.037L60.4451 137.536ZM82.0211 136.824L80.6079 129.401L81.6004 129.206L83.1323 136.597L82.0211 136.824ZM54.8246 136.597L53.7458 136.349L55.4179 128.991L56.3996 129.206L54.8246 136.597ZM87.5769 135.518L85.5488 128.16L86.5305 127.879L88.6881 135.119L87.5769 135.518ZM49.2903 135.205L48.2115 134.871L50.477 127.663L51.4479 127.966L49.2903 135.205ZM93.0033 133.76L90.3818 126.682L91.3311 126.315L94.0713 133.36L93.0033 133.76ZM43.8963 133.36L42.8175 132.929L45.6764 125.937L46.6149 126.315L43.8963 133.36ZM98.2786 131.559L95.0422 124.718L95.97 124.276L99.2819 131.062L98.2786 131.559ZM38.6749 131.062L37.5962 130.555L41.0807 123.844L41.9869 124.286L38.6749 131.062ZM103.338 128.904L99.584 122.355L100.458 121.837L104.331 128.311L103.338 128.904ZM33.6585 128.332L32.6876 127.739L36.6576 121.265L37.5206 121.783L33.6585 128.332ZM108.16 125.851L103.845 119.636L104.676 119.053L109.077 125.193L108.16 125.851ZM28.8902 125.214L27.9625 124.534L32.4611 118.449L33.281 119.043L28.8902 125.214ZM112.724 122.409L107.934 116.583L108.721 115.924L113.608 121.686L112.724 122.409ZM24.424 121.686L23.561 120.942L28.5019 115.212L29.2786 115.881L24.424 121.686ZM117.017 118.589L111.764 113.195C112.012 112.968 112.249 112.72 112.486 112.482L117.956 117.705L117.816 117.845L117.017 118.589ZM20.2275 117.823L19.4507 117.046L24.8447 111.781C25.0713 112.018 25.2978 112.256 25.5352 112.482L20.2275 117.823ZM121.052 114.349L115.367 109.386L116.025 108.609L121.796 113.486L121.052 114.349ZM16.4085 113.626L15.675 112.752L21.5113 107.951L22.1585 108.738L16.4085 113.626ZM124.666 109.904L118.592 105.415L119.186 104.606L125.335 108.976C125.044 109.289 124.817 109.591 124.591 109.904H124.666ZM12.8917 109.127L12.2336 108.188L18.4475 103.872L19.03 104.703L12.8917 109.127ZM127.859 105.178L121.386 101.218L121.915 100.355L128.388 104.207L127.859 105.178ZM9.76313 104.347L9.10506 103.344L15.6534 99.578L16.1712 100.452L9.76313 104.347ZM130.589 100.204L123.857 96.7834L124.31 95.8771L131.096 99.1895C130.912 99.524 130.74 99.8693 130.567 100.204H130.589ZM6.97983 99.3298L6.49437 98.3048L13.3232 95.0679C13.4742 95.37 13.6144 95.6829 13.7655 95.985L6.97983 99.3298ZM132.962 95.0139L125.961 92.1762C126.09 91.8633 126.209 91.5504 126.338 91.2268L133.383 93.9565L132.962 95.0139ZM4.69278 94.1076C4.55253 93.7515 4.41229 93.3955 4.28283 93.0286L11.3382 90.3959C11.4568 90.7088 11.5755 91.0218 11.705 91.3454L4.69278 94.1076ZM134.882 89.6515L127.676 87.3964C127.784 87.0727 127.881 86.749 127.978 86.4253L135.217 88.5833C135.087 88.9286 134.979 89.317 134.861 89.6515H134.882ZM2.84803 88.702C2.74015 88.3351 2.63227 87.9683 2.53518 87.623L9.80628 85.5945C9.89259 85.9182 9.98968 86.2419 10.0868 86.5656L2.84803 88.702ZM136.371 84.1487L129.003 82.4871C129.078 82.1526 129.154 81.8289 129.219 81.4945L136.608 83.0266C136.5 83.4042 136.425 83.7711 136.339 84.1487H136.371ZM1.42401 83.1669C1.33771 82.8 1.26219 82.4224 1.19747 82.0879L8.60882 80.6529C8.67355 80.9873 8.73827 81.3218 8.81379 81.6563L1.42401 83.1669ZM137.353 78.5273L129.877 77.4483L130.006 76.4341L137.504 77.362C137.461 77.772 137.407 78.1497 137.353 78.5273ZM0.485458 77.5346C0.485458 77.157 0.388367 76.7794 0.345215 76.4017L7.89681 75.5925C7.89681 75.9378 7.97233 76.2723 8.01548 76.6067L0.485458 77.5346ZM137.914 72.8519L130.362 72.4311C130.362 72.0966 130.362 71.7514 130.362 71.4169L137.914 71.719C137.946 72.0535 137.935 72.4743 137.914 72.8519ZM0.0107882 71.8485C0.0107882 71.4708 0.0107882 71.0932 0.0107882 70.7695L7.56238 70.5861V71.6003L0.0107882 71.8485ZM130.448 67.3492C130.448 67.0147 130.448 66.6694 130.448 66.335L138 66.0113C138 66.3889 138 66.7665 138 67.155L130.448 67.3492ZM7.55159 66.4644L0 66.1515C0 65.7739 -8.23862e-07 65.3963 0.0539391 65.0078L7.60553 65.4394C7.58396 65.7847 7.57317 66.1192 7.55159 66.4644ZM130.146 62.278C130.146 61.9436 130.071 61.6091 130.028 61.2638L137.579 60.3251L137.709 61.458L130.146 62.278ZM8.01548 61.3933L0.517823 60.4654C0.517823 60.0877 0.614914 59.7101 0.668854 59.3325L8.14493 60.4114L8.01548 61.3933ZM129.391 57.25C129.326 56.9156 129.262 56.5919 129.186 56.2574L136.576 54.7037C136.662 55.0705 136.727 55.4482 136.803 55.7826L129.391 57.25ZM8.84615 56.3761L1.44559 54.8439C1.52111 54.4663 1.60741 54.0995 1.69371 53.765L9.05112 55.4266C8.94324 55.7179 8.86773 56.0524 8.803 56.3761H8.84615ZM128.215 52.3084C128.129 51.9739 128.032 51.6502 127.935 51.3265L135.174 49.1686L135.497 50.2475L128.215 52.3084ZM10.076 51.456L2.83724 49.2981C2.94512 48.9312 3.06379 48.5751 3.17167 48.2191L10.378 50.4849C10.227 50.8086 10.1299 51.1323 10.0328 51.456H10.076ZM126.651 47.4746L126.284 46.5251L133.318 43.7737L133.728 44.8527L126.651 47.4746ZM11.7265 46.6546L4.68199 43.914L5.10272 42.835L12.0933 45.6835C11.9315 46.018 11.8021 46.3309 11.6834 46.6546H11.7265ZM124.677 42.7919C124.537 42.479 124.386 42.1769 124.235 41.8747L131.02 38.5407L131.516 39.6197L124.677 42.7919ZM13.7547 42.0042L6.96904 38.6918C7.14165 38.3465 7.30347 38.0013 7.47608 37.6128L14.2078 41.0439L13.7547 42.0042ZM122.282 38.2818L121.764 37.4078L128.237 33.5235L128.819 34.5162L122.282 38.2818ZM16.128 37.5265L9.65525 33.6638C9.84944 33.3293 10.0544 33.0056 10.2486 32.6819L16.6674 36.6633L16.128 37.5265ZM119.563 33.9767L118.981 33.1459L125.108 28.7437L125.777 29.6824L119.563 33.9767ZM18.9006 33.2754L12.7514 28.8948L13.4203 27.9776L19.4939 32.4769L18.9006 33.2754ZM116.5 29.9737L115.841 29.1969L121.591 24.2984L122.325 25.1723L116.5 29.9737ZM22.0183 29.3264L16.2575 24.4494L17.0019 23.5755L22.6871 28.5603C22.4606 28.7653 22.2664 29.0242 22.0183 29.2832V29.3264ZM113.101 26.1866C112.886 25.9708 112.681 25.755 112.454 25.5392L112.379 25.4529L117.773 20.058L117.848 20.1443C118.096 20.3817 118.333 20.6191 118.571 20.8672L113.101 26.1866ZM25.5028 25.496L20.1088 20.1983H20.1628C20.4109 19.9393 20.659 19.6912 20.9179 19.443L26.1717 24.8378L25.5028 25.496ZM109.401 22.6367L108.635 21.9786L113.511 16.2169L114.374 16.9506L109.401 22.6367ZM29.1923 22.0865L24.2946 16.3356L25.1684 15.6019L29.969 21.4283L29.1923 22.0865ZM105.442 19.4538L104.622 18.8604L109.013 12.7102L109.93 13.3792L105.442 19.4538ZM33.1623 18.9575L28.8039 12.8181L29.7425 12.16L34.0577 18.364C33.7556 18.5582 33.4751 18.7525 33.2054 18.9575H33.1623ZM101.213 16.6161L100.339 16.0874L104.201 9.6136L105.172 10.207L101.213 16.6161ZM37.4559 16.1629L33.5722 9.68913L34.5647 9.11728L38.3297 15.6558L37.4559 16.1629ZM96.7899 14.1237L95.8837 13.6813L99.1848 6.88381L100.264 7.39093L96.7899 14.1237ZM41.9221 13.7892L38.5994 7.01329L39.6782 6.51697L42.9146 13.3468L41.9221 13.7892ZM92.2158 12.0737L91.3096 11.6313L94.0281 4.59641C94.3805 4.72588 94.7401 4.86615 95.1069 5.0172L92.2158 12.0737ZM46.5718 11.75L43.8424 4.66114L44.9212 4.25114L47.5643 11.3292L46.5718 11.75ZM87.4367 10.3581L86.4658 10.056L88.6234 2.81611L89.7022 3.15058L87.4367 10.3581ZM51.394 10.0452L49.2364 2.80532L50.3152 2.48162L52.3326 9.76466L51.394 10.0452ZM82.5497 8.96622L81.5572 8.75043L83.0999 1.34871L84.1787 1.59687L82.5497 8.96622ZM56.3241 8.77201L54.7814 1.38108L55.8602 1.1545L57.295 8.57779C56.9714 8.65332 56.637 8.72885 56.3025 8.79359L56.3241 8.77201ZM77.5549 8.0491L76.5516 7.91962L77.4686 0.420797L78.5474 0.571852L77.5549 8.0491ZM61.3729 7.94121L60.4343 0.442377L61.5131 0.312898L62.3222 7.86568L61.3729 7.94121ZM72.5277 7.55278H71.5136L71.8157 0H72.9592L72.5277 7.55278ZM66.4325 7.55278L66.1196 0H67.2631L67.4465 7.55278H66.4325Z" fill="#D4CEFF" fill-opacity="0.8"/>
</g>
</svg>
