<svg width="48" height="48" viewBox="0 0 48 48" fill="none" xmlns="http://www.w3.org/2000/svg">
<path d="M27.8524 33.4784L35.0238 21.9471C35.0472 21.9098 35.0668 21.8706 35.0821 21.8299C36.3205 19.8105 36.9743 17.5036 36.9743 15.1483C36.9743 8.08263 31.2259 2.33423 24.1602 2.33423C17.0945 2.33423 11.3457 8.08263 11.3457 15.1483C11.3457 17.504 12.0005 19.8119 13.2398 21.8328C13.2541 21.8682 13.2709 21.9026 13.291 21.9361L20.205 33.5071C14.8378 34.2657 11.3083 36.4726 11.3083 39.1498C11.3083 42.4669 16.9453 45.0646 24.1411 45.0646C31.3369 45.0646 36.9738 42.4664 36.9738 39.1498C36.9743 36.4602 33.2803 34.204 27.8524 33.4784ZM14.5279 21.1866C13.3847 19.3671 12.7806 17.2792 12.7806 15.1483C12.7806 8.87377 17.8852 3.76918 24.1602 3.76918C30.4348 3.76918 35.5394 8.87377 35.5394 15.1483C35.5394 17.2802 34.9353 19.368 33.7926 21.1866C33.7686 21.2249 33.749 21.2646 33.7333 21.3057L26.1567 33.487C26.0429 33.6616 26.0204 33.7013 25.8812 33.9299L23.9679 37.0064L14.592 21.3157C14.5752 21.2713 14.5537 21.2277 14.5279 21.1866ZM24.1416 43.6297C17.4246 43.6297 12.7438 41.2682 12.7438 39.1498C12.7438 37.2269 16.269 35.4151 21.0105 34.854L23.3399 38.7528C23.4686 38.9675 23.6991 39.1 23.9493 39.1019C23.9512 39.1019 23.9536 39.1019 23.9555 39.1019C24.2033 39.1019 24.4338 38.9737 24.5649 38.7633L27.0139 34.8258C31.831 35.3476 35.5389 37.2054 35.5389 39.1498C35.5394 41.2687 30.8586 43.6297 24.1416 43.6297Z" fill="#B3966F"/>
<path d="M28.8007 15.1483C28.8007 12.5793 26.7105 10.489 24.1415 10.489C21.5724 10.489 19.4822 12.5793 19.4822 15.1483C19.4822 17.7173 21.5724 19.8076 24.1415 19.8076C26.7105 19.8076 28.8007 17.7173 28.8007 15.1483ZM20.9171 15.1483C20.9171 13.3704 22.3636 11.924 24.1415 11.924C25.9194 11.924 27.3658 13.3704 27.3658 15.1483C27.3658 16.9262 25.9198 18.3726 24.1415 18.3726C22.3631 18.3726 20.9171 16.9262 20.9171 15.1483Z" fill="#B3966F"/>
</svg>
