<svg width="49" height="48" viewBox="0 0 49 48" fill="none" xmlns="http://www.w3.org/2000/svg">
<path d="M39.8187 18.2856C39.8727 9.82367 33.0328 2.89526 24.5714 2.84073C16.0985 2.79051 9.18107 9.6266 9.12654 18.088C9.08732 24.2081 12.6551 29.5236 17.8333 32.019L17.8836 45.387C17.8845 45.674 18.0562 45.9323 18.3203 46.0442C18.4107 46.0829 18.5063 46.1016 18.601 46.1016C18.7823 46.1016 18.9607 46.0327 19.097 45.9031L24.3997 40.8382L29.7381 45.8677C29.9467 46.0647 30.2538 46.1169 30.5154 46.0035C30.7785 45.8897 30.9483 45.63 30.9473 45.343L30.9019 32.1166C36.1285 29.6939 39.7794 24.4171 39.8187 18.2856ZM29.5066 43.6784L24.8875 39.3272C24.6101 39.0655 24.1763 39.067 23.9003 39.3305L19.3123 43.7129L19.2707 32.6221C20.8663 33.199 22.583 33.5214 24.3738 33.5329C24.4073 33.5329 24.4403 33.5333 24.4738 33.5333C26.2216 33.5333 27.9009 33.2353 29.4684 32.6939L29.5066 43.6784ZM24.4738 32.0984C24.4441 32.0984 24.4131 32.0979 24.3834 32.0979C16.7126 32.0486 10.5122 25.7683 10.562 18.0971C10.6112 10.4565 16.8423 4.2752 24.4719 4.2752C24.5015 4.2752 24.5326 4.2752 24.5623 4.2752C32.2326 4.32494 38.433 10.6052 38.3837 18.276C38.3349 25.9166 32.1034 32.0984 24.4738 32.0984Z" fill="#B3966F"/>
<path d="M31.4476 15.9821L27.0854 15.3201L25.1597 11.3529C25.0406 11.1071 24.7919 10.9506 24.5192 10.9487C24.5178 10.9487 24.5164 10.9487 24.5144 10.9487C24.2432 10.9487 23.995 11.1018 23.873 11.3448L21.8966 15.2871L17.5282 15.8926C17.2579 15.9304 17.0317 16.1179 16.946 16.3771C16.8599 16.6364 16.9283 16.9219 17.123 17.1137L20.2613 20.2128L19.4883 24.5549C19.4405 24.8237 19.549 25.0964 19.7691 25.2585C19.9891 25.4207 20.2818 25.4432 20.5243 25.3178L24.4403 23.2907L28.3324 25.3681C28.4386 25.4245 28.5543 25.4527 28.6701 25.4527C28.8174 25.4527 28.9637 25.4073 29.0881 25.3183C29.31 25.1595 29.4224 24.8883 29.378 24.6185L28.6605 20.2668L31.8384 17.208C32.035 17.0186 32.1072 16.734 32.025 16.4738C31.9413 16.214 31.7184 16.0232 31.4476 15.9821ZM27.3934 19.4948C27.2236 19.6584 27.1442 19.8952 27.183 20.1286L27.7254 23.418L24.7833 21.8472C24.6776 21.7907 24.5613 21.7625 24.4451 21.7625C24.3317 21.7625 24.2188 21.7893 24.1155 21.8429L21.1557 23.3749L21.7397 20.0927C21.7813 19.8602 21.7058 19.6225 21.5374 19.4565L19.1654 17.1142L22.4677 16.656C22.7016 16.6235 22.9049 16.4781 23.0106 16.2671L24.5044 13.2877L25.9599 16.2863C26.0632 16.4986 26.2646 16.6469 26.498 16.6823L29.796 17.1826L27.3934 19.4948Z" fill="#B3966F"/>
</svg>
