<svg width="48" height="48" viewBox="0 0 48 48" fill="none" xmlns="http://www.w3.org/2000/svg">
<path d="M41.8703 5.53174H12.6911C10.9488 5.53174 9.55269 6.75681 9.51257 8.33914V14.4593C9.51257 14.8552 9.83305 15.1757 10.229 15.1757C10.6249 15.1757 10.9454 14.8552 10.9454 14.4593V8.35729C10.965 7.58929 11.7483 6.96457 12.6911 6.96457H41.8703C42.8341 6.96457 43.6179 7.60219 43.6179 8.38643V31.7636C43.6179 32.5483 42.8337 33.1864 41.8703 33.1864H12.6911C11.7287 33.1864 10.9454 32.5483 10.9454 31.7636V28.417C10.9454 28.0215 10.6249 27.7006 10.229 27.7006C9.83305 27.7006 9.51257 28.0215 9.51257 28.417V31.7636C9.51257 33.3383 10.9382 34.6193 12.6911 34.6193H26.4549V40.7972H17.3607C16.9648 40.7972 16.6443 41.1181 16.6443 41.5136C16.6443 41.9091 16.9648 42.23 17.3607 42.23H36.9017C37.2972 42.23 37.6181 41.9091 37.6181 41.5136C37.6181 41.1181 37.2972 40.7972 36.9017 40.7972H27.8877V34.6188H41.8703C43.6241 34.6188 45.0507 33.3378 45.0507 31.7631V8.38643C45.0507 6.81222 43.6241 5.53174 41.8703 5.53174Z" fill="#B3966F"/>
<path d="M22.5094 17.2213H37.8651C38.2606 17.2213 38.5815 16.9008 38.5815 16.5049C38.5815 16.1089 38.2606 15.7885 37.8651 15.7885H22.5094C22.1134 15.7885 21.793 16.1089 21.793 16.5049C21.793 16.9008 22.1134 17.2213 22.5094 17.2213Z" fill="#B3966F"/>
<path d="M22.5094 21.7582H37.8651C38.2606 21.7582 38.5815 21.4377 38.5815 21.0417C38.5815 20.6458 38.2606 20.3253 37.8651 20.3253H22.5094C22.1134 20.3253 21.793 20.6458 21.793 21.0417C21.793 21.4377 22.1134 21.7582 22.5094 21.7582Z" fill="#B3966F"/>
<path d="M22.5094 26.5457H37.8651C38.2606 26.5457 38.5815 26.2248 38.5815 25.8293C38.5815 25.4339 38.2606 25.1129 37.8651 25.1129H22.5094C22.1134 25.1129 21.793 25.4339 21.793 25.8293C21.793 26.2248 22.1134 26.5457 22.5094 26.5457Z" fill="#B3966F"/>
<path d="M10.0828 23.2717C10.2677 23.2717 10.4511 23.2005 10.5896 23.062L20.9404 12.7107C21.2203 12.4308 21.2203 11.9771 20.9404 11.6977C20.6605 11.4178 20.2073 11.4178 19.9274 11.6977L10.005 21.6206L3.84236 17.2332C3.51949 17.004 3.07293 17.0794 2.8432 17.4013C2.61394 17.7237 2.68893 18.1713 3.01179 18.4005L9.66827 23.1389C9.79293 23.2282 9.9386 23.2717 10.0828 23.2717Z" fill="#B3966F"/>
</svg>
