<svg width="38" height="37" viewBox="0 0 38 37" fill="none" xmlns="http://www.w3.org/2000/svg">
<ellipse cx="18.8619" cy="18.5" rx="18.6207" ry="18.5" fill="#B3966F"/>
<path d="M18.8619 21.7375C17.1162 21.7375 15.6033 20.35 15.6033 18.5C15.6033 16.7656 16.9998 15.2625 18.8619 15.2625C20.6076 15.2625 22.1205 16.65 22.1205 18.5C22.1205 20.2344 20.6076 21.7375 18.8619 21.7375Z" fill="#292929"/>
<path fill-rule="evenodd" clip-rule="evenodd" d="M22.8188 10.6375H14.905C13.974 10.7531 13.5085 10.8687 13.1593 10.9844C12.6938 11.1 12.3447 11.3312 11.9955 11.6781C11.7193 11.9526 11.5887 12.2271 11.4309 12.5588C11.3894 12.6463 11.3458 12.7379 11.2972 12.8344C11.2792 12.888 11.2585 12.9445 11.2362 13.0049C11.1144 13.3354 10.9481 13.7868 10.9481 14.5687V22.4312C11.0645 23.3562 11.1809 23.8187 11.2972 24.1656C11.4136 24.6281 11.6464 24.975 11.9955 25.3219C12.2718 25.5964 12.5481 25.726 12.882 25.8828C12.9701 25.9241 13.0622 25.9674 13.1593 26.0156C13.2133 26.0335 13.2701 26.0542 13.331 26.0763C13.6636 26.1973 14.118 26.3625 14.905 26.3625H22.8188C23.7498 26.2469 24.2153 26.1312 24.5645 26.0156C25.03 25.9 25.3791 25.6687 25.7283 25.3219C26.0045 25.0474 26.1351 24.7729 26.2928 24.4412C26.3345 24.3537 26.378 24.2621 26.4266 24.1656C26.4446 24.112 26.4653 24.0555 26.4876 23.9951C26.6094 23.6646 26.7757 23.2131 26.7757 22.4312V14.5687C26.6593 13.6437 26.5429 13.1812 26.4266 12.8344C26.3102 12.3719 26.0774 12.025 25.7283 11.6781C25.452 11.4036 25.1757 11.274 24.8418 11.1172C24.7539 11.0759 24.6615 11.0326 24.5645 10.9844C24.5105 10.9665 24.4537 10.9458 24.3928 10.9237C24.0602 10.8027 23.6058 10.6375 22.8188 10.6375ZM18.8619 13.5281C16.0688 13.5281 13.8576 15.725 13.8576 18.5C13.8576 21.275 16.0688 23.4719 18.8619 23.4719C21.655 23.4719 23.8662 21.275 23.8662 18.5C23.8662 15.725 21.655 13.5281 18.8619 13.5281ZM25.1464 13.4125C25.1464 14.0511 24.6253 14.5687 23.9826 14.5687C23.3398 14.5687 22.8188 14.0511 22.8188 13.4125C22.8188 12.7739 23.3398 12.2562 23.9826 12.2562C24.6253 12.2562 25.1464 12.7739 25.1464 13.4125Z" fill="#292929"/>
<path fill-rule="evenodd" clip-rule="evenodd" d="M0.241211 18.5C0.241211 8.28273 8.57798 0 18.8619 0C29.1458 0 37.4826 8.28273 37.4826 18.5C37.4826 28.7173 29.1458 37 18.8619 37C8.57798 37 0.241211 28.7173 0.241211 18.5ZM14.905 8.90312H22.8188C23.8662 9.01875 24.5645 9.13437 25.1464 9.36562C25.8447 9.7125 26.3102 9.94375 26.8921 10.5219C27.474 11.1 27.8231 11.6781 28.0559 12.2562C28.2886 12.8344 28.5214 13.5281 28.5214 14.5687V22.4312C28.405 23.4719 28.2886 24.1656 28.0559 24.7437C27.7067 25.4375 27.474 25.9 26.8921 26.4781C26.3102 27.0562 25.7283 27.4031 25.1464 27.6344C24.5645 27.8656 23.8662 28.0969 22.8188 28.0969H14.905C13.8576 27.9812 13.1593 27.8656 12.5774 27.6344C11.8791 27.2875 11.4136 27.0562 10.8317 26.4781C10.2498 25.9 9.90069 25.3219 9.66794 24.7437C9.43518 24.1656 9.20242 23.4719 9.20242 22.4312V14.5687C9.3188 13.5281 9.43518 12.8344 9.66794 12.2562C10.0171 11.5625 10.2498 11.1 10.8317 10.5219C11.4136 9.94375 11.9955 9.59687 12.5774 9.36562C13.1593 9.13437 13.8576 8.90312 14.905 8.90312Z" fill="#292929"/>
</svg>
