<svg width="53" height="45" viewBox="0 0 53 45" fill="none" xmlns="http://www.w3.org/2000/svg">
<path fill-rule="evenodd" clip-rule="evenodd" d="M17.3899 6.42857V0C11.5638 1.44788 7.20904 4.72005 4.32541 9.8166C1.44179 14.9132 0 21.8339 0 30.5792V45H19.5968V25.7143H11.2108V23.7162C11.2108 19.0251 11.7257 15.2462 12.7556 12.3793C13.7854 9.51253 15.3302 7.52896 17.3899 6.42857ZM50.0511 6.42857V0C44.225 1.44788 39.8702 4.72005 36.9865 9.8166C34.1029 14.9132 32.6611 21.8339 32.6611 30.5792V45H52.2579V25.7143H43.8719V23.7162C43.8719 19.0251 44.3868 15.2462 45.4167 12.3793C46.4466 9.51253 47.9913 7.52896 50.0511 6.42857Z" fill="#B3966F"/>
</svg>
