<svg width="35" height="35" viewBox="0 0 35 35" fill="none" xmlns="http://www.w3.org/2000/svg">
<path d="M23.625 30.8H8.40001V14.35L17.36 6.65L26.25 14.147C26.25 14.147 26.25 14.1645 26.25 14.175V17.325C26.25 17.4642 26.3053 17.5978 26.4038 17.6962C26.5022 17.7947 26.6358 17.85 26.775 17.85C26.9143 17.85 27.0478 17.7947 27.1462 17.6962C27.2447 17.5978 27.3 17.4642 27.3 17.325V15.029L30.2855 17.549C30.3918 17.639 30.5295 17.6832 30.6683 17.6717C30.8071 17.6602 30.9357 17.594 31.0258 17.4877C31.1158 17.3815 31.1599 17.2438 31.1484 17.1049C31.137 16.9661 31.0708 16.8375 30.9645 16.7475L17.696 5.5475C17.6009 5.46616 17.4799 5.42146 17.3548 5.42146C17.2296 5.42146 17.1086 5.46616 17.0135 5.5475L4.03201 16.7125C3.92619 16.8053 3.86158 16.9364 3.85239 17.0768C3.8432 17.2173 3.89019 17.3557 3.98301 17.4615C4.07584 17.5673 4.2069 17.6319 4.34737 17.6411C4.48783 17.6503 4.62619 17.6033 4.73201 17.5105L7.35001 15.246V31.325C7.35001 31.4642 7.40533 31.5978 7.50378 31.6962C7.60224 31.7947 7.73577 31.85 7.87501 31.85H23.625C23.7643 31.85 23.8978 31.7947 23.9962 31.6962C24.0947 31.5978 24.15 31.4642 24.15 31.325C24.15 31.1858 24.0947 31.0522 23.9962 30.9538C23.8978 30.8553 23.7643 30.8 23.625 30.8Z" fill="#B3966F"/>
<path d="M32.2 24.9655C31.5581 24.9715 30.9217 24.8467 30.3296 24.5988C29.7375 24.3509 29.2021 23.985 28.756 23.5235C27.8938 22.6441 27.377 21.4837 27.3 20.2545C27.3 20.1845 27.3 20.118 27.3 20.048C27.2984 19.9892 27.2866 19.9312 27.265 19.8765C27.2459 19.7516 27.1829 19.6375 27.0873 19.5548C26.9918 19.472 26.8699 19.426 26.7435 19.425C26.6067 19.4287 26.4767 19.4856 26.3813 19.5836C26.2858 19.6817 26.2324 19.8132 26.2325 19.95C26.2325 20.0515 26.2325 20.153 26.2325 20.258C26.1415 22.8235 23.8945 24.906 21.119 24.934H21.0595H21C20.8607 24.934 20.7272 24.9893 20.6287 25.0878C20.5303 25.1862 20.475 25.3198 20.475 25.459C20.475 25.5982 20.5303 25.7318 20.6287 25.8302C20.7272 25.9287 20.8607 25.984 21 25.984C22.3465 25.9972 23.6352 26.5333 24.5939 27.4789C25.5526 28.4246 26.1063 29.7058 26.138 31.052C26.1532 31.2063 26.2191 31.3512 26.3255 31.464C26.432 31.5767 26.5728 31.6509 26.726 31.675C26.8652 31.675 26.9987 31.6197 27.0972 31.5212C27.1957 31.4228 27.251 31.2892 27.251 31.15C27.223 28.35 29.4 26.047 32.067 26.0155H32.2C32.3392 26.0155 32.4727 25.9602 32.5712 25.8617C32.6697 25.7633 32.725 25.6297 32.725 25.4905C32.725 25.3513 32.6697 25.2177 32.5712 25.1193C32.4727 25.0208 32.3392 24.9655 32.2 24.9655ZM26.6805 28.7C26.0554 27.2896 24.9346 26.1576 23.5305 25.5185C24.9551 24.9469 26.1122 23.8597 26.7715 22.4735C27.0716 23.1368 27.4876 23.7413 28 24.2585C28.5039 24.7699 29.097 25.185 29.75 25.4835C28.3564 26.1282 27.2593 27.2778 26.6805 28.7Z" fill="#B3966F"/>
<path d="M6.125 6.426H6.16C6.89701 6.44377 7.59893 6.74447 8.12023 7.26577C8.64153 7.78707 8.94223 8.48898 8.96 9.226C8.97106 9.37338 9.03416 9.51203 9.13803 9.61718C9.2419 9.72233 9.37976 9.78713 9.527 9.8C9.59594 9.79909 9.66404 9.7846 9.72738 9.75737C9.79073 9.73014 9.84809 9.6907 9.89619 9.64129C9.9443 9.59189 9.9822 9.5335 10.0077 9.46945C10.0333 9.4054 10.0459 9.33694 10.045 9.268C10.0233 8.54275 10.2893 7.83835 10.785 7.30852C11.2807 6.7787 11.9659 6.46648 12.691 6.44H12.775C12.9142 6.44 13.0478 6.38469 13.1462 6.28623C13.2447 6.18777 13.3 6.05424 13.3 5.915C13.3 5.77576 13.2447 5.64222 13.1462 5.54377C13.0478 5.44531 12.9142 5.39 12.775 5.39C12.4224 5.39592 12.0724 5.32868 11.7471 5.19254C11.4218 5.05639 11.1283 4.8543 10.885 4.599C10.4099 4.11508 10.1242 3.47672 10.08 2.8C10.08 2.758 10.08 2.7195 10.08 2.6775C10.0789 2.62758 10.0707 2.57807 10.0555 2.5305C10.0347 2.40877 9.971 2.2985 9.87602 2.21957C9.78104 2.14063 9.66098 2.09823 9.5375 2.1C9.46855 2.10091 9.40046 2.1154 9.33712 2.14263C9.27377 2.16986 9.21641 2.2093 9.1683 2.2587C9.1202 2.30811 9.0823 2.3665 9.05677 2.43055C9.03124 2.4946 9.01857 2.56305 9.0195 2.632C9.0195 2.695 9.0195 2.7545 9.0195 2.814C8.96425 3.52041 8.64092 4.17894 8.11577 4.65464C7.59062 5.13033 6.90342 5.38717 6.195 5.3725H6.111C5.97176 5.3725 5.83822 5.42781 5.73977 5.52627C5.64131 5.62472 5.586 5.75826 5.586 5.8975C5.586 6.03674 5.64131 6.17027 5.73977 6.26873C5.83822 6.36719 5.97176 6.4225 6.111 6.4225L6.125 6.426ZM9.5515 4.571C9.71152 4.84836 9.90552 5.10467 10.129 5.334C10.3447 5.55541 10.5868 5.74937 10.85 5.9115C10.2787 6.26325 9.81031 6.75943 9.492 7.35C9.31253 7.04083 9.0924 6.75713 8.8375 6.5065C8.61627 6.29303 8.37076 6.10625 8.106 5.95C8.70078 5.62553 9.1994 5.14985 9.5515 4.571Z" fill="#B3966F"/>
<path d="M14.875 15.75C14.7357 15.75 14.6022 15.8053 14.5037 15.9038C14.4053 16.0022 14.35 16.1358 14.35 16.275V21.875C14.35 22.0142 14.4053 22.1478 14.5037 22.2462C14.6022 22.3447 14.7357 22.4 14.875 22.4H20.475C20.6142 22.4 20.7477 22.3447 20.8462 22.2462C20.9447 22.1478 21 22.0142 21 21.875V16.275C21 16.1358 20.9447 16.0022 20.8462 15.9038C20.7477 15.8053 20.6142 15.75 20.475 15.75H14.875ZM19.95 21.35H15.4V16.8H19.95V21.35Z" fill="#B3966F"/>
</svg>
