<svg width="35" height="35" viewBox="0 0 35 35" fill="none" xmlns="http://www.w3.org/2000/svg">
<path d="M17.6213 18.1896C14.5884 18.1896 11.6797 19.3944 9.53509 21.539C7.39049 23.6836 6.18567 26.5923 6.18567 29.6252C6.18567 29.7631 6.24043 29.8953 6.33791 29.9928C6.4354 30.0903 6.56761 30.1451 6.70547 30.1451H28.5371C28.675 30.1451 28.8072 30.0903 28.9047 29.9928C29.0022 29.8953 29.057 29.7631 29.057 29.6252C29.057 26.5923 27.8521 23.6836 25.7075 21.539C23.5629 19.3944 20.6542 18.1896 17.6213 18.1896ZM7.23567 29.1089C7.36462 26.4417 8.51493 23.9265 10.4482 22.0844C12.3814 20.2424 14.9493 19.2149 17.6196 19.2149C20.2899 19.2149 22.8578 20.2424 24.791 22.0844C26.7242 23.9265 27.8745 26.4417 28.0035 29.1089H7.23567Z" fill="#B3966F"/>
<path d="M17.4307 3.78763C16.1285 3.78763 14.8555 4.17378 13.7728 4.89726C12.69 5.62074 11.8461 6.64904 11.3477 7.85214C10.8494 9.05524 10.719 10.3791 10.9731 11.6563C11.2271 12.9335 11.8542 14.1067 12.775 15.0275C13.6958 15.9483 14.869 16.5754 16.1462 16.8294C17.4234 17.0835 18.7473 16.9531 19.9504 16.4548C21.1535 15.9564 22.1818 15.1125 22.9052 14.0297C23.6287 12.947 24.0149 11.674 24.0149 10.3718C24.0085 8.62753 23.3127 6.95653 22.0794 5.72314C20.846 4.48976 19.175 3.79402 17.4307 3.78763ZM17.4307 15.9406C16.3341 15.9406 15.2621 15.6154 14.3503 15.0062C13.4385 14.3969 12.7279 13.531 12.3082 12.5179C11.8886 11.5047 11.7788 10.3899 11.9927 9.31435C12.2066 8.23882 12.7347 7.25087 13.5101 6.47545C14.2855 5.70003 15.2735 5.17196 16.349 4.95803C17.4246 4.74409 18.5394 4.85389 19.5525 5.27354C20.5657 5.6932 21.4316 6.40386 22.0408 7.31565C22.6501 8.22745 22.9753 9.29943 22.9753 10.396C22.9689 11.8646 22.3827 13.2712 21.3443 14.3096C20.3058 15.348 18.8993 15.9342 17.4307 15.9406Z" fill="#B3966F"/>
<path d="M8.84352 13.8614H9.53659C9.67325 13.8596 9.80369 13.804 9.89968 13.7067C9.99566 13.6094 10.0495 13.4783 10.0495 13.3416V7.10397C10.0532 7.06825 10.0532 7.03225 10.0495 6.99654C10.7103 5.5597 11.7757 4.34669 13.1153 3.50601C14.4549 2.66533 16.0105 2.23345 17.5918 2.26324C19.173 2.29303 20.7113 2.78319 22.0182 3.67372C23.3252 4.56425 24.3442 5.81652 24.9505 7.27723V13.3416C24.9465 13.3784 24.9465 13.4156 24.9505 13.4525C24.5526 14.4414 23.9638 15.3422 23.2178 16.1035C23.167 16.1513 23.1263 16.2089 23.0982 16.2728C23.0701 16.3367 23.0552 16.4056 23.0543 16.4753C23.0534 16.5451 23.0666 16.6144 23.093 16.679C23.1195 16.7435 23.1587 16.8021 23.2082 16.8513C23.2578 16.9004 23.3168 16.939 23.3816 16.9648C23.4464 16.9907 23.5158 17.0032 23.5856 17.0017C23.6554 17.0001 23.7241 16.9845 23.7877 16.9558C23.8514 16.9271 23.9085 16.8859 23.9559 16.8347C24.8007 15.9823 25.4696 14.972 25.9242 13.8614H26.1564C27.1214 13.8614 28.0469 13.478 28.7293 12.7957C29.4117 12.1133 29.795 11.1878 29.795 10.2228C29.795 9.25776 29.4117 8.33226 28.7293 7.64989C28.0469 6.96752 27.1214 6.58416 26.1564 6.58416H25.7787C25.0499 4.98206 23.8753 3.62356 22.3954 2.6709C20.9154 1.71823 19.1925 1.21165 17.4324 1.21165C15.6723 1.21165 13.9494 1.71823 12.4694 2.6709C10.9894 3.62356 9.81491 4.98206 9.0861 6.58416H8.84699C7.88197 6.58416 6.95647 6.96752 6.2741 7.64989C5.59173 8.33226 5.20837 9.25776 5.20837 10.2228C5.20837 11.1878 5.59173 12.1133 6.2741 12.7957C6.95647 13.478 7.88197 13.8614 8.84699 13.8614H8.84352ZM28.7623 10.2228C28.7614 10.9118 28.4873 11.5723 28.0001 12.0595C27.5129 12.5468 26.8523 12.8209 26.1633 12.8218H25.9901V7.62377H26.1564C26.4982 7.62331 26.8367 7.69018 27.1526 7.82054C27.4685 7.95091 27.7557 8.14222 27.9976 8.38356C28.2396 8.6249 28.4317 8.91154 28.5629 9.22712C28.6941 9.54269 28.7619 9.88102 28.7623 10.2228ZM8.84352 7.62377H9.00986V12.8218H8.84352C8.15422 12.8218 7.49315 12.548 7.00575 12.0606C6.51834 11.5731 6.24451 10.9121 6.24451 10.2228C6.24451 9.53348 6.51834 8.87241 7.00575 8.385C7.49315 7.89759 8.15422 7.62377 8.84352 7.62377Z" fill="#B3966F"/>
</svg>
