<svg width="29" height="27" viewBox="0 0 29 27" fill="none" xmlns="http://www.w3.org/2000/svg">
<path d="M7.79285 9.47543C10.2871 9.47543 12.3163 7.4463 12.3163 4.952C12.3163 2.45841 10.2868 0.429276 7.79285 0.429276C5.2996 0.429276 3.27116 2.45806 3.27116 4.952C3.27116 7.4463 5.2996 9.47543 7.79285 9.47543ZM7.79285 1.47146C9.71221 1.47146 11.2741 3.03265 11.2741 4.952C11.2741 6.87171 9.71221 8.43325 7.79285 8.43325C5.87454 8.43325 4.31335 6.87136 4.31335 4.952C4.31335 3.03265 5.87419 1.47146 7.79285 1.47146Z" fill="#B3966F"/>
<path d="M19.154 13.6942C18.8799 13.7824 18.7292 14.076 18.8174 14.3497C18.9053 14.6235 19.1989 14.7753 19.473 14.6863C20.0663 14.4956 20.6861 14.3987 21.3155 14.3987C24.6297 14.3987 27.3262 17.0952 27.3262 20.41C27.3262 20.698 27.5596 20.9311 27.8472 20.9311C28.1349 20.9311 28.3683 20.698 28.3683 20.41C28.3683 16.5209 25.2046 13.3565 21.3155 13.3565C20.5777 13.3569 19.8506 13.4701 19.154 13.6942Z" fill="#B3966F"/>
<path d="M21.517 12.1848C23.8109 12.1848 25.6771 10.3186 25.6771 8.02471C25.6771 5.73122 23.8109 3.86571 21.517 3.86571C19.2242 3.86571 17.3591 5.73156 17.3591 8.02471C17.3591 10.3186 19.2242 12.1848 21.517 12.1848ZM21.517 4.90789C23.2359 4.90789 24.6349 6.30615 24.6349 8.02471C24.6349 9.74397 23.2363 11.1426 21.517 11.1426C19.7992 11.1426 18.4012 9.74397 18.4012 8.02471C18.4012 6.30615 19.7988 4.90789 21.517 4.90789Z" fill="#B3966F"/>
<path d="M28.4799 25.919C28.4889 25.8836 28.4937 25.8474 28.4955 25.811C28.4958 25.7995 28.4955 25.788 28.4951 25.7766C28.4944 25.746 28.491 25.7158 28.4847 25.6856C28.4826 25.6748 28.4809 25.664 28.4781 25.6529C28.4673 25.6133 28.4535 25.5744 28.4326 25.5372L25.46 20.1582C25.3206 19.9056 25.0035 19.8153 24.752 19.9542C24.5001 20.0936 24.4087 20.4104 24.548 20.6626L27.0931 25.2683H19.5087C19.2468 22.6952 17.0672 20.6803 14.426 20.6803C11.7851 20.6803 9.60591 22.6952 9.34397 25.2683H4.766V18.5119C4.766 18.2239 4.53256 17.9908 4.24491 17.9908C3.95727 17.9908 3.72382 18.2239 3.72382 18.5119V25.2683H1.28546V11.9201H13.849V13.1241C12.1707 13.361 10.8746 14.8024 10.8746 16.5446C10.8746 18.4518 12.4261 20.0032 14.3333 20.0032C16.2408 20.0032 17.7926 18.4518 17.7926 16.5446C17.7926 14.8277 16.5336 13.4031 14.8908 13.1352V11.399C14.8908 11.111 14.6574 10.8779 14.3697 10.8779H0.764019C0.476377 10.8779 0.242928 11.111 0.242928 11.399V25.7891C0.242928 26.0771 0.476377 26.3102 0.764019 26.3102H27.9747C27.9751 26.3102 27.9754 26.3102 27.9761 26.3102C28.0202 26.3102 28.0644 26.3043 28.1078 26.2928C28.1266 26.2879 28.1432 26.2786 28.1609 26.2716C28.1832 26.2629 28.2061 26.257 28.228 26.2452C28.2294 26.2445 28.2304 26.2435 28.2315 26.2428C28.237 26.2397 28.2419 26.2351 28.2471 26.232C28.277 26.2136 28.3044 26.1928 28.3294 26.1698C28.3385 26.1615 28.3461 26.1525 28.3544 26.1438C28.3756 26.1212 28.3944 26.0972 28.4111 26.0715C28.4149 26.0653 28.4208 26.0607 28.4246 26.0545C28.4267 26.051 28.4274 26.0469 28.4295 26.043C28.4493 26.0072 28.466 25.9701 28.4771 25.9312C28.4788 25.9267 28.4792 25.9228 28.4799 25.919ZM16.7511 16.5446C16.7511 17.8768 15.6669 18.961 14.3339 18.961C13.0013 18.961 11.9175 17.8772 11.9175 16.5446C11.9175 15.212 13.0013 14.1281 14.3339 14.1281C15.6669 14.1281 16.7511 15.212 16.7511 16.5446ZM14.4264 21.7221C16.492 21.7221 18.1991 23.2712 18.4561 25.268H10.3973C10.6543 23.2712 12.3611 21.7221 14.4264 21.7221Z" fill="#B3966F"/>
</svg>
