<svg width="23" height="35" viewBox="0 0 23 35" fill="none" xmlns="http://www.w3.org/2000/svg">
<path d="M22.5181 0H0.438095C0.175238 0 0 0.176545 0 0.441362V28.9975C0 29.2623 0.175238 29.4388 0.438095 29.4388H7.88571V34.5586C7.88571 34.7352 7.97333 34.8676 8.14857 34.9559C8.28 35.0441 8.49905 35 8.63048 34.9117L11.5219 32.5725L14.4133 34.9117C14.501 34.9559 14.5886 35 14.6762 35C14.72 35 14.8076 35 14.8514 34.9559C14.9829 34.8676 15.1143 34.7352 15.1143 34.5586V29.4388H22.5619C22.8248 29.4388 23 29.2623 23 28.9975V0.441362C22.9562 0.220681 22.781 0 22.5181 0ZM7.14095 23.9218C7.05333 23.8777 7.05333 23.8335 7.05333 23.8335C7.05333 23.7894 7.00952 23.7453 7.05333 23.7011C7.31619 23.2598 7.22857 22.686 6.83429 22.3329C6.79048 22.2888 6.79048 22.2446 6.79048 22.2005C6.79048 22.1564 6.79048 22.1122 6.83429 22.0681C7.22857 21.7591 7.36 21.1412 7.05333 20.6999C7.00952 20.6557 7.00952 20.5675 7.05333 20.5675C7.05333 20.5233 7.09714 20.4792 7.14095 20.4792C7.62286 20.3026 7.92952 19.773 7.8419 19.2875C7.8419 19.1992 7.8419 19.1551 7.88571 19.1551C7.88571 19.111 7.92952 19.111 8.01714 19.111C8.49905 19.111 8.98095 18.7579 9.06857 18.2282C9.06857 18.14 9.11238 18.14 9.15619 18.0958C9.2 18.0958 9.24381 18.0517 9.28762 18.0958C9.76952 18.2724 10.339 18.0958 10.5581 17.6103C10.6019 17.5662 10.6457 17.5221 10.6895 17.5221C10.7333 17.5221 10.7771 17.5221 10.821 17.5662C11.2152 17.9193 11.7848 17.9193 12.179 17.5662C12.2229 17.5221 12.3105 17.5221 12.3105 17.5221C12.3543 17.5221 12.3981 17.5662 12.4419 17.6103C12.7048 18.0517 13.2305 18.2724 13.7124 18.0958C13.7562 18.0517 13.8438 18.0958 13.8438 18.0958C13.8876 18.0958 13.9314 18.14 13.9314 18.2282C14.019 18.7579 14.4571 19.111 14.9829 19.111C15.0267 19.111 15.1143 19.1551 15.1143 19.1551C15.1143 19.1992 15.1581 19.2434 15.1581 19.2875C15.0705 19.8171 15.3333 20.3026 15.859 20.4792C15.9467 20.5233 15.9467 20.5675 15.9467 20.5675C15.9467 20.6116 15.9905 20.6557 15.9467 20.6999C15.6838 21.1412 15.7714 21.715 16.1657 22.0681C16.2095 22.1122 16.2095 22.1564 16.2095 22.2005C16.2095 22.2446 16.2095 22.2888 16.1657 22.3329C15.7714 22.6419 15.64 23.2598 15.9467 23.7011C15.9905 23.7453 15.9905 23.8335 15.9467 23.8335C15.9467 23.8777 15.9029 23.9218 15.859 23.9218C15.3771 24.0984 15.0705 24.5839 15.1581 25.1135C15.1581 25.2018 15.1581 25.2459 15.1143 25.2459C15.1143 25.29 15.0705 25.29 14.9829 25.29C14.4571 25.2459 14.019 25.6431 13.9314 26.1728C13.9314 26.261 13.8876 26.261 13.8438 26.3052C13.8 26.3052 13.7562 26.3493 13.7124 26.3052C13.2305 26.1286 12.661 26.3052 12.4419 26.7907C12.3981 26.8348 12.3543 26.8789 12.3105 26.8789C12.2667 26.8789 12.2229 26.8789 12.179 26.8348C12.0038 26.6583 11.741 26.57 11.4781 26.57C11.2152 26.57 10.9962 26.6583 10.7771 26.8348C10.7333 26.8789 10.6457 26.8789 10.6457 26.8789C10.6019 26.8789 10.5581 26.8348 10.5143 26.7907C10.2514 26.3493 9.72571 26.1286 9.24381 26.3052C9.2 26.3493 9.11238 26.3052 9.11238 26.3052C9.06857 26.3052 9.02476 26.261 9.02476 26.1728C8.93714 25.6431 8.49905 25.29 7.97333 25.29C7.88571 25.29 7.8419 25.2459 7.8419 25.2459C7.8419 25.2018 7.79809 25.1576 7.79809 25.1135C7.88571 24.5839 7.62286 24.0984 7.14095 23.9218ZM8.7619 27.0996C9.02476 27.232 9.33143 27.232 9.59429 27.1438C9.6819 27.0996 9.76952 27.1438 9.81333 27.232C9.94476 27.4968 10.2514 27.7175 10.5581 27.7617C10.7333 27.8058 10.9086 27.7617 11.0838 27.7175V31.8222L8.7619 33.6759V27.0996ZM11.9162 31.7781V27.7175C12.0476 27.7617 12.1352 27.7617 12.2667 27.7617C12.3105 27.7617 12.3981 27.7617 12.4419 27.7617C12.7486 27.7175 13.0114 27.4968 13.1867 27.232C13.2305 27.1438 13.3181 27.1438 13.4057 27.1438C13.6686 27.232 13.9752 27.232 14.2381 27.0996V33.6318L11.9162 31.7781ZM22.08 28.5561H15.1143V26.1728C15.3771 26.1286 15.64 26.0403 15.8152 25.8197C16.0343 25.5549 16.1219 25.2459 16.0343 24.9369C16.0343 24.8487 16.0781 24.7604 16.1657 24.7604C16.4724 24.6721 16.6914 24.4073 16.8229 24.1425C16.9543 23.8777 16.9105 23.5246 16.7352 23.2598C16.6914 23.1715 16.6914 23.0832 16.779 23.0391C17.0419 22.8184 17.1733 22.5536 17.1733 22.2005C17.1733 21.8915 17.0419 21.5826 16.779 21.3619C16.7352 21.3178 16.6914 21.2295 16.7352 21.1412C16.9105 20.8764 16.9105 20.5233 16.8229 20.2585C16.7352 19.9496 16.4724 19.7289 16.1657 19.6406C16.0781 19.5965 16.0343 19.5523 16.0343 19.4641C16.0781 19.1551 16.0343 18.8462 15.8152 18.5813C15.5962 18.3165 15.3333 18.1841 14.9829 18.1841C14.8952 18.1841 14.8076 18.14 14.8076 18.0517C14.7638 17.7427 14.5886 17.4779 14.2819 17.3014C14.019 17.1248 13.6686 17.1248 13.4057 17.2131C13.3181 17.2572 13.2305 17.2131 13.1867 17.1248C13.0552 16.86 12.7486 16.6393 12.4419 16.5952C12.1352 16.5511 11.8286 16.6393 11.5657 16.86C11.5219 16.9042 11.3905 16.9042 11.3467 16.86C11.1276 16.6393 10.7771 16.5511 10.4705 16.5952C10.1638 16.6393 9.90095 16.86 9.72571 17.1248C9.6819 17.2131 9.59429 17.2131 9.50667 17.2131C9.2 17.0807 8.89333 17.1248 8.63048 17.3014C8.36762 17.4779 8.14857 17.7427 8.10476 18.0517C8.10476 18.14 8.01714 18.1841 7.92952 18.1841C7.57905 18.1841 7.31619 18.3165 7.09714 18.5813C6.8781 18.8462 6.79048 19.1551 6.8781 19.4641C6.8781 19.5523 6.83429 19.6406 6.74667 19.6406C6.44 19.7289 6.22095 19.9937 6.08952 20.2585C6.0019 20.5675 6.0019 20.8764 6.17714 21.1412C6.22095 21.2295 6.22095 21.3178 6.13333 21.3619C5.87048 21.5826 5.73905 21.8474 5.73905 22.2005C5.73905 22.5095 5.87048 22.8184 6.13333 23.0391C6.17714 23.0832 6.22095 23.1715 6.17714 23.2598C6.0019 23.5246 6.0019 23.8777 6.08952 24.1425C6.17714 24.4073 6.44 24.6721 6.74667 24.7604C6.83429 24.8045 6.8781 24.8487 6.8781 24.9369C6.83429 25.2459 6.8781 25.5549 7.09714 25.8197C7.27238 26.0403 7.53524 26.1728 7.79809 26.1728V28.5561H0.788571V0.882724H21.9924V28.5561H22.08Z" fill="#B3966F"/>
<path d="M10.733 22.2448L10.6015 23.0392C10.6015 23.0834 10.6015 23.1275 10.6453 23.1275H10.6892H10.733L11.4339 22.7303L12.1349 23.1275C12.1787 23.1275 12.2225 23.1275 12.2225 23.1275C12.2663 23.0834 12.2663 23.0834 12.2663 23.0392L12.1349 22.2448L12.7044 21.671C12.7482 21.6269 12.7482 21.5827 12.7482 21.5827C12.7482 21.5386 12.7044 21.5386 12.6606 21.4945L11.872 21.3621L11.5215 20.6117C11.4777 20.5235 11.3901 20.5235 11.3463 20.6117L10.9958 21.3621L10.2072 21.4945C10.1634 21.4945 10.1196 21.5386 10.1196 21.5827C10.1196 21.6269 10.1196 21.671 10.1634 21.671L10.733 22.2448Z" fill="#B3966F"/>
<path d="M4.8629 5.03153H18.181C18.4439 5.03153 18.6191 4.85498 18.6191 4.59017C18.6191 4.32535 18.4439 4.1488 18.181 4.1488H4.8629C4.60004 4.1488 4.4248 4.32535 4.4248 4.59017C4.4248 4.85498 4.64385 5.03153 4.8629 5.03153Z" fill="#B3966F"/>
<path d="M4.8629 7.98865H18.181C18.4439 7.98865 18.6191 7.81211 18.6191 7.54729C18.6191 7.28247 18.4439 7.10593 18.181 7.10593H4.8629C4.60004 7.10593 4.4248 7.28247 4.4248 7.54729C4.4248 7.81211 4.64385 7.98865 4.8629 7.98865Z" fill="#B3966F"/>
<path d="M4.8629 10.9016H18.181C18.4439 10.9016 18.6191 10.7251 18.6191 10.4603C18.6191 10.1955 18.4439 10.0189 18.181 10.0189H4.8629C4.60004 10.0189 4.4248 10.1955 4.4248 10.4603C4.4248 10.7251 4.64385 10.9016 4.8629 10.9016Z" fill="#B3966F"/>
<path d="M4.8629 13.8146H18.181C18.4439 13.8146 18.6191 13.6381 18.6191 13.3733C18.6191 13.1084 18.4439 12.9319 18.181 12.9319H4.8629C4.60004 12.9319 4.4248 13.1084 4.4248 13.3733C4.4248 13.6381 4.64385 13.8146 4.8629 13.8146Z" fill="#B3966F"/>
</svg>
