<svg width="29" height="35" viewBox="0 0 29 35" fill="none" xmlns="http://www.w3.org/2000/svg">
<path d="M14.3791 20.0257C6.45068 20.0257 0 26.4771 0 34.4068C0 34.7347 0.265811 35.0001 0.593329 35.0001H28.1673C28.4948 35.0001 28.7606 34.7347 28.7606 34.4068C28.7606 26.4771 22.3088 20.0257 14.3791 20.0257ZM21.1019 33.8138L19.049 26.2754C18.9628 25.9589 18.6381 25.7718 18.3204 25.8589C18.0044 25.9451 17.8177 26.271 17.9039 26.5871L19.8718 33.8138H15.1738V26.4961C15.1738 26.1682 14.908 25.9028 14.5805 25.9028C14.253 25.9028 13.9871 26.1682 13.9871 26.4961V33.8138H8.92169L10.8097 26.5811C10.8923 26.2639 10.7025 25.94 10.3856 25.8573C10.0676 25.7742 9.74444 25.9645 9.66177 26.2813L7.69548 33.8138H1.19932C1.51062 26.8125 7.30309 21.2127 14.3783 21.2127C21.4552 21.2127 27.2484 26.8129 27.5601 33.8138H21.1019Z" fill="#B3966F"/>
<path d="M6.74132 14.5947C7.21598 14.5947 7.66335 14.478 8.0593 14.2747C8.98647 16.8043 11.4061 18.5241 14.1465 18.5241C17.0554 18.5241 19.5347 16.635 20.3495 13.9266C20.7423 14.1252 21.1841 14.2399 21.6537 14.2399C23.2537 14.2399 24.555 12.9385 24.555 11.3389C24.555 10.6886 24.3391 10.0672 23.9487 9.56368C24.3391 9.06053 24.555 8.43912 24.555 7.78843C24.555 6.18882 23.2537 4.88745 21.6537 4.88745C21.5829 4.88745 21.5124 4.88982 21.442 4.89536C20.4009 1.98844 17.5316 0 14.2853 0C10.666 0 7.88051 1.90538 7.03482 4.90248C6.93751 4.89259 6.83981 4.88785 6.74171 4.88785C5.1417 4.88785 3.84033 6.18922 3.84033 7.78883C3.84033 8.52456 4.11405 9.2148 4.59702 9.74167C4.11405 10.2686 3.84033 10.9588 3.84033 11.6945C3.83994 13.2933 5.1413 14.5947 6.74132 14.5947ZM14.1465 17.3375C11.7617 17.3375 9.67473 15.7442 9.04145 13.4547C9.41683 12.9658 9.64269 12.3563 9.64269 11.6933C9.64269 11.0015 9.40062 10.3504 8.97105 9.8374C9.12175 9.69658 9.24754 9.53678 9.34801 9.36788C9.80725 9.56328 10.2337 9.48298 10.7862 9.37777L10.8634 9.36313C11.522 9.23893 12.0247 8.96323 12.4681 8.72036C13.0215 8.41697 13.4997 8.15511 14.2588 8.15511C15.131 8.15511 15.8086 8.50992 16.4636 8.85366C16.8552 9.05895 17.2254 9.25277 17.6139 9.35443C18.1882 9.50474 18.7744 9.49129 19.2966 9.32476C19.3286 9.38647 19.363 9.44936 19.4002 9.51146C18.9837 10.0237 18.7527 10.6653 18.7527 11.3389C18.7527 11.9932 18.973 12.5956 19.3397 13.0813C18.8472 15.5587 16.699 17.3375 14.1465 17.3375ZM5.83115 9.23853C5.32761 8.92169 5.02659 8.37979 5.02659 7.78804C5.02659 6.84267 5.79555 6.07371 6.74132 6.07371C6.85682 6.07371 6.97192 6.08519 7.08307 6.10773C7.15586 6.12237 7.22864 6.12316 7.29944 6.11129C7.32357 6.1196 7.34849 6.12593 7.3738 6.13107C7.69578 6.19238 8.00748 5.98551 8.07116 5.66392C8.60872 2.9437 11.0477 1.18587 14.2849 1.18587C17.1958 1.18587 19.6541 2.96427 20.4361 5.63861C20.4622 5.88543 20.6442 6.08835 20.8906 6.14729C21.0081 6.17577 21.1284 6.16548 21.2367 6.12395C21.3724 6.09033 21.512 6.07332 21.6533 6.07332C22.599 6.07332 23.368 6.84227 23.368 7.78764C23.368 8.2987 23.1421 8.77929 22.7485 9.10642C22.6125 9.21915 22.5342 9.38647 22.5342 9.56288C22.5342 9.7393 22.6125 9.90662 22.7481 10.0194C23.1421 10.3465 23.368 10.8275 23.368 11.3381C23.368 12.2835 22.599 13.0525 21.6533 13.0525C20.7079 13.0525 19.9389 12.2835 19.9389 11.3381C19.9389 10.8251 20.166 10.3433 20.5619 10.0162C20.698 9.90345 20.7767 9.73614 20.7771 9.55972C20.7775 9.3833 20.6988 9.21559 20.5631 9.10246C20.465 9.02098 20.2716 8.6543 20.1569 8.33351C20.0964 8.16223 19.9599 8.02854 19.7878 7.97039C19.6158 7.91303 19.4267 7.93598 19.274 8.03486C18.9125 8.27061 18.4046 8.3343 17.9133 8.20614C17.6558 8.13889 17.3583 7.98305 17.0142 7.80228C16.305 7.43085 15.4229 6.96845 14.2584 6.96845C13.1956 6.96845 12.5057 7.3466 11.8973 7.67966C11.4955 7.89959 11.1157 8.10765 10.6427 8.19704L10.5643 8.21207C9.81081 8.35526 9.81081 8.35447 9.46193 8.00401C9.2954 7.83669 9.0466 7.78448 8.82706 7.86913C8.60753 7.95417 8.45881 8.16105 8.44852 8.3964C8.43784 8.64678 8.23176 9.05183 7.80852 9.16812C7.58187 9.23023 7.41296 9.42088 7.37855 9.65386C7.34453 9.88684 7.45094 10.1178 7.6503 10.2428C8.15463 10.5593 8.45604 11.102 8.45604 11.6941C8.45604 12.6395 7.68708 13.4085 6.74171 13.4085C5.79594 13.4085 5.02699 12.6395 5.02699 11.6941C5.02699 11.1028 5.32801 10.5605 5.83154 10.2436C6.0044 10.1352 6.10883 9.94538 6.10883 9.74128C6.10883 9.53717 6.00401 9.34731 5.83115 9.23853Z" fill="#B3966F"/>
</svg>
