<svg width="35" height="35" viewBox="0 0 35 35" fill="none" xmlns="http://www.w3.org/2000/svg">
<path d="M17.5 18.55C14.3915 18.5537 11.4113 19.7902 9.21326 21.9883C7.0152 24.1863 5.7787 27.1665 5.77499 30.275C5.77499 30.4142 5.83031 30.5478 5.92876 30.6462C6.02722 30.7447 6.16076 30.8 6.29999 30.8H28.7C28.8392 30.8 28.9728 30.7447 29.0712 30.6462C29.1697 30.5478 29.225 30.4142 29.225 30.275C29.2213 27.1665 27.9848 24.1863 25.7867 21.9883C23.5887 19.7902 20.6085 18.5537 17.5 18.55ZM21.9205 20.5625L17.5 24.983L13.0795 20.5625C14.4677 19.9289 15.9758 19.601 17.5017 19.601C19.0277 19.601 20.5358 19.9289 21.924 20.5625H21.9205ZM12.103 21.07L17.129 26.096H17.15V29.75H6.83899C6.92787 27.9802 7.45551 26.2602 8.37441 24.745C9.29332 23.2298 10.5746 21.9669 12.103 21.07ZM18.2 29.75V25.767L22.897 21.07C24.4227 21.9686 25.7013 23.2322 26.6177 24.7473C27.5341 26.2624 28.0596 27.9815 28.147 29.75H18.2Z" fill="#B3966F"/>
<path d="M11.9 13.65C12.5254 14.643 13.3988 15.4557 14.4341 16.0082C15.4694 16.5607 16.6308 16.8338 17.8039 16.8006C18.9769 16.7674 20.121 16.429 21.1234 15.8188C22.1258 15.2087 22.9518 14.3477 23.52 13.321H23.5515C24.318 12.971 25.0775 11.8405 25.172 11.7005C25.6684 10.9477 25.9224 10.061 25.9 9.1595C25.9 4.6865 22.141 1.05 17.5245 1.05H17.479C12.859 1.05 9.10001 4.6865 9.10001 9.1595V10.85C9.09972 11.2162 9.17299 11.5786 9.31549 11.9159C9.45798 12.2532 9.66678 12.5585 9.92951 12.8135C10.4547 13.3348 11.1602 13.6343 11.9 13.65ZM17.605 15.75C16.5147 15.7545 15.4462 15.4441 14.5279 14.8562C13.6097 14.2682 12.8807 13.4277 12.4285 12.4355C12.4221 12.375 12.4221 12.314 12.4285 12.2535L12.5195 12.1975C14.1505 11.1965 16.177 9.947 17.374 8.799C18.6725 7.553 20.0235 6.0445 20.5975 5.3935C21.4141 5.89033 22.0892 6.58875 22.5581 7.4217C23.027 8.25465 23.2739 9.19415 23.275 10.15C23.2639 11.6439 22.6607 13.0725 21.5978 14.1223C20.5349 15.1721 19.099 15.7575 17.605 15.75ZM10.15 9.1595C10.15 5.25 13.4365 2.1 17.4755 2.1H17.521C21.5635 2.1 24.85 5.25 24.85 9.1595C24.8684 9.85519 24.6689 10.5392 24.2795 11.116L24.248 11.165C24.4623 9.79235 24.2396 8.38707 23.6115 7.14787C22.9835 5.90867 21.9817 4.89826 20.748 4.2595C20.6431 4.20472 20.5227 4.18701 20.4064 4.20925C20.2902 4.23149 20.1848 4.29237 20.1075 4.382C20.1075 4.403 18.3365 6.4435 16.6705 8.0395C15.54 9.1 13.566 10.325 11.9805 11.3015L11.8195 11.3995C11.6574 11.5219 11.531 11.6854 11.4534 11.8731C11.3759 12.0608 11.35 12.2659 11.3785 12.467C11.3785 12.467 11.3785 12.4915 11.3785 12.502C11.1152 12.4125 10.8758 12.2641 10.6785 12.068C10.5129 11.911 10.3808 11.7222 10.29 11.5129C10.1991 11.3036 10.1515 11.0782 10.15 10.85V9.1595Z" fill="#B3966F"/>
<path d="M15.225 28.35C15.7083 28.35 16.1 27.9583 16.1 27.475C16.1 26.9918 15.7083 26.6 15.225 26.6C14.7418 26.6 14.35 26.9918 14.35 27.475C14.35 27.9583 14.7418 28.35 15.225 28.35Z" fill="#B3966F"/>
</svg>
