<svg width="35" height="35" viewBox="0 0 35 35" fill="none" xmlns="http://www.w3.org/2000/svg">
<path d="M32.455 15.3566L27.6922 5.21821C27.6599 5.14699 27.6064 5.08377 27.5491 5.03513C27.4577 4.95488 27.3413 4.90729 27.21 4.90729H20.1513C19.9165 3.91305 19.0289 3.17032 17.97 3.17032C16.9111 3.17032 16.0232 3.91305 15.7887 4.90729H8.7102C8.4844 4.90729 8.29402 5.05146 8.22177 5.25225C8.16445 5.30089 8.11407 5.35856 8.08177 5.42977L3.31899 15.5681C3.31899 15.5681 3.21338 15.7467 3.21338 15.9357C3.21338 19.1689 5.70698 21.799 8.77169 21.799C11.8364 21.799 14.33 19.1689 14.33 15.9357C14.33 15.7686 14.3137 15.7196 14.1824 15.4716L9.29 5.94947H15.7884C15.9826 6.77176 16.6235 7.41965 17.4388 7.61975V27.1405H12.4784C12.1904 27.1405 11.9573 27.3736 11.9573 27.6616V30.0934C11.9573 30.3814 12.1904 30.6145 12.4784 30.6145H23.5061C23.7941 30.6145 24.0272 30.3814 24.0272 30.0934V27.6616C24.0272 27.3736 23.7941 27.1405 23.5061 27.1405H18.4814V7.62496C19.3061 7.43042 19.9561 6.77836 20.1516 5.94947H26.3693L21.5916 15.26C21.4603 15.508 21.4439 15.557 21.4439 15.7241C21.4439 18.9573 23.9375 21.5874 27.0023 21.5874C30.067 21.5874 32.5606 18.9573 32.5606 15.7241C32.5606 15.5351 32.455 15.3566 32.455 15.3566ZM8.77169 20.7565C6.44658 20.7565 4.52584 18.8705 4.28162 16.4564H13.2618C13.0175 18.8708 11.0968 20.7565 8.77169 20.7565ZM12.9894 15.4146L4.4838 15.5244L8.57854 6.85652L12.9894 15.4146ZM22.985 28.1824V29.572H12.9995V28.1824H22.985ZM19.1619 5.52843C19.1105 6.15131 18.5988 6.64392 17.97 6.64392C17.3072 6.64392 16.768 6.09851 16.768 5.42804C16.768 4.75756 17.3072 4.21215 17.97 4.21215C18.5988 4.21215 19.1105 4.70476 19.1619 5.32764C19.1557 5.36029 19.1518 5.39364 19.1518 5.42804C19.1518 5.46243 19.1557 5.49612 19.1619 5.52843ZM27.1958 6.64496L31.2905 15.3128L22.7849 15.203L27.1958 6.64496ZM27.0023 20.5449C24.6771 20.5449 22.7564 18.6593 22.5122 16.2449H31.4923C31.2481 18.6589 29.3274 20.5449 27.0023 20.5449Z" fill="#B3966F"/>
</svg>
