<svg width="28" height="31" viewBox="0 0 28 31" fill="none" xmlns="http://www.w3.org/2000/svg">
<path d="M27.9707 9.47938L25.0739 0.78876C25.0027 0.574965 24.8029 0.430923 24.5776 0.430923H4.29979C4.07448 0.430923 3.87464 0.574965 3.80349 0.78876L0.906616 9.47938C0.888829 9.53275 0.879761 9.58855 0.879761 9.6447V29.9225C0.879761 30.2113 1.11378 30.4456 1.40291 30.4456H27.4744C27.7632 30.4456 27.9976 30.2113 27.9976 29.9225V9.6447C27.9976 9.58855 27.9885 9.53275 27.9707 9.47938ZM26.8191 9.33255C25.7466 10.1169 24.5476 10.4891 23.0674 10.4891C21.7278 10.4891 20.4349 10.0723 19.3073 9.28965V1.47723H24.2005L26.8191 9.33255ZM10.6167 1.47723H18.2607V9.2907C17.1341 10.0726 15.8412 10.4894 14.5013 10.4894C13.1097 10.4894 11.7732 10.0392 10.6167 9.19479V1.47723ZM4.67681 1.47723H9.57038V9.19479C8.41386 10.0392 7.07773 10.4894 5.68579 10.4894C4.37408 10.4894 3.12165 10.11 2.03732 9.39603L4.67681 1.47723ZM1.92607 29.3993V10.5511C3.06968 11.1939 4.35106 11.5357 5.68579 11.5357C7.26328 11.5357 8.77903 11.0457 10.0935 10.1141C11.408 11.0457 12.9238 11.5357 14.5013 11.5357C16.0264 11.5357 17.4993 11.0774 18.7842 10.2066C20.0701 11.0774 21.5426 11.5357 23.067 11.5357C24.543 11.5357 25.8202 11.1918 26.9513 10.5009V29.3993H1.92607Z" fill="#B3966F"/>
<path d="M19.6028 14.0044H9.27474C8.98561 14.0044 8.75159 14.2384 8.75159 14.5276V24.1288C8.75159 24.4176 8.98561 24.652 9.27474 24.652H19.6028C19.8916 24.652 20.126 24.4176 20.126 24.1288V14.5276C20.126 14.2384 19.8916 14.0044 19.6028 14.0044ZM9.79789 15.0507H13.9688V23.6057H9.79789V15.0507ZM19.0797 23.6057H15.0148V15.0507H19.0793V23.6057H19.0797Z" fill="#B3966F"/>
</svg>
