<svg width="16" height="16" viewBox="0 0 16 16" fill="none" xmlns="http://www.w3.org/2000/svg">
<path fill-rule="evenodd" clip-rule="evenodd" d="M2.66667 2H5C5.36667 2 5.66667 2.3 5.66667 2.66667C5.66667 3.5 5.8 4.3 6.04667 5.04667C6.12 5.28 6.06667 5.54 5.88 5.72667L4.41333 7.19333C5.37333 9.08 6.92 10.62 8.80667 11.5867L10.2733 10.12C10.4067 9.99333 10.5733 9.92667 10.7467 9.92667C10.8133 9.92667 10.8867 9.93333 10.9533 9.96C11.7 10.2067 12.5067 10.34 13.3333 10.34C13.7 10.34 14 10.64 14 11.0067V13.3333C14 13.7 13.7 14 13.3333 14C7.07333 14 2 8.92667 2 2.66667C2 2.3 2.3 2 2.66667 2ZM4.35999 3.33333C4.39999 3.92667 4.49999 4.50667 4.65999 5.06L3.85999 5.86C3.58666 5.06 3.41332 4.21333 3.35332 3.33333H4.35999ZM10.9333 11.3467C11.5 11.5067 12.08 11.6067 12.6667 11.6467V12.64C11.7867 12.58 10.94 12.4067 10.1333 12.14L10.9333 11.3467Z" fill="#E5E5E5"/>
</svg>
