<svg width="38" height="37" viewBox="0 0 38 37" fill="none" xmlns="http://www.w3.org/2000/svg">
<ellipse cx="18.6207" cy="18.5" rx="18.6207" ry="18.5" fill="#B3966F"/>
<path d="M12.451 14.8801C12.5503 19.6901 14.971 22.5761 19.2166 22.5761H19.4648V19.8258C21.0228 19.98 22.2021 21.1146 22.6738 22.5761H24.8772C24.6512 21.7457 24.2506 20.9722 23.7018 20.3068C23.1529 19.6414 22.4683 19.0991 21.6931 18.7158C22.3878 18.2955 22.9877 17.7374 23.4555 17.0764C23.9232 16.4154 24.2488 15.6656 24.4117 14.874H22.4131C21.9786 16.4033 20.6876 17.7908 19.4648 17.9203V14.8801H17.46V20.2081C16.2186 19.8998 14.6545 18.4075 14.5862 14.8801H12.451Z" fill="#292929"/>
<path fill-rule="evenodd" clip-rule="evenodd" d="M18.6207 0C28.9046 0 37.2414 8.28273 37.2414 18.5C37.2414 28.7173 28.9046 37 18.6207 37C8.33677 37 0 28.7173 0 18.5C0 8.28273 8.33677 0 18.6207 0ZM9.31034 18.13C9.31034 13.9428 9.31034 11.8523 10.6138 10.545C11.9359 9.25 14.04 9.25 18.2483 9.25H18.9931C23.2076 9.25 25.3117 9.25 26.6276 10.545C27.931 11.8585 27.931 13.949 27.931 18.13V18.87C27.931 23.0572 27.931 25.1477 26.6276 26.455C25.3055 27.75 23.2014 27.75 18.9931 27.75H18.2483C14.0338 27.75 11.9297 27.75 10.6138 26.455C9.31034 25.1415 9.31034 23.051 9.31034 18.87V18.13Z" fill="#292929"/>
</svg>
