<svg width="34" height="35" fill="none" xmlns="http://www.w3.org/2000/svg"><g clip-path="url(#clip0_11_152)"><path d="M.433 35h33.134c.26 0 .433-.174.433-.436v-2.316c0-.262-.173-.437-.433-.437h-.822v-2.185c0-.262-.172-.437-.432-.437h-1.687V14.901h1.687c.26 0 .432-.175.432-.437v-2.971c0-.263-.172-.437-.432-.437h-1.255l-.043-.044L17.26.088c-.172-.13-.389-.13-.518 0L2.985 11.012l-.044.044H1.644c-.26 0-.433.175-.433.437v2.971c0 .262.173.437.433.437H3.33v14.288H1.687c-.26 0-.433.175-.433.437v2.185H.433c-.26 0-.433.175-.433.437v2.316c0 .262.216.437.433.437zm29.328-5.81h-2.682V14.9h2.682v14.29zM14.707 14.9v14.29h-6.92V14.9h6.92zm.865 0h2.726v14.29h-2.682l-.043-14.29zm3.59 0h7.009v14.29h-7.008V14.9zM17 .963l12.674 10.094H4.326L17 .962zM2.076 11.93h29.761v2.097H2.077V11.93zm2.12 2.97h2.682v14.29H4.196V14.9zM2.12 30.064h29.76v1.748H2.12v-1.748zM.865 32.685h32.27v1.442H.865v-1.442z" fill="#B3966F"/></g><defs><clipPath id="clip0_11_152"><path fill="#fff" d="M0 0h34v35H0z"/></clipPath></defs></svg>