<svg width="40" height="40" fill="none" xmlns="http://www.w3.org/2000/svg"><path d="M35.85 19.46c.91-.585 1.507-1.555 1.507-2.65 0-1.779-1.577-3.225-3.514-3.225h-9.365c.443-.83.891-2.19.789-4.214-.201-4.15-2.72-6.304-4.177-6.923-.859-.364-1.794-.277-2.5.232-.71.511-1.51 1.686-1.296 4.378.222 2.797-3.34 5.831-5.074 7.135v-1.065a.595.595 0 00-.596-.595H3.738a.595.595 0 00-.595.595V34.64c0 .329.266.595.595.595h7.886c.33 0 .596-.266.596-.595v-1.087c2.245.807 8.557 2.982 11.676 3.084l6.264.044c1.936 0 3.51-1.51 3.51-3.367 0-.855-.335-1.634-.882-2.23 1.67-.26 2.951-1.646 2.951-3.318 0-.89-.365-1.699-.957-2.302 1.483-.395 2.575-1.698 2.575-3.244 0-1.142-.597-2.151-1.507-2.76zM4.334 34.044v-20.32h6.695v1.596a.63.63 0 000 .047v18.677H4.334zm29.509-9.645H30.16a.596.596 0 000 1.191h2.063c1.282 0 2.325.976 2.325 2.176 0 1.2-1.043 2.175-2.325 2.175H27.97a.596.596 0 000 1.19h2.185l.004.001h.008c1.275.005 2.31.98 2.31 2.181 0 1.2-1.04 2.176-2.314 2.176l-6.244-.043c-3.106-.102-9.993-2.54-11.7-3.16V15.665c1.29-.887 6.573-4.774 6.261-8.702-.132-1.669.154-2.847.805-3.317.542-.39 1.162-.175 1.34-.1 1.2.51 3.279 2.322 3.451 5.885.157 3.096-1.097 4.254-1.145 4.296a.597.597 0 00.386 1.05h10.524c1.281 0 2.324.912 2.324 2.033 0 1.126-1.043 2.043-2.324 2.043h-2.546a.596.596 0 100 1.19h2.546c1.281 0 2.324.977 2.324 2.177 0 1.2-1.042 2.179-2.323 2.179z" fill="#B3966F"/></svg>