<svg width="155" height="54" fill="none" xmlns="http://www.w3.org/2000/svg"><g clip-path="url(#clip0_18_2544)"><path d="M17.498 0c3.709 0 4.874 2.636 5.852 5.268.41 1.117 10.049 27.268 10.339 28.054.077.218.025.578-.315.708-.342.128-5.35 2.057-5.627 2.16a.537.537 0 01-.688-.322c-.104-.27-2.183-5.971-2.417-6.608H10.357c-.225.637-2.328 6.35-2.422 6.608a.531.531 0 01-.69.323c-.296-.116-5.323-2.045-5.623-2.161a.558.558 0 01-.319-.709c.354-.979 9.847-26.71 10.33-28.053C12.576 2.675 13.781 0 17.498 0zM.54 46.794c-.3 0-.54.248-.54.55v6.111c0 .302.24.546.54.546h33.901a.542.542 0 00.546-.545v-6.113c0-.301-.24-.55-.546-.55H.54zM17.465 8.54l-4.829 14.366h9.736L17.527 8.54h-.063zm72.453 23.556c-.71.238-1.18.296-1.739.296-1.154 0-1.795-.453-1.795-1.626 0-1.223.814-1.632 2.41-1.632.39 0 .774.056.953.118v.876c0 .944.052 1.564.171 1.968zm4.105 1.401c-.852-1.283-1.076-2.039-1.076-3.656v-3.285c0-1.768-.208-2.406-.68-3.05-.656-.914-1.75-1.31-3.762-1.31-1.424 0-2.806.153-4.145.491l.484 2.335c.905-.126 1.853-.234 2.522-.234 2.137 0 2.381.306 2.381 1.894v.593a6.256 6.256 0 00-1.628-.217c-3.217 0-4.916 1.56-4.916 4.142 0 2.421 1.816 3.741 4.028 3.741.826 0 1.689-.15 2.372-.428.413-.177.593-.283 1.126-.625.321.462.966.935 1.228 1.024l2.066-1.415zm31.821-1.4c-.715.237-1.176.295-1.739.295-1.159 0-1.807-.453-1.807-1.626 0-1.223.823-1.632 2.424-1.632.39 0 .776.056.951.118v.876c0 .944.05 1.564.171 1.968zm4.109 1.4c-.859-1.283-1.078-2.039-1.078-3.656v-3.285c0-1.768-.213-2.406-.688-3.05-.648-.914-1.745-1.31-3.763-1.31-1.422 0-2.812.153-4.151.491l.478 2.335c.906-.126 1.857-.234 2.545-.234 2.125 0 2.377.306 2.377 1.894v.593a6.254 6.254 0 00-1.637-.217c-3.221 0-4.926 1.56-4.926 4.142 0 2.421 1.82 3.741 4.042 3.741.836 0 1.691-.15 2.369-.428.419-.177.592-.283 1.125-.625.326.462.97.935 1.235 1.024l2.072-1.415zM155 34.667s-1.764-3.725-2.195-4.572c-.486-.954-.936-1.613-1.929-1.85v-.055c.665-.126 1.195-.524 1.774-1.743.549-1.188.711-1.444 1.034-1.727.317-.28.751-.18.751-.18l.163-2.195a8.127 8.127 0 00-1.499-.036c-.876.052-1.328.302-1.76.732-.338.328-.567.82-.851 1.384-.3.615-.537 1.111-.85 1.737-.311.642-.457.931-1.293.931h-.544v-9.727h-3.221v17.3h3.221v-4.974l.44-.008c.924 0 1.086.23 1.574 1.194.571 1.15 1.666 3.788 1.666 3.788H155zm-90.74 0h3.718l-5.623-17.012a6.816 6.816 0 00-2.106-.318c-.852 0-1.157.112-1.824.319l-5.95 17.01h3.567s.482-1.491 1.049-3.34h6.162c.55 1.847 1.007 3.34 1.007 3.34zm-6.265-6.194l1.19-3.945c.41-1.376 1.03-3.561 1.03-3.561h.103s.575 2.264.95 3.536c.142.506 1.126 3.97 1.126 3.97h-4.398zm41.515-1.945c-1.136 0-2.06.919-2.06 2.045 0 1.134.924 2.047 2.06 2.047a2.049 2.049 0 002.058-2.047 2.052 2.052 0 00-2.058-2.046zm-27.119-9.162h-3.23v17.298h3.23V17.366zm64.16 7.58c1.785.036 2.006.402 2.006 1.885v7.835h3.2v-8.11c0-1.768-.208-2.406-.684-3.05-.656-.914-1.947-1.31-4.13-1.31-2.16 0-3.535.227-5.306.75v11.72h3.234v-9.572c.849-.122.999-.149 1.68-.149zm-56.173-7.888c-2.018 0-3.117.397-3.763 1.308-.475.647-.686 1.3-.686 3.072v1.508h-1.603v2.586h1.603v9.134h3.202l-.008-9.134h3.192v-2.586h-3.192l.008-1.386c0-1.587.244-1.895 2.383-1.895.232 0 .492.013.77.033l.504-2.485a18.635 18.635 0 00-2.41-.155zm25.693.162a111.49 111.49 0 015.096-.155c.281 0 .573.002.865.016 3.029 0 4.766 2.186 4.766 4.751 0 1.746-.807 2.905-2.698 3.595 2.225.487 3.39 2.208 3.39 4.313 0 1.545-.44 2.772-1.247 3.608-1.046 1.02-2.631 1.593-4.741 1.593-1.876 0-4.232-.058-5.431-.128V17.22zm5.096 2.834c-.534 0-1.195.01-1.85.033v4.154h1.852c.734 0 1.324-.203 1.726-.593.384-.368.584-.888.584-1.506 0-1.328-.726-2.08-2.075-2.088h-.237zm.066 11.904h.14c1.683 0 2.712-.886 2.725-2.67a2.367 2.367 0 00-.709-1.66c-.486-.483-1.174-.735-1.98-.735h-2.092v5.046c.59.013 1.241.015 1.916.02z" fill="#EE2A23"/></g><defs><clipPath id="clip0_18_2544"><path fill="#fff" d="M0 0h155v54H0z"/></clipPath></defs></svg>