<svg width="184" height="34" fill="none" xmlns="http://www.w3.org/2000/svg"><g clip-path="url(#clip0_18_2511)"><path d="M.073 17.247H33.73V0H.073v17.247z" fill="#EE293D"/><path d="M.073 33.817h33.658V16.908H.073v16.909z" fill="#231F20"/><path d="M5.943 17.938h21.898v-2.059H5.943v2.059z" fill="#fff"/><path d="M55.203 8.444c3.662 0 5.962 2.405 5.962 5.73 0 3.46-2.3 5.453-5.962 5.453h-7.285v5.657h-3.103V8.444h10.388zm.178 8.4c1.607 0 2.614-1.12 2.614-2.626 0-1.66-1.007-2.987-2.792-2.987h-7.285v5.612h7.463zm17.291 8.911c-5.338 0-9.762-3.567-9.762-8.912 0-5.275 4.424-8.913 9.762-8.913 5.363 0 9.716 3.638 9.716 8.913 0 5.345-4.353 8.912-9.716 8.912zm0-14.95c-3.89 0-6.548 2.648-6.548 6.038 0 3.481 2.548 6.06 6.548 6.06 3.977 0 6.498-2.6 6.498-6.06 0-3.39-2.521-6.038-6.498-6.038zm22.584 14.93c-5.608 0-9.831-3.57-9.831-8.913 0-5.254 4.287-8.892 9.831-8.892 3.308 0 5.673.945 7.799 2.513l-1.659 2.473c-1.54-1.193-3.482-2.067-6.05-2.067-4.091 0-6.637 2.604-6.637 5.973 0 3.48 2.57 5.99 6.68 5.99 2.568 0 4.6-.83 6.143-2.015l1.653 2.468c-2.121 1.57-4.62 2.47-7.929 2.47zm34.763-4.537l-1.92 4.088h-3.353l8.153-16.842h3.259l8.179 16.842h-3.352l-1.919-4.088h-9.047zm1.294-2.738h6.46l-3.22-6.827-3.24 6.827zm29.464 6.824V18.08h-10.968v7.204h-3.106V8.444h3.106v6.874h10.968V8.444h3.107v16.84h-3.107zm7.704 0V8.444h3.11v7.859l8.42-7.859h3.814l-8.662 8.109 9.021 8.731h-4.173l-8.42-8.172v8.172h-3.11zm-51.408-10.666h-7.276v-3.55h11.987V8.43h-15.093v16.826h10.382c3.658 0 6.179-1.999 6.179-5.318 0-3.454-2.521-5.32-6.179-5.32zm.179 7.855h-7.455v-5.069h7.455c1.946 0 3.053 1.032 3.053 2.534 0 1.659-.88 2.535-3.053 2.535z" fill="#231F20"/></g><defs><clipPath id="clip0_18_2511"><path fill="#fff" d="M0 0h184v34H0z"/></clipPath></defs></svg>