<svg width="220" height="36" fill="none" xmlns="http://www.w3.org/2000/svg"><path d="M98.466 10.376l4.485-3.388H87.573v20.118h15.378v-3.388H92.058v-5.083h9.398v-3.388h-9.398v-4.87h6.408zM76.04 14.823H70.7v-4.447h8.543l4.485-3.388H66.214v20.118h9.184c5.127 0 8.117-2.33 8.117-6.353 0-3.812-2.563-5.93-7.476-5.93zm-.855 8.895h-4.486v-5.506h4.486c2.776 0 4.058.847 4.058 2.753.214 1.905-1.282 2.753-4.058 2.753zm40.155-16.73h-8.33v20.118h4.485v-5.718h3.845c5.34 0 8.544-2.753 8.544-7.2s-3.204-7.2-8.544-7.2zm0 11.012h-3.845v-7.624h3.845c2.777 0 4.272 1.483 4.272 3.812 0 2.33-1.495 3.812-4.272 3.812zm-56.602 4.659c-1.068.635-2.563 1.059-3.845 1.059-4.058 0-6.835-2.753-6.835-6.565 0-3.812 2.777-6.565 6.835-6.565 1.495 0 2.777.424 4.059 1.27l3.203-2.329-.213-.423c-1.922-1.694-4.272-2.33-7.049-2.33-2.99 0-5.767 1.06-7.69 2.965-1.921 1.906-3.203 4.659-2.99 7.412 0 2.753 1.069 5.506 2.99 7.412 2.137 1.906 4.913 2.964 7.69 2.964 3.204 0 5.98-1.058 7.69-2.964l-2.777-2.118-1.068.212zM176.855 6.988v20.118h4.485v-8.259h9.398v8.259h4.485V6.988h-4.485v8.26h-9.398v-8.26h-4.485zm-7.69 20.118h4.699l-8.543-20.118h-4.486l-8.757 20.118h4.485l1.709-4.024h9.398l1.495 4.024zm-9.611-7.412l3.417-8.047 3.204 8.047h-6.621zm45.281-.847h2.777l6.621 8.047h5.554l-8.971-10.376 7.903-9.742h-5.127l-6.407 8.683h-2.35v-8.47h-4.485v20.117h4.485v-8.259zm-67.281-4.024v-4.447h11.534V6.989h-15.806v20.118h9.184c5.126 0 8.117-2.33 8.117-6.353-.214-3.812-2.777-5.93-7.69-5.93h-5.339zm0 8.895v-5.506h4.485c2.777 0 4.058.847 4.058 2.753 0 1.906-1.281 2.753-4.058 2.753h-4.485zM30.33 6.776c.855 1.06 1.495 2.118 1.922 3.389L17.087 21.388l-6.407-4.023v-4.87l6.407 4.023L30.33 6.776z" fill="#21A038"/><path d="M4.058 17.058v-.635l-3.845-.212v.847C0 21.505 1.923 25.741 5.126 28.705l2.777-2.752c-2.35-2.118-3.845-5.295-3.845-8.895z" fill="url(#paint0_linear_18_2492)"/><path d="M16.874 4.14h.64l.214-3.81h-.64c-4.7 0-8.972 1.906-11.962 4.87l2.777 2.754c2.136-2.33 5.553-3.812 8.97-3.812z" fill="url(#paint1_linear_18_2492)"/><path d="M16.873 29.764h-.64l-.214 3.812h.854c4.7 0 8.971-1.906 11.962-4.87l-2.777-2.753c-2.35 2.54-5.553 3.811-9.185 3.811z" fill="url(#paint2_linear_18_2492)"/><path d="M24.35 6.353l3.204-2.33c-2.99-2.328-6.622-3.81-10.68-3.81v4.023c2.777 0 5.34.847 7.476 2.118z" fill="url(#paint3_linear_18_2492)"/><path d="M33.747 16.941c0-1.059 0-1.906-.213-2.965l-3.631 2.753v.424c0 3.812-1.709 7.2-4.272 9.53l2.563 2.964c3.417-3.388 5.553-7.835 5.553-12.706z" fill="#21A038"/><path d="M16.873 29.859c-3.844 0-7.262-1.694-9.611-4.235l-2.99 2.54c2.99 3.39 7.475 5.507 12.601 5.507v-3.812z" fill="url(#paint4_linear_18_2492)"/><path d="M8.33 7.412L5.553 4.659C2.136 7.624 0 12.07 0 16.94h3.845c.213-3.6 1.708-7.2 4.485-9.53z" fill="url(#paint5_linear_18_2492)"/><defs><linearGradient id="paint0_linear_18_2492" x1="4.744" y1="28.307" x2=".837" y2="16.931" gradientUnits="userSpaceOnUse"><stop offset=".144" stop-color="#F2E913"/><stop offset=".304" stop-color="#E7E518"/><stop offset=".582" stop-color="#CADB26"/><stop offset=".891" stop-color="#A3CD39"/></linearGradient><linearGradient id="paint1_linear_18_2492" x1="6.215" y1="4.905" x2="16.276" y2="1.044" gradientUnits="userSpaceOnUse"><stop offset=".059" stop-color="#0FA8E0"/><stop offset=".538" stop-color="#0099F9"/><stop offset=".923" stop-color="#0291EB"/></linearGradient><linearGradient id="paint2_linear_18_2492" x1="15.852" y1="30.351" x2="27.86" y2="27.617" gradientUnits="userSpaceOnUse"><stop offset=".123" stop-color="#A3CD39"/><stop offset=".285" stop-color="#86C339"/><stop offset=".869" stop-color="#21A038"/></linearGradient><linearGradient id="paint3_linear_18_2492" x1="16.121" y1="2.855" x2="26.101" y2="5.955" gradientUnits="userSpaceOnUse"><stop offset=".057" stop-color="#0291EB"/><stop offset=".79" stop-color="#0C8ACB"/></linearGradient><linearGradient id="paint4_linear_18_2492" x1="5.473" y1="28.675" x2="16.183" y2="32.704" gradientUnits="userSpaceOnUse"><stop offset=".132" stop-color="#F2E913"/><stop offset=".298" stop-color="#EBE716"/><stop offset=".531" stop-color="#D9E01F"/><stop offset=".802" stop-color="#BBD62D"/><stop offset=".983" stop-color="#A3CD39"/></linearGradient><linearGradient id="paint5_linear_18_2492" x1="3.191" y1="17.511" x2="7.419" y2="6.437" gradientUnits="userSpaceOnUse"><stop offset=".07" stop-color="#A3CD39"/><stop offset=".26" stop-color="#81C55F"/><stop offset=".922" stop-color="#0FA8E0"/></linearGradient></defs></svg>