<svg width="220" height="44" fill="none" xmlns="http://www.w3.org/2000/svg"><path d="M51.595 16.032c1.371 0 2.898.047 4.223.95.882.582 1.92 1.735 1.92 3.79 0 2.257-1.443 4.918-5.404 4.918h-3.34v6.189h-2.923V16.032h5.524zm.119 7.33c.644 0 1.575.023 2.326-.666.513-.463.787-1.247.787-1.912 0-.618-.25-1.367-.763-1.806-.513-.44-1.324-.654-2.23-.654h-2.828v5.037h2.708zm8.719-2.069c.812-.76 2.016-1.425 3.818-1.425 1.813 0 3.018.665 3.829 1.425 1.205 1.129 1.825 2.887 1.825 4.68 0 1.795-.62 3.553-1.825 4.681-.811.76-2.016 1.438-3.83 1.438-1.8 0-3.017-.665-3.817-1.438-1.205-1.128-1.837-2.886-1.837-4.68 0-1.806.633-3.552 1.837-4.68zm1.969 8.007c.25.297.835.855 1.849.855 1.026 0 1.598-.546 1.849-.855.19-.202.883-1.128.883-3.326 0-2.198-.692-3.113-.883-3.326a2.363 2.363 0 00-1.85-.856 2.326 2.326 0 00-1.848.856c-.18.213-.883 1.128-.883 3.326 0 2.186.704 3.112.883 3.326zm16.749-4.893c-.048-.594-.274-1.295-.584-1.734-.275-.416-.836-.88-1.754-.88-.907 0-1.515.464-1.885 1.082-.584.95-.62 2.423-.62 3.1 0 1.081.155 2.376.62 3.113.298.463.907 1.057 1.885 1.057.692 0 1.264-.273 1.718-.88.346-.486.584-1.175.632-1.781l2.457.297c-.143 1.081-.62 2.293-1.479 3.065-.716.641-1.837 1.224-3.412 1.224-1.753 0-2.898-.69-3.567-1.32-.906-.854-1.765-2.375-1.765-4.775 0-2.233.763-3.575 1.36-4.288a5.325 5.325 0 014.032-1.853c1.455 0 2.672.51 3.424 1.294.763.76 1.228 1.913 1.395 2.947l-2.457.332zm11.501 0c-.048-.594-.274-1.294-.573-1.734-.274-.416-.835-.88-1.765-.88-.907 0-1.503.464-1.873 1.082-.573.95-.62 2.423-.62 3.1 0 1.081.167 2.376.62 3.113.298.463.907 1.057 1.873 1.057.692 0 1.276-.273 1.718-.879.346-.487.572-1.176.62-1.782l2.457.297c-.143 1.081-.62 2.293-1.479 3.065-.727.642-1.825 1.224-3.411 1.224-1.766 0-2.9-.69-3.567-1.319-.907-.855-1.754-2.376-1.754-4.776 0-2.233.763-3.575 1.372-4.288.847-1.022 2.314-1.853 4.032-1.853 1.455 0 2.66.51 3.435 1.294.764.76 1.23 1.913 1.396 2.947l-2.481.332zm14.851 4.038a4.944 4.944 0 01-1.944 2.673c-.93.63-2.135.974-3.412.974-1.598 0-3.22-.677-4.199-1.663-.906-.915-1.574-2.519-1.574-4.407 0-2.4 1.002-3.992 2.087-4.895.633-.523 1.814-1.271 3.591-1.271 2.254 0 3.686 1.034 4.45 2.103.811 1.104 1.192 2.649 1.192 3.991v.535h-8.386c0 .13-.024 1.2.394 2.055.62 1.295 1.766 1.616 2.553 1.616.632 0 1.407-.19 2.063-.856.394-.416.549-.808.621-1.176l2.564.32zm-2.732-3.718c0-.666-.154-1.426-.512-1.937a2.56 2.56 0 00-2.088-1.08c-.883 0-1.646.439-2.112.985a3.292 3.292 0 00-.691 2.032h5.403zm14.364-4.633v11.773h-2.697v-9.789h-3.054c-.071 1.592-.118 2.233-.166 3.326-.072 1.224-.168 3.802-1.205 5.215-.573.76-1.289 1.058-1.802 1.2-.298.095-.62.143-.954.143-.227 0-.465-.024-.692-.095v-2.032h.227c.346-.023.811-.201 1.121-.44.931-.736 1.014-2.399 1.109-3.717.12-1.735.144-2.768.156-4.337l.024-1.247h7.933zm5.523 4.194h2.971c.763 0 2.254.095 3.22 1.069.883.855.967 2.055.967 2.697 0 1.686-.692 2.542-1.229 2.981-.191.143-1.062.832-2.744.832h-5.881V20.094h2.684v4.194h.012zm0 5.63h2.112c.512 0 1.061-.023 1.527-.415.274-.262.607-.69.607-1.438 0-.641-.19-1.152-.715-1.496-.466-.297-1.05-.345-1.419-.345h-2.112v3.695zm11.07-9.824l2.182 3.66 2.267-3.66h2.457l-3.459 5.322 4.103 6.439h-3.149l-2.684-4.431-2.828 4.431h-2.456l4.019-6.106-3.602-5.655h3.15zm9.626 1.199c.811-.76 2.016-1.425 3.818-1.425 1.813 0 3.017.665 3.829 1.425 1.205 1.129 1.825 2.887 1.825 4.68 0 1.795-.632 3.553-1.825 4.681-.812.76-2.016 1.438-3.829 1.438-1.814 0-3.007-.665-3.818-1.438-1.205-1.128-1.837-2.886-1.837-4.68.012-1.806.632-3.552 1.837-4.68zm1.968 8.007c.251.297.835.855 1.85.855a2.353 2.353 0 001.86-.855c.18-.202.883-1.128.883-3.326 0-2.198-.691-3.113-.883-3.326a2.368 2.368 0 00-1.86-.856 2.327 2.327 0 00-1.85.856c-.178.213-.882 1.128-.882 3.326 0 2.186.704 3.112.882 3.326zm8.947-6.023a4.133 4.133 0 011.896-2.602c.394-.249 1.479-.807 3.34-.807 1.157 0 2.338.202 3.221.689 1.301.713 1.622 1.746 1.622 2.494 0 .808-.393 2.353-2.409 2.578v.048c.691.095 1.467.392 1.92.879.418.44.74 1.176.74 1.96 0 1.176-.692 2.222-1.575 2.792-1.061.689-2.528.784-3.614.784-1.098 0-2.755-.119-3.924-1.034-.645-.51-1.253-1.39-1.433-2.494l2.434-.416c.096.368.298.926.585 1.247.596.701 1.551.76 2.159.76.597 0 1.253-.07 1.754-.415.464-.321.692-.76.692-1.343 0-.487-.096-.879-.502-1.223-.537-.44-1.253-.511-1.92-.511h-1.229v-1.806h1.229c.465 0 1.133-.095 1.503-.273.489-.25.763-.665.763-1.33 0-.369-.142-.725-.489-.998-.536-.44-1.3-.464-1.694-.464-.537 0-1.324.071-1.968.618a2.227 2.227 0 00-.763 1.366l-2.338-.499zm24.086-4.477h-7.671v3.504h3.412c1.228 0 2.409.095 3.614.927 1.181.807 1.921 2.007 1.921 3.742 0 1.615-.597 2.815-1.372 3.576-1.157 1.152-2.482 1.318-3.865 1.318h-7.42V16.032h11.381V18.8zm-7.671 10.287h2.995c.56 0 1.073-.023 1.598-.558.512-.51.584-1.081.584-1.52 0-.511-.143-1.01-.584-1.45-.525-.523-1.205-.582-1.694-.582h-2.899v4.11zm10.856-5.727c.37-1.591 1.42-2.4 2.041-2.767.917-.535 2.146-.737 3.673-.737 1.944 0 3.925.25 4.796 2.079.465.938.417 1.96.417 2.84v4.549c0 .95.144 1.83.346 2.542h-3.363c-.096-.463-.156-1.08-.18-1.865-.441.784-1.503 2.103-3.96 2.103-1.086 0-2.207-.273-2.97-.903-.74-.606-1.205-1.568-1.205-2.625 0-1.177.512-2.59 2.528-3.422 1.301-.534 3.413-.712 4.366-.76l1.11-.048v-.25c0-.32-.023-1.009-.346-1.389-.442-.51-1.324-.523-1.67-.523-.477 0-1.062.048-1.551.345a1.85 1.85 0 00-.834 1.2l-3.198-.369zm6.561 2.935c-1.157.095-2.314.213-2.97 1.01a1.69 1.69 0 00-.369 1.057c0 .51.25.855.512 1.033.322.25.811.369 1.276.369.692 0 1.503-.297 1.969-.856.072-.071.62-.76.62-2.103v-.617l-1.038.107zm10.51-6.201v4.407h3.734v-4.407h3.448v11.761h-3.448v-4.942h-3.734v4.942h-3.447v-11.76h3.447zm13.325 0v4.526h.93c1.002 0 1.42-.487 1.67-1.021.489-1.034.465-1.842.907-2.65.346-.641.811-.807 1.109-.855h2.851a5.82 5.82 0 00-.906 1.271c-.37.76-.716 2.008-.931 2.542-.274.737-.74 1.473-1.921 1.569v.047c.633.095 1.277.416 1.766 1.129.298.44.501 1.01.835 1.912.322.927.465 1.247.764 1.96.238.535.37.856.763 1.343h-3.245c-.513-.167-.859-.511-1.276-1.71-.322-.928-.37-1.248-.584-1.76l-.168-.415c-.346-.879-.811-1.07-1.527-1.07h-1.037v4.943h-3.448v-11.76h3.448z" fill="#1D5B28"/><path fill-rule="evenodd" clip-rule="evenodd" d="M19.627 44C8.804 44 0 35.233 0 24.464c0-6.19 2.855-11.885 7.822-15.615l.21-.164V0h11.265v4.927h.33c10.824 0 19.618 8.767 19.618 19.546C39.245 35.233 30.441 44 19.627 44z" fill="#245E2E"/><path fill-rule="evenodd" clip-rule="evenodd" d="M13.943 24.775l4.086-3.995v-2.715l-4.086 3.976v2.734zm0-10.121l4.086-4.005V8.09l-4.086 3.977v2.588zm0 3.346l4.086-3.995v-2.56l-4.086 3.977V18zM12.78 8.119l-.552-.521V1.262h-.615v5.732l-.532-.53V1.262h-.624V5.87l-.542-.53V1.261H9.3v6.043l4.094 3.995V1.262h-.615V8.12zm1.163 13.227l4.086-3.995v-2.56l-4.086 3.977v2.578zM9.3 20.78l4.094 3.995V22.04L9.3 18.065v2.715zm8.113-15.44l-.541.53V1.262h-.615v5.211l-.542.521V1.262H15.1v6.326l-.542.53V1.263h-.615V11.3l4.086-3.995V1.262h-.616V5.34zM9.3 10.65l4.094 4.004v-2.588L9.3 8.09v2.56zm0 3.355L13.394 18v-2.578L9.3 11.445v2.56zm0 3.345l4.094 3.996v-2.578L9.3 14.79v2.56zm24.355 2.113h-9.942c.21-.329.33-.713.33-1.124 0-1.18-.964-2.13-2.148-2.13-1.184 0-2.14.96-2.14 2.13 0 .466.148.887.405 1.234a.68.68 0 00-.312.567.68.68 0 00.312.567 2.134 2.134 0 00-.404 1.234c0 1.18.955 2.13 2.139 2.13 1.184 0 2.148-.95 2.148-2.13 0-.411-.12-.805-.33-1.124h7.398v.447h-.735v.631h.735v.65h-.735v1.197h.735v-.54h1.083v.54h.725v-1.198h-.725v-.649h.725v-.63h-.725v-.448h1.46a.52.52 0 00.514-.522v-.32a.524.524 0 00-.514-.512zm-10.65 2.487c0 .603-.495 1.097-1.11 1.097a1.103 1.103 0 01-1.102-1.097c0-.22.064-.43.184-.603l.303-.521a.898.898 0 01-.312-.686c0-.274.119-.521.312-.686l-.303-.52a1.042 1.042 0 01-.184-.604c0-.603.496-1.097 1.102-1.097.606 0 1.11.494 1.11 1.097 0 .448-.514 1.517-.514 1.517v.576c-.009.01.515 1.08.515 1.527z" fill="#FC0"/><path fill-rule="evenodd" clip-rule="evenodd" d="M5.583 18.166v2.66c0 2.542 1.11 4.178 1.753 4.809.376.366 4.177 4.086 4.232 4.141 1.184 1.152 1.386 1.536 1.652 2.185v-2.944c0-2.623-1.33-3.638-2.02-4.305-1.597-1.555-2.67-2.578-3.534-3.438-1.643-1.636-2.083-3.108-2.083-3.108zM11.2 31.284c-1.597-1.564-2.672-2.578-3.534-3.438-1.644-1.636-2.075-2.742-2.075-2.742v2.294c0 2.542 1.157 4.16 1.744 4.827l4.232 4.123c1.184 1.152 1.386 1.7 1.652 2.35v-3.109c0-2.623-1.34-3.638-2.02-4.305z" fill="#fff"/><path fill-rule="evenodd" clip-rule="evenodd" d="M19.628 6.18c-.294 0-.588.01-.882.019v1.243c.285-.018.579-.028.882-.028 9.446 0 17.102 7.625 17.102 17.041 0 9.407-7.656 17.031-17.102 17.031-9.447 0-17.112-7.624-17.112-17.031 0-5.22 2.359-9.892 6.077-13.018v-1.59c-4.453 3.336-7.326 8.638-7.326 14.608 0 10.093 8.216 18.275 18.36 18.275 10.135 0 18.352-8.182 18.352-18.275 0-10.093-8.217-18.275-18.351-18.275z" fill="#fff"/><path fill-rule="evenodd" clip-rule="evenodd" d="M32.606 34.009c.285-.384.551-.787.808-1.198v-2.45h-.808v3.648zm2.351-4.545c.11-.357.22-.713.312-1.07h-2.663v.65h.404c.707-.019 1.506-.028 1.947.42z" fill="#fff"/><path d="M17.231 28.303h-.725v7.286h.725v-7.286z" fill="#fff"/><path fill-rule="evenodd" clip-rule="evenodd" d="M14.844 26.905h2.387c.615 0 1.047.128 1.295.365.248.238.367.668.367 1.28v6.81c0 .613-.11 1.043-.367 1.28-.377.376-1.075.376-1.653.376-.128-.01-.257-.01-.367-.01v3.227c.239.046.477.092.725.129V37.71c1.102 0 1.818-.374 2.158-1.124v3.95h.238c.156 0 .303 0 .46-.01V28.67c0-.63.128-1.07.366-1.316.24-.256.67-.375 1.277-.375.615 0 1.523-.092 1.992.375.238.246.348.694.348 1.316v3.492h-1.634v-3.73h-.706v11.967c.238-.027.468-.064.706-.11v-7.423h1.634v7.049c.34-.092.67-.202 1.001-.32V33.14c0-.731.174-1.28.927-1.536l-.826-4.488h1.653l.275 4.9h.202l.275-4.9h1.744l-.936 4.489c.78.274.936.75.936 1.535v4.17c.487-.367.946-.75 1.387-1.171v-9.06h4.847c.037-.22.064-.43.092-.658H24.3l.156.814c-.358-.659-1.037-.988-2.038-.988h-.707c-1.202 0-1.937.476-2.212 1.427-.257-.997-1.02-1.49-2.277-1.49H14.12v13.374c.239.082.478.164.716.238v-12.89h.01zm15.047 5.146l-.78-.74.78-4.022v4.762z" fill="#fff"/><path fill-rule="evenodd" clip-rule="evenodd" d="M26.816 38.853c.248-.128.505-.256.744-.393v-5.513h-.744v5.906z" fill="#fff"/></svg>