<svg width="138" height="138" fill="none" xmlns="http://www.w3.org/2000/svg"><path d="M70.694 138l-.195-7.553h1.08L71.88 138h-1.186zm-4.564 0l-1.143-.129.431-7.553 1.014.054L66.13 138zm10.249-.334l-.81-7.553 1.015-.119.928 7.553-1.133.119zm-15.934-.13l-1.079-.151 1.08-7.477 1.002.129-1.003 7.499zm21.576-.712l-1.413-7.423.992-.195 1.532 7.391-1.11.227zm-27.196-.227l-1.08-.248 1.673-7.358.982.215-1.575 7.391zm32.752-1.079l-2.028-7.358.981-.281 2.158 7.24-1.111.399zm-38.287-.313l-1.078-.334 2.265-7.208.97.303-2.157 7.239zm43.713-1.445l-2.621-7.078.95-.367 2.74 7.045-1.069.4zm-49.107-.4l-1.078-.431 2.858-6.992.939.378-2.719 7.045zm54.383-1.801l-3.237-6.841.928-.442 3.312 6.786-1.003.497zm-59.604-.497l-1.079-.507 3.485-6.711.906.442-3.312 6.776zm64.663-2.158l-3.754-6.549.874-.518 3.873 6.474-.993.593zm-69.68-.572l-.97-.593 3.97-6.474.863.518-3.863 6.549zm74.502-2.481l-4.315-6.215.831-.583 4.401 6.14-.917.658zm-79.27-.637l-.928-.68 4.5-6.085.819.594-4.39 6.171zm83.834-2.805l-4.79-5.826.787-.659 4.887 5.762-.884.723zm-88.3-.723l-.863-.744 4.94-5.73.778.669-4.855 5.805zm92.593-3.097l-5.253-5.394c.248-.227.485-.475.722-.713l5.47 5.223-.14.14-.799.744zm-96.79-.766l-.776-.777 5.394-5.265c.226.237.453.475.69.701l-5.308 5.341zm100.825-3.474l-5.685-4.963.658-.777 5.771 4.877-.744.863zm-104.644-.723l-.733-.874 5.836-4.801.648.787-5.75 4.888zm108.258-3.722l-6.074-4.489.594-.809 6.149 4.37a9.302 9.302 0 00-.744.928h.075zm-111.774-.777l-.658-.939 6.214-4.316.582.831-6.138 4.424zm114.967-3.949l-6.473-3.96.529-.863 6.473 3.852-.529.971zm-118.096-.831l-.658-1.003 6.548-3.766.518.874-6.408 3.895zm120.826-4.143l-6.732-3.42.453-.907 6.786 3.313c-.184.334-.356.68-.529 1.014h.022zM6.979 99.33l-.485-1.025 6.83-3.237c.15.302.29.615.441.917L6.98 99.33zm125.983-4.316l-7.001-2.838c.129-.313.248-.626.377-.95l7.045 2.73-.421 1.058zm-128.27-.906c-.14-.357-.28-.713-.41-1.08l7.056-2.632c.119.313.238.626.367.95l-7.012 2.762zm130.19-4.457l-7.206-2.255c.108-.323.205-.647.302-.97l7.239 2.157c-.13.346-.238.734-.356 1.069h.021zM2.848 88.703a94.837 94.837 0 01-.313-1.079l7.271-2.029c.087.324.184.648.28.972l-7.238 2.136zm133.523-4.553l-7.368-1.662c.075-.334.151-.658.216-.992l7.389 1.532c-.108.377-.183.744-.269 1.122h.032zM1.424 83.167a28.003 28.003 0 01-.227-1.08l7.412-1.434c.065.334.13.669.205 1.003l-7.39 1.51zm135.929-4.64l-7.476-1.079.129-1.014 7.498.928c-.043.41-.097.788-.151 1.165zM.485 77.535c0-.378-.097-.756-.14-1.133l7.552-.81c0 .346.075.68.118 1.015l-7.53.928zm137.429-4.683l-7.552-.42v-1.015l7.552.302c.032.335.021.755 0 1.133zM.011 71.848V70.77l7.551-.183V71.6l-7.551.249zm130.437-4.499v-1.014l7.552-.324v1.144l-7.552.194zM7.552 66.464L0 66.151c0-.377 0-.755.054-1.143l7.552.431c-.022.346-.033.68-.054 1.025zm122.594-4.186c0-.334-.075-.669-.118-1.014l7.551-.939.13 1.133-7.563.82zm-122.13-.885l-7.498-.928c0-.377.097-.755.15-1.133l7.477 1.08-.13.981zM129.39 57.25a31.848 31.848 0 00-.205-.993l7.39-1.553c.086.367.151.744.227 1.079l-7.412 1.467zM8.846 56.376l-7.4-1.532c.075-.378.161-.745.248-1.079l7.357 1.662a6.436 6.436 0 00-.248.95h.043zm119.369-4.068a25.667 25.667 0 00-.28-.981l7.239-2.158.323 1.079-7.282 2.06zm-118.139-.852l-7.239-2.158c.108-.367.227-.723.335-1.079l7.206 2.266a6.98 6.98 0 00-.345.971h.043zm116.575-3.981l-.367-.95 7.034-2.751.41 1.079-7.077 2.622zm-114.924-.82l-7.045-2.741.42-1.079 6.991 2.849c-.162.334-.29.647-.41.97h.043zm112.95-3.863c-.14-.313-.291-.615-.442-.917l6.785-3.334.496 1.079-6.839 3.172zm-110.922-.788l-6.786-3.312c.173-.346.334-.69.507-1.08l6.732 3.432-.453.96zm108.527-3.722l-.518-.874 6.473-3.885.582.993-6.537 3.766zm-106.154-.755l-6.473-3.863c.194-.335.4-.658.594-.982l6.418 3.981-.539.864zm103.435-3.55l-.582-.831 6.127-4.402.669.938-6.214 4.295zm-100.662-.702l-6.15-4.38.67-.917 6.073 4.499-.593.798zm97.599-3.301l-.659-.777 5.75-4.899.734.874-5.825 4.802zm-94.482-.648l-5.76-4.877.744-.873 5.685 4.984c-.226.205-.42.464-.669.723v.043zm91.083-3.14c-.215-.215-.42-.431-.647-.647l-.075-.086 5.394-5.395.075.086c.248.238.485.475.723.723l-5.47 5.32zm-87.598-.69l-5.394-5.298h.054c.248-.259.496-.507.755-.755l5.254 5.395-.67.658zm83.898-2.86l-.766-.657 4.876-5.762.863.734-4.973 5.686zm-80.209-.55l-4.897-5.75.873-.734 4.801 5.826-.777.659zm76.25-2.632l-.82-.594 4.391-6.15.917.67-4.488 6.074zm-72.28-.497l-4.358-6.139.939-.658 4.315 6.204a13.59 13.59 0 00-.853.593h-.043zm68.051-2.34l-.874-.53 3.862-6.473.971.593-3.959 6.41zm-63.757-.454l-3.884-6.474.993-.572 3.765 6.539-.874.507zm59.334-2.04l-.906-.442 3.3-6.797 1.08.507-3.474 6.733zm-54.868-.334L38.6 7.013l1.08-.496 3.236 6.83-.993.442zm50.294-1.715l-.906-.443 2.718-7.035c.352.13.712.27 1.079.421l-2.891 7.057zm-45.644-.324l-2.73-7.089 1.08-.41 2.642 7.078-.992.421zm40.865-1.392l-.971-.302 2.157-7.24 1.08.335-2.266 7.207zm-36.043-.313l-2.158-7.24 1.08-.323 2.017 7.283-.939.28zM82.55 8.966l-.993-.216 1.543-7.4 1.079.248-1.63 7.37zm-26.226-.194l-1.543-7.39 1.08-.227 1.434 7.423c-.324.075-.658.15-.992.216l.021-.022zm21.23-.723l-1.002-.13.917-7.498 1.078.15-.992 7.478zm-16.181-.108L60.434.442l1.08-.13.808 7.554-.95.075zm11.155-.388h-1.014L71.816 0h1.143l-.431 7.553zm-6.096 0L66.12 0h1.143l.183 7.553h-1.013z" fill="#D4CEFF" fill-opacity=".8" opacity=".6"/></svg>