<svg width="359" height="398" fill="none" xmlns="http://www.w3.org/2000/svg"><g style="mix-blend-mode:luminosity" opacity=".4" fill="#D4CEFF"><path d="M8.594 182.13v4.531l3.897-2.268-3.897-2.263zm4.934 0v4.531l3.898-2.268-3.898-2.263zm4.94 0v4.531l3.897-2.268-3.897-2.263zm4.939 0v4.531l3.898-2.268-3.898-2.263zm4.934 0v4.531l3.903-2.268-3.903-2.263zm4.939 0v4.531l3.898-2.268-3.897-2.263zm4.94 0v4.531l3.898-2.268-3.898-2.263zm4.94 0v4.531l3.897-2.268-3.898-2.263zm4.934 0v4.531l3.903-2.268-3.903-2.263zm-198.743 58.781l-.234-.08a121.081 121.081 0 01-29.258-14.83 121.78 121.78 0 01-12.46-9.89l-.185-.169 21.831-24.077.19.165a88.569 88.569 0 0030.509 18.09l.239.079-10.632 30.712zm-41.434-25.014a120.543 120.543 0 0041.135 24.381l10.293-29.779a89.266 89.266 0 01-30.265-17.946l-21.163 23.344zm153.516 6.979l-19.758-25.841.2-.155a87.983 87.983 0 0019.02-19.939 98.043 98.043 0 004.26-6.799l.125-.215 28.281 15.986-.124.22a121.012 121.012 0 01-5.822 9.286l-.204-.144.204.144a120.56 120.56 0 01-26.018 27.292l-.164.165zm-19.06-25.752l19.13 25.039a120.152 120.152 0 0025.713-27.028 121.862 121.862 0 005.677-9.032L-34.52 170.59a90.058 90.058 0 01-4.162 6.62 88.601 88.601 0 01-18.945 19.914zm-156.97-7.646l-.129-.215a120.045 120.045 0 01-15.452-40.83c-.299-1.62-.563-3.265-.787-4.885l-.035-.245 32.193-4.536.035.244c.17 1.197.364 2.403.578 3.589a87.814 87.814 0 0011.27 29.825l.129.214-27.802 16.839zm-15.83-45.726c.215 1.535.469 3.086.748 4.616a119.64 119.64 0 0015.252 40.452l26.95-16.321a88.229 88.229 0 01-11.205-29.804 83.66 83.66 0 01-.548-3.36l-31.197 4.417zM5.977 153.976l-31.685-7.283.055-.244a87.408 87.408 0 00.772-35.427 69.784 69.784 0 00-.578-2.906l-.05-.245 31.765-6.879.055.245c.279 1.311.548 2.641.787 3.987a119.831 119.831 0 01-1.076 48.498l-.045.254zm-31.087-7.632l30.708 7.039a119.277 119.277 0 00.997-48.074 99.383 99.383 0 00-.733-3.699l-30.793 6.645c.19.882.37 1.78.534 2.677a88.016 88.016 0 01-.713 35.387v.025zm-173.582-32.471l-.249-.04-31.9-4.825.04-.244a119.806 119.806 0 0116.797-45.532l.135-.214 27.613 17.148-.135.214a87.447 87.447 0 00-12.266 33.244l-.035.249zm-31.57-5.284l31.151 4.716a88.096 88.096 0 0112.167-32.98l-26.766-16.62a119.37 119.37 0 00-16.552 44.884zm196.03-24.047l-.119-.214A87.466 87.466 0 00-57.348 57.37l-.2-.154.155-.195L-37.561 31.6l.2.154A119.826 119.826 0 01-5.876 68.656l.12.22-28.475 15.666zm-22.613-27.416a87.886 87.886 0 0122.808 26.738l27.598-15.183a119.245 119.245 0 00-31.037-36.39l-19.369 24.835zm-113.362 3.963l-21.607-24.286.19-.165a119.28 119.28 0 0142.037-24.27l.234-.08 10.223 30.856-.234.08a87.043 87.043 0 00-30.658 17.7l-.185.165zm-20.904-24.246l20.934 23.543a87.515 87.515 0 0130.404-17.556l-9.909-29.91a118.862 118.862 0 00-41.429 23.923z" opacity=".6"/><path d="M14.221 73.307A136.908 136.908 0 008.848 62.13L.096 66.886l-.24-.438A126.753 126.753 0 00-26.36 33.089l-.369-.334 6.7-7.372A136.342 136.342 0 00-51.777 3.948l-4.321 8.973-.449-.215A126.142 126.142 0 00-97.332.997l.11-.997a127.198 127.198 0 0140.656 11.585l4.322-8.973.448.22a137.118 137.118 0 0132.807 22.137l.369.334-6.7 7.382a136.507 136.507 0 014.103 3.923A127.838 127.838 0 01.494 65.52l8.753-4.755.239.438a136.836 136.836 0 015.652 11.715l-.917.389zm36.929 96.526c-13.084 0-23.023-.105-23.337-.419l-.08-.185a.173.173 0 000 .06c-.413-.942-14.982-15.248-24.677-24.63l.344-.359c7.138 6.909 23.327 22.661 24.727 24.73 2.069.563 54.403.214 81.922-.05v.499c-11.529.109-38.893.354-58.9.354zm132.71-21.37h3.574l-1.784-4.238-1.79 4.238zm.001-5.369h3.573l-1.784-4.242-1.789 4.242zm0-5.369h3.573l-1.784-4.242-1.789 4.242zm0-5.368h3.573l-1.784-4.242-1.789 4.242zm0-5.374h3.573l-1.784-4.237-1.789 4.237zm-49.998 85.843a1.94 1.94 0 11-.002-3.879 1.94 1.94 0 01.002 3.879zm0-3.379a1.434 1.434 0 00-1.33.889 1.437 1.437 0 00.312 1.57 1.44 1.44 0 101.018-2.459zm6.281 3.379a1.94 1.94 0 01-1.792-1.197 1.934 1.934 0 01.42-2.113 1.938 1.938 0 012.113-.42 1.937 1.937 0 01-.741 3.73zm0-3.379a1.437 1.437 0 00-1.331.889 1.437 1.437 0 00.312 1.57 1.439 1.439 0 102.036-2.036 1.444 1.444 0 00-1.017-.423zm6.285 3.379a1.94 1.94 0 01-1.792-1.197 1.943 1.943 0 01.421-2.113 1.938 1.938 0 111.371 3.31zm0-3.379a1.437 1.437 0 00-1.331.889 1.437 1.437 0 00.312 1.57 1.437 1.437 0 002.216-.218 1.437 1.437 0 00-.18-1.818 1.444 1.444 0 00-1.017-.423zm6.28 3.379a1.935 1.935 0 01-1.792-1.197 1.943 1.943 0 01.421-2.113 1.935 1.935 0 012.983.294 1.94 1.94 0 01-1.612 3.016zm0-3.379a1.439 1.439 0 10.551 2.771 1.437 1.437 0 00.889-1.331 1.44 1.44 0 00-1.44-1.44zm6.285 3.379a1.94 1.94 0 11-.002-3.879 1.94 1.94 0 01.002 3.879zm0-3.379a1.439 1.439 0 10.551 2.771 1.44 1.44 0 00-.551-2.771zm6.285 3.379a1.94 1.94 0 11-.002-3.879 1.94 1.94 0 01.002 3.879zm0-3.379a1.439 1.439 0 10.551 2.771 1.434 1.434 0 00.89-1.331 1.44 1.44 0 00-1.441-1.44zm6.28 3.379a1.94 1.94 0 11-.002-3.879 1.94 1.94 0 01.002 3.879zm0-3.379a1.434 1.434 0 00-1.33.889 1.437 1.437 0 00.312 1.57 1.44 1.44 0 101.018-2.459zM11.64 280.48a1.934 1.934 0 01-1.902-2.317 1.94 1.94 0 111.901 2.317zm0-3.379a1.442 1.442 0 00-1.332.889 1.439 1.439 0 001.882 1.882 1.445 1.445 0 00.89-1.331 1.447 1.447 0 00-1.44-1.44zm6.284 3.379a1.935 1.935 0 01-1.902-2.317 1.94 1.94 0 111.902 2.317zm0-3.379a1.441 1.441 0 10-.001 2.883 1.441 1.441 0 00.001-2.883zm6.28 3.379a1.934 1.934 0 01-1.902-2.317 1.939 1.939 0 111.902 2.317zm0-3.379a1.442 1.442 0 00-1.33.889 1.44 1.44 0 101.33-.889zm6.286 3.379a1.94 1.94 0 01-1.784-1.204 1.937 1.937 0 011.42-2.637 1.94 1.94 0 11.364 3.841zm0-3.379a1.444 1.444 0 00-1.324.896 1.438 1.438 0 001.056 1.958 1.441 1.441 0 001.291-2.435 1.455 1.455 0 00-1.023-.419zm6.285 3.379a1.942 1.942 0 01-1.795-1.193 1.94 1.94 0 111.795 1.193zm0-3.379a1.437 1.437 0 00-1.419 1.718 1.44 1.44 0 101.419-1.718zm6.28 3.379a1.934 1.934 0 01-1.902-2.317 1.94 1.94 0 111.902 2.317zm0-3.379a1.442 1.442 0 00-1.33.889 1.439 1.439 0 001.881 1.882 1.445 1.445 0 00.89-1.331 1.447 1.447 0 00-1.441-1.44zm6.285 3.379a1.935 1.935 0 01-1.902-2.317 1.94 1.94 0 111.902 2.317zm0-3.379a1.441 1.441 0 10-.001 2.883 1.441 1.441 0 00.001-2.883zm-39.141-25.393a1.118 1.118 0 01-1.908.788 1.118 1.118 0 111.908-.788z" opacity=".6"/><path d="M9.087 253.074a1.362 1.362 0 01-1.265-.84 1.364 1.364 0 011.782-1.788 1.362 1.362 0 01.844 1.262 1.367 1.367 0 01-1.36 1.366zm0-2.233a.868.868 0 10-.008 1.733.868.868 0 00.008-1.733zm209.265 85.499a25.461 25.461 0 1121.199-39.595 25.465 25.465 0 01-3.186 32.148 25.391 25.391 0 01-18.013 7.447zm0-50.426a24.963 24.963 0 1020.78 38.821 24.962 24.962 0 00-3.121-31.518 24.874 24.874 0 00-17.659-7.303z" opacity=".6"/><path d="M218.048 334.506h-.539l.125-3.49h.458l-.044 3.49zm2.148-.075l-.264-3.489.448-.04.359 3.489c-.184.01-.364.03-.543.04zm-4.835-.11l-.533-.074.498-3.45.454.06-.419 3.464zm7.476-.254l-.663-3.424.449-.09.743 3.41c-.15.034-.324.074-.504.104h-.025zm-10.138-.234l-.498-.13.897-3.374.449.114-.848 3.39zm12.745-.429l-1.052-3.325.439-.144 1.122 3.305-.509.164zm-15.316-.354l-.499-.189 1.271-3.25.434.164-1.206 3.275zm17.833-.603l-1.425-3.18.413-.195 1.496 3.151c-.125.08-.294.154-.459.224h-.025zm-20.301-.468l-.498-.25 1.645-3.075.403.209-1.55 3.116zm22.689-.768l-1.775-2.991.389-.239 1.849 2.961-.463.269zm-25.016-.583c-.15-.095-.299-.2-.444-.299l1.994-2.872.379.26-1.929 2.911zm27.249-.918l-2.109-2.781.359-.279 2.178 2.726-.428.334zm-29.408-.682l-.403-.349 2.293-2.632c.114.104.234.204.348.299l-2.238 2.682zm31.456-1.067l-2.412-2.523.329-.319.279-.289 2.522 2.413-.339.344-.379.374zm-33.394-.773l-.369-.394 2.577-2.353.314.339-2.522 2.408zm35.557-1.56l-2.731-2.173.284-.364 2.776 2.113-.329.424zm-37.297-.499c-.11-.139-.214-.284-.319-.428l2.826-2.049.274.374-2.781 2.103zm38.877-1.699l-2.955-1.86c.084-.124.159-.254.239-.384l2.99 1.785c-.109.165-.204.319-.299.469l.025-.01zm-40.372-.534l-.269-.468 3.045-1.705c.075.134.15.269.229.399l-3.005 1.774zm41.653-1.824l-3.145-1.496.195-.418 3.18 1.435c-.1.17-.16.329-.24.489l.01-.01zm-42.889-.563c-.07-.165-.145-.329-.21-.499l3.215-1.351c.06.14.12.284.185.424l-3.19 1.426zm43.911-1.92l-3.3-1.141c.05-.145.1-.289.145-.434l3.325 1.062c-.065.184-.12.354-.18.523l.01-.01zm-44.858-.598l-.16-.498 3.355-.967c.04.144.084.289.129.433l-3.324 1.032zm45.596-1.994l-3.409-.757c.034-.15.064-.3.094-.449l3.424.678a9.053 9.053 0 00-.124.543l.015-.015zm-46.259-.618a19.85 19.85 0 01-.095-.533l3.439-.583c.025.154.055.304.08.453l-3.424.663zm46.687-2.039l-3.489-.364.045-.458 3.489.289c-.025.194-.04.374-.06.548l.015-.015zm-47.061-.603c0-.184-.03-.364-.04-.543l3.489-.185c0 .15 0 .299.035.449l-3.484.279zm43.687-2.034v-.453l3.489-.115v.543l-3.489.025zm-40.258-.533l-3.489-.125v-.538l3.489.204c.01.15.005.299 0 .454v.005zm40.109-1.75l-.06-.458 3.449-.499.075.534-3.464.423zm-39.875-.538l-3.449-.499c0-.179.055-.358.085-.538l3.434.603c-.05.13-.075.304-.099.429l.029.005zm39.491-1.72a14.725 14.725 0 00-.115-.448l3.374-.888c.05.17.09.344.135.499l-3.394.837zm-39.022-.528l-3.369-.902a9.06 9.06 0 01.144-.499l3.35.997a.786.786 0 00-.125.404zm38.379-1.67l-.165-.429 3.25-1.276c.065.17.13.334.189.499l-3.274 1.206zm-37.646-.499l-3.245-1.281c.065-.169.134-.334.204-.498l3.215 1.361c-.1.134-.159.274-.214.413l.04.005zm36.734-1.605a7.895 7.895 0 00-.21-.408l3.086-1.63.244.473-3.12 1.565zm-35.772-.468l-3.076-1.65.259-.474 3.036 1.72c-.115.13-.189.284-.259.399l.04.005zm34.63-1.496l-.254-.384 2.876-1.993c.1.146.199.295.299.448l-2.921 1.929zm-33.439-.438l-2.861-1.994.309-.434 2.821 2.054-.269.374zm32.079-1.406l-.3-.354 2.632-2.288c.12.135.234.274.349.409l-2.681 2.233zm-30.664-.404l-2.626-2.298.359-.404 2.571 2.363c-.119.085-.244.2-.344.314l.04.025zm29.098-1.276l-.338-.319 2.362-2.567.389.364-2.413 2.522zm-27.493-.359l-2.347-2.582.393-.354 2.298 2.627-.344.309zm25.754-1.131a10.09 10.09 0 00-.369-.275l2.054-2.826.428.319-2.113 2.782zm-23.974-.319l-2.044-2.827.439-.314 1.993 2.876-.388.265zm22.075-.968l-.399-.234L230 290.33l.463.27-1.789 2.995zm-20.186-.299l-1.705-3.045.499-.26 1.634 3.081-.428.224zm18.118-.797l-.424-.18 1.366-3.215.498.215-1.44 3.18zm-16.055-.2l-1.351-3.22.499-.199 1.276 3.245-.424.174zm13.916-.608l-.438-.134.997-3.345.498.154-1.057 3.325zm-11.758-.154l-.967-3.35.499-.145.892 3.37-.424.125zm9.53-.414l-.443-.085.593-3.439.538.099-.688 3.425zm-7.292-.1l-.583-3.439.533-.085.499 3.455-.449.069zm5.029-.219l-.458-.03.204-3.489.539.04-.285 3.479zm-2.751-.035l-.194-3.489h.548l.1 3.489h-.454zm1.127 90.833h-.708v-.997h1.994v.997h-1.286zm-3.215-.075a63.453 63.453 0 01-1.994-.119l.075-.997c.658.045 1.316.085 1.994.114l-.075 1.002zm7.023-.029l-.05-.997a83.324 83.324 0 001.993-.135l.08.997a66.45 66.45 0 01-2.043.135h.02zm-11.524-.32a62.711 62.711 0 01-1.994-.244l.135-.997c.658.09 1.311.17 1.994.245l-.135.996zm16.024-.064l-.114-.997a69.448 69.448 0 001.964-.259l.144.996c-.683.095-1.331.175-2.014.26h.02zm-20.515-.584c-.658-.114-1.316-.239-1.994-.368l.2-.997c.648.129 1.296.254 1.944.364l-.15 1.001zm24.966-.104l-.179-.997c.648-.12 1.296-.249 1.944-.384l.204.972c-.653.174-1.311.304-1.969.424v-.015zm-29.407-.808a78.909 78.909 0 01-1.944-.498l.259-.962c.638.174 1.276.334 1.919.498l-.234.962zm33.803-.144l-.209-.937c.641-.16 1.279-.326 1.914-.499l.269.962c-.658.155-1.306.329-1.954.489l-.02-.015zm-38.139-1.037c-.638-.2-1.271-.404-1.909-.623l.324-.942c.623.214 1.251.418 1.879.613l-.294.952zm42.506-.185l-.304-.947a78.067 78.067 0 001.879-.628l.329.937c-.633.225-1.266.424-1.904.638zm-46.773-1.286c-.623-.239-1.246-.498-1.864-.742l.384-.923a60.89 60.89 0 001.834.733l-.354.932zm51.034-.224l-.364-.927c.613-.239 1.227-.499 1.835-.748l.388.917a53.51 53.51 0 01-1.859.758zm-55.196-1.495a90.735 90.735 0 01-1.814-.858l.439-.897c.593.294 1.191.573 1.789.847l-.414.908zm59.348-.26l-.424-.902a63.688 63.688 0 001.785-.867l.448.892c-.598.279-1.201.568-1.809.852v.025zm-63.39-1.744a38.368 38.368 0 01-1.754-.997l.498-.863c.568.329 1.147.648 1.725.957l-.469.903zm67.422-.299l-.498-.878a36.126 36.126 0 001.725-.997l.498.863c-.553.334-1.136.663-1.725.987v.025zm-71.349-1.989a66.82 66.82 0 01-1.685-1.087l.553-.828c.548.364 1.102.718 1.66 1.067l-.528.848zm75.262-.339l-.538-.843a62.983 62.983 0 001.66-1.086l.558.827c-.573.379-1.137.743-1.68 1.102zm-78.971-2.169a76.84 76.84 0 01-1.615-1.186l.604-.798c.528.399 1.056.793 1.589 1.177l-.578.807zm82.689-.379l-.588-.807a59.917 59.917 0 001.585-1.186l.608.787c-.528.409-1.066.813-1.605 1.206zm-86.292-2.362c-.499-.419-1.027-.853-1.535-1.291l.652-.753c.499.434.997.857 1.496 1.276l-.613.768zm89.856-.419l-.638-.768c.499-.418.997-.852 1.495-1.291l.658.748c-.488.449-1.002.882-1.515 1.311zm-93.261-2.547a33.02 33.02 0 01-1.45-1.381l.698-.713c.498.464.952.917 1.43 1.366l-.678.728zm96.645-.454l-.697-.698c.498-.453.952-.912 1.42-1.381.389-.392.773-.786 1.151-1.181l.723.688c-.384.404-.772.802-1.171 1.196-.464.449-.942.917-1.426 1.376zm-99.854-2.692a87.737 87.737 0 01-1.361-1.495l.743-.668c.438.498.887.997 1.34 1.455l-.722.708zm104.171-1.725l-.743-.662c.439-.499.872-.997 1.296-1.496l.763.638c-.439.489-.878.992-1.346 1.496l.03.024zm-107.162-1.649c-.434-.499-.857-1.037-1.271-1.561l.783-.618c.408.499.827 1.027 1.251 1.54l-.763.639zm110.058-1.815l-.783-.613c.404-.499.803-1.047 1.196-1.575l.798.593c-.409.508-.813 1.042-1.226 1.57l.015.025zm-112.864-1.789a69.458 69.458 0 01-1.166-1.64l.817-.569c.379.544.758 1.082 1.151 1.615l-.802.594zm115.515-1.895l-.822-.563c.369-.548.733-1.097 1.091-1.65l.838.538a42.623 42.623 0 01-1.107 1.695v-.02zm-118.072-1.819a87.545 87.545 0 01-1.057-1.71l.853-.498c.339.563.687 1.126 1.046 1.684l-.842.524zm120.495-1.964l-.858-.499c.339-.568.668-1.141.997-1.714l.872.498c-.334.558-.667 1.137-1.011 1.715zm-122.803-1.924a69.09 69.09 0 01-.947-1.775l.887-.454c.299.584.613 1.167.932 1.75l-.872.479zm124.981-2.029l-.887-.454c.299-.588.588-1.181.872-1.774l.897.428c-.284.599-.593 1.202-.882 1.8zm-127.039-1.994a85.436 85.436 0 01-.828-1.829l.912-.399c.265.603.539 1.206.818 1.804l-.902.424zm128.958-2.089l-.917-.393c.264-.609.498-1.217.757-1.83l.927.369a96.406 96.406 0 01-.767 1.849v.005zm-130.723-2.068c-.244-.623-.498-1.252-.707-1.88l.937-.339c.224.623.458 1.242.697 1.855l-.927.364zm132.397-2.139l-.937-.334c.225-.623.434-1.246.638-1.869l.947.304c-.229.638-.463 1.271-.673 1.899h.025zm-133.942-2.118a85.034 85.034 0 01-.588-1.92l.957-.279c.184.633.379 1.266.578 1.895l-.947.304zm135.298-2.179l-.957-.274c.18-.633.354-1.271.499-1.909l.966.244a37.114 37.114 0 01-.508 1.939zm-136.569-2.163a85.354 85.354 0 01-.463-1.954l.996-.22c.14.648.295 1.291.454 1.93l-.987.244zm137.651-2.213l-.997-.215c.139-.643.274-1.291.394-1.939l.996.185a31.553 31.553 0 01-.368 1.969h-.025zm-138.613-2.204a61.752 61.752 0 01-.339-1.994l.997-.154c.1.653.209 1.306.334 1.954l-.992.194zm139.43-2.238l-.997-.149c.1-.653.19-1.306.269-1.964l.997.124a24.53 24.53 0 01-.244 1.989h-.025zm-140.088-2.228a70.911 70.911 0 01-.209-1.994l.997-.09c.06.658.129 1.316.209 1.969l-.997.115zm140.651-2.258l-.997-.085c.06-.658.105-1.316.145-1.994l.997.06a51.104 51.104 0 01-.145 2.019zm-141.054-2.238a92.542 92.542 0 01-.085-1.994l.997-.025c0 .658.045 1.316.084 1.994l-.996.025zm141.309-2.269l-.997-.024v-1.979h.997v.299c.019.563.009 1.131 0 1.704zm-140.412-2.243h-.997c0-.673 0-1.341.045-1.994l.997.035c-.025.638-.04 1.301-.045 1.959zm139.38-2.238a95.804 95.804 0 00-.11-1.994l.997-.07c.045.668.08 1.336.11 1.994l-.997.07zm-139.206-2.213l-.997-.07c.045-.668.105-1.331.17-1.994l.997.1c-.065.648-.12 1.331-.17 1.964zm138.887-2.228a67.004 67.004 0 00-.229-1.964l.996-.135c.09.668.165 1.331.235 1.994l-1.002.105zm-138.428-2.199l-.997-.134c.09-.663.189-1.326.299-1.994l.997.159c-.115.663-.21 1.316-.299 1.969zm137.83-2.188c-.11-.653-.23-1.301-.354-1.949l.997-.194c.129.658.249 1.316.359 1.993l-1.002.15zM150.012 297.1l-.997-.2c.13-.653.275-1.306.424-1.959l.972.225a44.187 44.187 0 00-.424 1.909l.025.025zm136.215-2.189a37.478 37.478 0 00-.498-1.924l.962-.254c.169.648.334 1.296.498 1.949l-.962.229zm-135.198-2.148l-.962-.254c.17-.648.354-1.291.543-1.934l.957.289a25.147 25.147 0 00-.563 1.874l.025.025zm134.042-2.159a68.48 68.48 0 00-.603-1.884l.947-.319c.214.638.414 1.276.608 1.914l-.952.289zm-132.751-2.098l-.947-.319c.214-.633.439-1.266.673-1.894l.932.349a24.384 24.384 0 00-.683 1.839l.025.025zm131.321-2.119a66.875 66.875 0 00-.718-1.844l.922-.379c.254.623.498 1.246.733 1.874l-.937.349zm-129.786-2.063l-.922-.379c.254-.618.499-1.236.788-1.845l.912.404a45.649 45.649 0 00-.778 1.82zm128.066-2.074a75.3 75.3 0 00-.842-1.795l.897-.433c.294.603.578 1.211.852 1.819l-.907.409zm-126.242-1.994l-.897-.439a74.92 74.92 0 01.907-1.789l.883.463a62.06 62.06 0 00-.893 1.765zm124.283-1.994a74.69 74.69 0 00-.952-1.735l.867-.498c.329.583.653 1.171.967 1.764l-.882.469zm-122.204-1.914l-.862-.499c.329-.583.667-1.156.996-1.729l.853.498c-.324.563-.658 1.132-.987 1.73zm119.991-1.994a76.487 76.487 0 00-1.066-1.675l.837-.543c.369.558.728 1.126 1.076 1.695l-.847.523zM160.09 272.52l-.832-.549c.364-.558.743-1.111 1.127-1.66l.812.574c-.374.553-.748 1.101-1.107 1.65v-.015zm115.197-1.885a74.024 74.024 0 00-1.166-1.605l.797-.598a71.69 71.69 0 011.186 1.625l-.817.578zm-112.645-1.749l-.792-.599c.399-.533.812-1.061 1.231-1.585l.778.623c-.404.549-.808 1.047-1.207 1.576l-.01-.015zm109.943-1.81c-.413-.498-.837-1.022-1.266-1.525l.758-.648c.434.498.862 1.027 1.286 1.545l-.778.628zm-107.161-1.65l-.753-.648c.434-.498.877-.997 1.331-1.495l.738.673c-.436.492-.868.987-1.296 1.485l-.02-.015zm104.266-1.71a63.436 63.436 0 00-1.361-1.435l.718-.698c.468.498.927.967 1.375 1.46l-.732.673zm-101.231-1.555l-.713-.698.588-.593c.28-.279.559-.553.838-.822l.693.717c-.279.265-.554.539-.828.808l-.578.588zm98.115-1.625c-.498-.459-.962-.907-1.445-1.351l.668-.738c.498.449.997.903 1.495 1.366l-.718.723zm-94.9-1.46l-.673-.743a88.52 88.52 0 011.495-1.321l.648.758c-.488.423-.987.862-1.475 1.306h.005zm91.586-1.521a43.248 43.248 0 00-1.525-1.251l.618-.783c.523.419 1.036.843 1.55 1.271l-.643.763zm-88.192-1.361l-.618-.782a55.353 55.353 0 011.595-1.227l.593.798a69.13 69.13 0 00-1.57 1.211zm84.733-1.395a89.951 89.951 0 00-1.605-1.157l.568-.817c.548.383 1.092.772 1.63 1.171l-.593.803zm-81.129-1.262l-.568-.822c.553-.379 1.111-.753 1.669-1.122l.544.838c-.562.359-1.118.728-1.67 1.106h.025zm77.47-1.271a72.307 72.307 0 00-1.674-1.052l.498-.852c.568.349 1.136.703 1.7 1.067l-.524.837zm-73.727-1.151l-.498-.858a43.212 43.212 0 011.739-.997l.499.868c-.628.299-1.192.643-1.765.987h.025zm69.919-1.142a65.302 65.302 0 00-1.739-.942l.458-.882c.594.309 1.182.628 1.765.952l-.484.872zm-66.051-1.042l-.459-.887a85.75 85.75 0 011.795-.897l.433.897c-.603.294-1.181.588-1.769.887zm62.074-.997a82.774 82.774 0 00-1.794-.827l.403-.912c.608.269 1.216.553 1.82.837l-.429.902zm-58.052-.912l-.404-.912a51.981 51.981 0 011.855-.783l.373.923c-.613.244-1.221.498-1.824.767v.005zm53.965-.877a38 38 0 00-1.849-.713l.344-.932c.628.229 1.251.469 1.874.718l-.369.927zm-49.843-.788l-.339-.937a63.432 63.432 0 011.899-.658l.314.947c-.618.205-1.241.424-1.874.648zm45.661-.732a63.216 63.216 0 00-1.884-.594l.279-.952c.643.19 1.281.389 1.919.598l-.314.948zm-41.424-.653l-.284-.958a68.709 68.709 0 011.939-.538l.254.962c-.633.17-1.266.344-1.899.534h-.01zm37.152-.599a63.028 63.028 0 00-1.918-.468l.219-.997c.653.149 1.301.309 1.949.498l-.25.967zm-32.841-.498l-.219-.972c.653-.15 1.311-.284 1.964-.414l.194.997c-.638.09-1.286.224-1.929.369l-.01.02zm28.5-.459a66.687 66.687 0 00-1.949-.344l.16-.997c.658.105 1.321.225 1.994.349l-.205.992zm-24.124-.379l-.159-.997a84.617 84.617 0 011.994-.284l.129.997c-.648.065-1.306.16-1.929.265l-.035.019zm19.728-.314a54.853 54.853 0 00-1.969-.219l.095-.997c.668.065 1.336.135 1.994.219l-.12.997zm-15.302-.269l-.089-.997c.663-.065 1.33-.114 1.993-.159l.065.997c-.653.05-1.311.104-1.969.159zm10.876-.174a83.36 83.36 0 00-1.994-.095l.03-.997c.668 0 1.341.05 1.994.095l-.03.997zm-6.43-.1l-.03-.997c.668 0 1.341-.03 1.994-.03v.997c-.643.005-1.306.015-1.964.035v-.005zm.474 117.577c-.663 0-1.336-.06-1.994-.11l.075-.997c.658.05 1.321.085 1.994.105l-.075 1.002zm4.531-.06l-.06-.997c.653-.04 1.316-.095 1.964-.16l.099.997c-.658.06-1.336.12-2.003.16zm-11.036-.598a69.41 69.41 0 01-1.993-.384l.209-.997a52.7 52.7 0 001.934.374l-.15 1.007zm17.52-.23l-.194-.997a53.07 53.07 0 001.924-.428l.234.972c-.653.184-1.316.319-1.964.448v.005zm-23.87-1.316a41.601 41.601 0 01-1.909-.648l.344-.937c.613.225 1.241.439 1.864.638l-.299.947zm30.18-.393l-.324-.942a57.53 57.53 0 001.849-.683l.364.927a58.67 58.67 0 01-1.889.693v.005zm-36.265-1.994a48.738 48.738 0 01-1.8-.903l.469-.882c.573.304 1.166.603 1.759.882l-.428.903zm42.281-.554l-.448-.887a52.266 52.266 0 001.734-.932l.499.872c-.589.309-1.187.628-1.785.947zm-47.973-2.647a42.226 42.226 0 01-1.66-1.141l.583-.808c.528.379 1.077.758 1.62 1.117l-.543.832zm53.585-.707l-.568-.818a54.795 54.795 0 001.595-1.161l.603.792c-.518.389-1.076.788-1.63 1.172v.015zm-58.789-3.245c-.498-.444-.997-.903-1.495-1.356l.688-.723c.468.444.962.892 1.455 1.326l-.648.753zm63.888-.878l-.677-.733c.498-.448.966-.907 1.425-1.365l.738.673-.035.034c-.454.474-.952.943-1.451 1.391zm-68.518-3.768a46.878 46.878 0 01-1.296-1.546l.777-.628c.414.499.838.997 1.266 1.496l-.747.678zm73.049-.997l-.768-.638c.419-.499.828-.997 1.222-1.541l.797.599a28.166 28.166 0 01-1.246 1.58h-.005zm-77.002-4.207a42.577 42.577 0 01-1.072-1.705l.853-.499c.334.559.688 1.122 1.051 1.67l-.832.534zm80.82-1.107l-.847-.528c.344-.554.678-1.127.997-1.695l.872.498a60.337 60.337 0 01-1.022 1.73v-.005zm-84.03-4.591a42.983 42.983 0 01-.827-1.835l.917-.393c.259.608.528 1.211.807 1.799l-.897.429zm87.08-1.191l-.912-.404c.259-.598.499-1.207.758-1.82l.927.364a36.687 36.687 0 01-.773 1.865v-.005zm-89.477-4.896c-.2-.628-.394-1.276-.568-1.929l.962-.264c.174.643.358 1.276.553 1.894l-.947.299zm91.71-1.251l-.957-.279a55.79 55.79 0 00.499-1.904l.997.234c-.19.658-.359 1.316-.544 1.954l.005-.005zm-93.255-5.094a45.304 45.304 0 01-.299-1.994l.996-.125c.085.643.185 1.301.295 1.949l-.992.17zm94.616-1.311l-.997-.14c.095-.648.175-1.306.244-1.959l.997.1a34.68 34.68 0 01-.244 1.999zm-95.284-5.194v-2.014h.997v1.974l-.997.04zm95.777-1.286h-.996v-.334c0-.549 0-1.092-.03-1.64l.997-.035c.02.558.029 1.116.029 1.675v.334zm-94.566-5.15l-.997-.099c.07-.663.155-1.336.249-1.994l.997.144c-.1.643-.179 1.301-.249 1.949zm93.181-1.271a54.574 54.574 0 00-.294-1.949l.997-.169c.114.658.214 1.33.299 1.993l-1.002.125zm-92.099-5.045l-.967-.234c.154-.648.329-1.306.498-1.944l.957.274c-.164.633-.334 1.276-.488 1.904zm90.843-1.241a47.399 47.399 0 00-.553-1.889l.947-.304c.204.633.393 1.286.568 1.934l-.962.259zm-88.915-4.86l-.927-.369c.245-.623.499-1.246.778-1.854l.912.404a60.93 60.93 0 00-.763 1.824v-.005zm86.821-1.191a51.242 51.242 0 00-.812-1.795l.902-.429c.284.604.563 1.222.828 1.835l-.918.389zm-84.074-4.591l-.867-.499c.328-.583.672-1.166 1.021-1.735l.848.529a51.667 51.667 0 00-1.002 1.71v-.005zm81.169-1.112a47.083 47.083 0 00-1.052-1.67l.832-.548c.369.553.728 1.126 1.072 1.705l-.852.513zm-77.655-4.237l-.793-.603a42.34 42.34 0 011.251-1.575l.768.633a43.843 43.843 0 00-1.226 1.55v-.005zm73.991-.997c-.414-.498-.837-.997-1.266-1.495l.748-.658a43.36 43.36 0 011.296 1.545l-.778.608zm-69.78-3.823l-.692-.703c.468-.464.952-.927 1.435-1.376l.678.733c-.479.418-.947.872-1.406 1.331l-.015.015zm65.439-.878a46.433 46.433 0 00-1.456-1.326l.653-.752c.499.438.997.892 1.496 1.356l-.693.722zm-60.619-3.34l-.603-.792a46.924 46.924 0 011.625-1.186l.568.817c-.533.374-1.071.768-1.59 1.161zm55.689-.762a44.51 44.51 0 00-1.624-1.117l.548-.832c.558.364 1.116.747 1.655 1.136l-.579.813zm-50.341-2.757l-.498-.867a42.918 42.918 0 011.774-.952l.449.887c-.573.314-1.156.613-1.725.932zm44.899-.618a45.139 45.139 0 00-1.76-.882l.429-.902c.603.289 1.206.593 1.799.902l-.468.882zm-39.122-2.138l-.364-.928c.628-.244 1.261-.498 1.889-.697l.324.942c-.613.214-1.236.448-1.849.688v-.005zm33.27-.454a42.915 42.915 0 00-1.864-.633l.299-.952c.643.204 1.281.419 1.904.648l-.339.937zm-27.164-1.495l-.234-.972a54.94 54.94 0 011.963-.434l.195.997a44.41 44.41 0 00-1.924.429v-.02zm21.013-.29a49.087 49.087 0 00-1.938-.368l.169-.997c.663.109 1.326.239 1.994.378l-.225.987zm-14.703-.797l-.105-.997c.668-.07 1.341-.125 1.994-.165l.06.997c-.638.065-1.301.12-1.949.185v-.02zm8.368-.115a41.09 41.09 0 00-1.993-.104l.035-.997c.668 0 1.345.059 1.993.109l-.035.992z" opacity=".6"/><path d="M218.352 352.346a41.463 41.463 0 01-26.31-9.41 41.478 41.478 0 0110.431-70.379 41.468 41.468 0 0157.142 42.379 41.476 41.476 0 01-11.946 25.262 41.193 41.193 0 01-29.317 12.148zm0-81.935a40.459 40.459 0 00-33.652 17.985 40.48 40.48 0 007.976 53.773 40.46 40.46 0 0054.29-2.674 40.469 40.469 0 00-6.131-62.266 40.458 40.458 0 00-22.483-6.818z" opacity=".6"/><path d="M218.127 363.761h-.249a52.716 52.716 0 01-18.636-3.554l-.234-.089.089-.235 8.513-22.023.235.09a28.897 28.897 0 0010.237 1.954h.25l-.205 23.857zm-18.476-3.933a52.096 52.096 0 0017.983 3.43l.194-22.86a29.486 29.486 0 01-9.933-1.895l-8.244 21.325zm66.864-27.127l-21.782-9.74.1-.225a28.908 28.908 0 002.492-10.119v-.249l23.815 1.416v.249a52.759 52.759 0 01-4.486 18.444l-.139.224zm-21.124-9.97l20.869 9.332a52.275 52.275 0 004.347-17.831l-22.823-1.355a29.332 29.332 0 01-2.393 9.83v.024zm-56.078-12.352l-23.849-.608v-.249a52.853 52.853 0 013.872-18.579l.095-.229 22.1 8.973-.094.229a29.03 29.03 0 00-2.124 10.204v.259zm-23.336-1.092l22.853.584a29.46 29.46 0 012.058-9.9l-21.178-8.609a52.18 52.18 0 00-3.733 17.925zm79.479-8.773l-.095-.234a28.729 28.729 0 00-5.482-8.843l-.165-.185 17.694-16.001.17.185a52.48 52.48 0 019.998 16.155l.09.235-22.21 8.688zm-5.034-9.212a29.334 29.334 0 015.313 8.579l21.293-8.325a52.003 52.003 0 00-9.65-15.587l-16.956 15.333zm-42.077-1.455L182.051 272.4l.18-.17a52.612 52.612 0 0115.979-10.278l.229-.09.1.229 8.972 21.839-.23.094a28.624 28.624 0 00-8.752 5.633l-.184.19zm-15.591-17.407l15.616 16.699a29.417 29.417 0 018.473-5.483l-8.693-21.146a52.215 52.215 0 00-15.396 9.915v.015zm47.211 11.834l-.229-.1a29 29 0 00-10.158-2.293h-.25v-.249l.997-23.588h.25a52.714 52.714 0 0118.506 4.192l.229.095-9.345 21.943zm-10.118-2.882c3.388.169 6.722.923 9.854 2.229l8.971-21.031a52.209 52.209 0 00-17.858-4.043l-.967 22.845zm-73.712 41.669a73.759 73.759 0 01-.688-19.067l-8.04-.763v-.249a78.988 78.988 0 017.706-27.317l.11-.219 7.182 3.514a73.21 73.21 0 018.219-13.175l.394.309a72.413 72.413 0 00-8.269 13.31l-.11.224-7.187-3.519a78.365 78.365 0 00-7.501 26.658l8.039.763-.025.249a73.23 73.23 0 00.663 19.187l-.493.095zm123.615-63.607a72.606 72.606 0 00-20.177-14.261l-.234-.11 2.397-4.691a78.325 78.325 0 00-26.536-7.975l-.678 6.006h-.239a73.263 73.263 0 00-34.172 5.434l-.155.065-16.169-16.171h-31.869l-24.154 24.156H13.329v-.498H117.56l24.154-24.156h32.278l16.079 16.08a73.71 73.71 0 0134.013-5.423l.678-6.027.244.03a78.823 78.823 0 0127.179 8.17l.224.11-2.392 4.681a73.026 73.026 0 0120.086 14.251l-.353.329zm-19.947 106.028l-.499-.863a62.378 62.378 0 0022.763-22.77l.868.498a63.516 63.516 0 01-23.132 23.135z" opacity=".6"/><path d="M198.001 370.531a62.418 62.418 0 01-24.219-15.099 63.013 63.013 0 01-4.419-84.196 63.007 63.007 0 0154.439-23.126 62.988 62.988 0 0128.822 9.913 63.012 63.012 0 0128.699 51.723h-.997a61.99 61.99 0 00-98.517-48.91 61.998 61.998 0 0016.511 108.753l-.319.942z" opacity=".6"/><path d="M228.624 377.385l-4.695-29.754.249-.04a36.888 36.888 0 0020.436-10.433l.304-.304 21.283 21.285-.304.304a66.788 66.788 0 01-37.038 18.882l-.235.06zm-4.122-29.321l4.536 28.753a66.339 66.339 0 0036.475-18.658l-20.58-20.583a37.373 37.373 0 01-20.431 10.488zm-53.541 10.608l-.174-.179a66.804 66.804 0 01-18.906-37.018l-.039-.244 16.637-2.642.04.244-.04-.244 13.089-2.083.04.249a36.902 36.902 0 0010.427 20.437l.179.175-21.253 21.305zm-18.551-37.027a66.326 66.326 0 0018.551 36.319l20.55-20.612a37.394 37.394 0 01-10.357-20.273l-28.744 4.566zm102.676-16.45l-.04-.244a36.887 36.887 0 00-10.417-20.363l-.274-.269 21.108-21.111.025.025.174-.175.225.22a66.8 66.8 0 0118.88 36.887l.04.245-.249.039-29.472 4.746zm-10.024-20.871a37.397 37.397 0 0110.437 20.303l28.735-4.611a66.299 66.299 0 00-18.572-36.25l-10.312 10.269-10.288 10.289zm-53.267.498l-21.292-21.29.239-.239a66.83 66.83 0 0136.938-18.848l.245-.035 4.745 29.725-.245.04a36.916 36.916 0 00-20.39 10.423l-.24.224zm-20.58-21.285l20.58 20.582a37.438 37.438 0 0120.306-10.413l-4.59-28.762a66.33 66.33 0 00-36.296 18.588v.005zm47.67 134.365c-.862 0-1.72 0-2.557-.039h-.249l.174-6.157h.25a84.11 84.11 0 002.751.03h.249l.025 6.157h-.643v.009zm-2.293-.528c.803 0 1.61.025 2.438.03l-.025-5.159c-.753 0-1.496 0-2.263-.03l-.15 5.159zm8.344.319l-.444-6.141h.25c.882-.06 1.804-.145 2.736-.244l.249-.025.648 6.121-.244.025c-.967.105-1.959.194-2.946.264h-.249zm.09-5.683l.368 5.15a91.59 91.59 0 002.433-.22l-.543-5.129c-.768.08-1.526.145-2.258.184v.015zm-14.345 5.509l-.249-.025a83.252 83.252 0 01-2.936-.329l-.244-.035.797-6.107.249.035c.898.115 1.815.22 2.722.309h.249l-.588 6.152zm-2.871-.818c.792.1 1.605.195 2.422.274l.499-5.134a89.888 89.888 0 01-2.248-.259l-.673 5.119zm25.918-.07l-1.061-6.061.244-.045c.887-.155 1.799-.329 2.701-.499l.244-.049 1.271 6.006-.239.055c-.952.2-1.929.389-2.906.558l-.254.035zm-.498-5.657l.892 5.084a88.37 88.37 0 002.397-.463l-1.056-5.05c-.728.154-1.476.299-2.213.454l-.02-.025zm9.141 3.713l-1.675-5.922.239-.069a53.722 53.722 0 002.642-.793l.234-.075 1.869 5.867-.234.075c-.942.299-1.899.588-2.836.852l-.239.065zm-1.057-5.578l1.401 4.985c.777-.224 1.565-.459 2.342-.703l-1.57-4.915c-.712.205-1.43.424-2.153.633h-.02zm9.47 2.762l-2.267-5.723.234-.089a89.05 89.05 0 002.542-1.062l.229-.1 2.462 5.648-.229.1a100.7 100.7 0 01-2.736 1.136l-.235.09zm-1.62-5.444l1.899 4.796a91.344 91.344 0 002.263-.937l-2.063-4.731c-.693.309-1.396.603-2.079.872h-.02zm9.7 1.785l-2.836-5.483.219-.115a80.466 80.466 0 002.417-1.306l.215-.125 3.025 5.364-.219.125a66.09 66.09 0 01-2.597 1.405l-.224.135zm-2.133-5.249l2.377 4.576a82.646 82.646 0 002.143-1.161l-2.532-4.487-1.988 1.072zm9.819.793l-3.38-5.145.21-.139c.762-.499 1.525-.997 2.272-1.546l.205-.144 3.549 5.03-.205.144c-.787.553-1.605 1.112-2.442 1.665l-.209.135zm-2.687-4.985l2.831 4.312a69.025 69.025 0 001.994-1.371l-2.991-4.217c-.588.413-1.221.842-1.844 1.256l.01.02zm9.849-.2l-3.878-4.785.195-.155a79.912 79.912 0 002.038-1.709l.259-.225 4.028 4.656-.26.224a79.873 79.873 0 01-2.188 1.835l-.194.159zm-3.175-4.71l3.25 3.988a67.198 67.198 0 001.864-1.566l-3.375-3.903c-.593.489-1.161.977-1.749 1.461l.01.02zm-114.568-2.602l-.17-.18a65.052 65.052 0 01-1.994-2.168l-.169-.185 4.556-4.147.169.184a47.492 47.492 0 001.869 1.994l.17.18-4.431 4.322zm-1.64-2.493a85.873 85.873 0 001.655 1.785l3.723-3.574c-.499-.544-1.037-1.097-1.54-1.66l-3.838 3.449zm-4.192-4.187l-.154-.199a89.614 89.614 0 01-1.785-2.348l-.144-.205 4.984-3.639.144.205a96.528 96.528 0 001.665 2.188l.15.195-4.86 3.803zm-1.391-2.642c.499.658.997 1.311 1.496 1.939l4.057-3.185a87.576 87.576 0 01-1.371-1.805l-4.182 3.051zm-3.738-4.576l-.134-.214a89.085 89.085 0 01-1.541-2.523l-.124-.214 5.308-3.116.125.215c.468.797.952 1.585 1.43 2.343l.135.214-5.199 3.295zm-1.116-2.772c.413.703.842 1.401 1.271 2.084l4.356-2.761a88.703 88.703 0 01-1.176-1.935l-4.451 2.612zm152.239-3.165l-5.448-2.871.115-.219c.424-.798.837-1.621 1.236-2.443l.11-.224 5.542 2.681-.109.225a84.292 84.292 0 01-1.331 2.632l-.115.219zm-4.775-3.076l4.566 2.403c.374-.718.743-1.445 1.096-2.173l-4.645-2.243a81.922 81.922 0 01-1.017 2.004v.009zm-150.724 1.277l-.11-.225a76.358 76.358 0 01-1.276-2.667l-.104-.224 5.602-2.557.1.224c.379.833.777 1.665 1.186 2.493l.11.219-5.508 2.737zm-.827-2.872c.334.728.687 1.466 1.051 2.204l4.616-2.303c-.334-.673-.658-1.361-.997-2.044l-4.67 2.143zm160.064-3.374l-5.707-2.303.09-.23c.339-.837.668-1.699.997-2.562l.085-.234 5.781 2.108-.084.235a91.532 91.532 0 01-1.052 2.751l-.11.235zm-5.059-2.578l4.785 1.93a75 75 0 00.868-2.273l-4.855-1.745c-.249.708-.499 1.44-.798 2.108v-.02zm-157.747.713l-.089-.234a92.615 92.615 0 01-.997-2.791l-.08-.235 5.832-1.994.079.235c.294.867.608 1.744.927 2.592l.09.234-5.762 2.193zm-.533-2.946c.264.768.538 1.541.822 2.303l4.83-1.819c-.264-.708-.498-1.426-.767-2.144l-4.885 1.66zm-2.193-5.483l-.065-.239a72.022 72.022 0 01-.708-2.872l-.054-.244 5.981-1.371.054.245c.2.872.419 1.769.658 2.667l.065.244-5.931 1.57zm-.229-2.991c.184.793.378 1.59.583 2.373l4.984-1.316a83.644 83.644 0 01-.543-2.203l-5.024 1.146zm-1.625-5.693l-.04-.249a85.655 85.655 0 01-.409-2.926l-.035-.244 6.106-.768.03.244c.115.913.244 1.83.384 2.727l.04.244-6.076.972zm.074-2.99c.1.802.215 1.615.339 2.417l5.099-.802a85.08 85.08 0 01-.319-2.249l-5.119.634zm-1.036-5.823v-.249a81.766 81.766 0 01-.115-2.951v-.249l6.151-.135v.249c0 .918.055 1.84.104 2.747v.249l-6.14.339zm.374-2.961c0 .813.049 1.63.094 2.438l5.149-.289c-.035-.748-.065-1.496-.085-2.263l-5.158.114zm168.239-3.713v-.25c0-.912-.05-1.834-.1-2.746v-.244l6.145-.339v.249c.05.957.09 1.954.11 2.951v.249l-6.155.13zm.403-2.772c.04.753.07 1.496.085 2.263l5.159-.104c0-.828-.05-1.645-.09-2.443l-5.154.284zm-162.93.877l-6.161-.264v-.249c.04-.997.105-1.994.179-2.946v-.249l6.136.498v.249c-.07.913-.13 1.835-.169 2.742l.015.219zm-5.638-.762l5.154.234c.035-.748.08-1.495.14-2.258l-5.139-.404c-.065.808-.12 1.625-.155 2.428zm167.626-5.553l-.03-.25a72.57 72.57 0 00-.378-2.721l-.04-.245 6.08-.957.04.245c.155.997.289 1.964.409 2.931l.03.249-6.111.748zm.12-2.802c.115.748.224 1.496.314 2.243l5.124-.623c-.1-.802-.215-1.615-.339-2.422l-5.099.802zm-161.361.912l-6.086-.892.035-.249c.14-.962.299-1.944.499-2.911l.045-.244 6.055 1.096-.044.244a82.973 82.973 0 00-.444 2.712l-.06.244zm-5.522-1.316l5.104.753c.109-.733.234-1.495.368-2.233l-5.079-.922c-.139.802-.274 1.605-.393 2.402zm165.348-4.925l-.055-.239a80.353 80.353 0 00-.653-2.672l-.065-.239 5.956-1.57.06.244c.254.957.499 1.924.708 2.876l.055.245-6.006 1.355zm-.165-2.796c.195.738.374 1.495.544 2.203l5.024-1.141a70.678 70.678 0 00-.583-2.373l-4.985 1.311zm-158.076.957l-5.981-1.495.06-.24c.244-.952.498-1.909.772-2.851l.065-.239 5.917 1.705-.07.239a66.881 66.881 0 00-.713 2.652l-.05.229zm-5.363-1.864l4.984 1.261a93.29 93.29 0 01.589-2.183l-4.955-1.431c-.204.797-.419 1.565-.618 2.353zm161.396-4.237l-.08-.24a82.086 82.086 0 00-.922-2.587l-.09-.234 5.762-2.168.09.234c.349.937.688 1.879.997 2.796l.079.235-5.836 1.964zm-.449-2.767c.264.713.499 1.431.763 2.134l4.889-1.645c-.259-.758-.538-1.536-.822-2.308l-4.83 1.819zm-153.201.997l-5.787-2.099.085-.234c.339-.922.692-1.849 1.056-2.756l.09-.23 5.712 2.293-.09.23c-.339.842-.668 1.704-.997 2.557l-.069.239zm-5.149-2.398l4.855 1.76c.254-.703.528-1.411.802-2.109l-4.785-1.924a83.073 83.073 0 00-.872 2.268v.005zm155.793-3.489l-.104-.229a93.391 93.391 0 00-1.177-2.493l-.114-.224 5.532-2.737.115.22c.443.902.872 1.799 1.271 2.671l.099.225-5.622 2.567zm-.728-2.707c.334.678.663 1.361.997 2.044l4.696-2.134a88.155 88.155 0 00-1.052-2.203l-4.641 2.293zm-146.746.997l-5.548-2.672.11-.224c.428-.892.877-1.78 1.326-2.637l.119-.219 5.448 2.866-.12.219c-.423.808-.837 1.63-1.226 2.443l-.109.224zm-4.895-2.906l4.645 2.243c.329-.673.668-1.351.997-1.994l-4.565-2.402c-.339.697-.703 1.425-1.077 2.153zm148.586-2.722l-.124-.214a88.1 88.1 0 00-1.426-2.348l-.135-.214 5.204-3.285.135.209c.528.843 1.046 1.695 1.535 2.527l.124.215-5.313 3.11zm-.997-2.617c.394.623.788 1.271 1.177 1.934l4.451-2.607c-.404-.688-.833-1.385-1.266-2.083l-4.362 2.756zm-138.787.997l-5.243-3.225.129-.214c.499-.833 1.052-1.67 1.595-2.493l.135-.209 5.129 3.405-.135.209c-.498.748-.997 1.525-1.495 2.308l-.115.219zm-4.555-3.389l4.391 2.701c.404-.643.807-1.281 1.221-1.904l-4.301-2.851c-.429.703-.873 1.391-1.296 2.078l-.015-.024zm9.211-3.385l-4.89-3.739.15-.199a81.017 81.017 0 011.839-2.313l.154-.194 4.76 3.903-.159.194a88.875 88.875 0 00-1.705 2.153l-.149.195zm-4.187-3.838l4.097 3.135a88.03 88.03 0 011.405-1.775l-3.987-3.27c-.513.633-1.022 1.277-1.515 1.91zm9.5-2.458l-4.486-4.217.169-.18a92.425 92.425 0 012.059-2.118l.179-.175 4.337 4.367-.175.175a51.467 51.467 0 00-1.914 1.994l-.169.154zm-3.778-4.237l3.758 3.534c.498-.543 1.047-1.086 1.58-1.625l-3.639-3.659c-.578.584-1.146 1.172-1.699 1.755v-.005zm9.699-1.495l-4.032-4.656.314-.269a75.605 75.605 0 012.278-1.915l.194-.154 3.873 4.785-.195.16a71.364 71.364 0 00-2.103 1.764l-.329.285zm-3.329-4.606l3.379 3.903a71.335 71.335 0 011.879-1.581l-3.25-3.987a84.675 84.675 0 00-2.008 1.68v-.015zm105.467.573l-.205-.15a87.339 87.339 0 00-2.232-1.6l-.205-.139 3.489-5.065.209.14a94.53 94.53 0 012.403 1.719l.199.15-3.658 4.945zm-1.949-1.994c.608.424 1.226.862 1.844 1.316l3.07-4.147a48.63 48.63 0 00-1.993-1.416l-2.921 4.247zm-4.89-2.567l-.214-.13a97.385 97.385 0 00-2.387-1.361l-.22-.119 2.951-5.404.219.12c.843.463 1.705.957 2.562 1.465l.215.125-3.126 5.304zm-2.143-1.81a92.31 92.31 0 011.969 1.127l2.627-4.442a97.58 97.58 0 00-2.114-1.206l-2.482 4.521zm-5.124-2.049l-.224-.104a87.466 87.466 0 00-2.492-1.112l-.229-.1 2.367-5.672.229.099c.893.379 1.8.778 2.687 1.192l.229.105-2.567 5.592zm-2.307-1.58c.682.294 1.375.603 2.063.917l2.168-4.68c-.737-.339-1.495-.668-2.218-.997l-2.013 4.76zm-5.309-1.52l-.234-.08a74.886 74.886 0 00-2.607-.852l-.239-.075 1.814-5.882.24.075c.917.279 1.859.588 2.801.912l.234.08-2.009 5.822zm-2.432-1.341c.718.224 1.44.459 2.148.703l1.685-4.88c-.778-.264-1.555-.499-2.313-.753l-1.52 4.93zm-5.438-.997l-.244-.06a73.877 73.877 0 00-2.682-.583l-.244-.05 1.211-6.036.245.049c.996.195 1.948.409 2.881.628l.244.055-1.411 5.997zm-2.582-1.082c.723.145 1.466.309 2.208.499l1.187-5.02a48.91 48.91 0 00-2.383-.498l-1.012 5.019zm-33.349.633l-1.256-6.031.244-.05a93.784 93.784 0 012.906-.553l.244-.045 1.052 6.066-.245.045c-.887.15-1.794.324-2.701.499l-.244.069zm-.668-5.642l1.056 5.049a76.161 76.161 0 012.228-.423l-.887-5.085c-.817.145-1.62.299-2.407.459h.01zm28.49 4.601l-.244-.035a97.963 97.963 0 00-2.732-.309l-.249-.025.598-6.127h.249c.962.095 1.949.205 2.931.334l.249.03-.802 6.132zm-2.682-.818a93.08 93.08 0 012.253.259l.668-5.114a79.95 79.95 0 00-2.417-.279l-.504 5.134zm-17.001.558l-.663-6.121.244-.03a94.264 94.264 0 012.946-.259h.249l.434 6.141h-.244c-.918.065-1.84.15-2.742.244l-.224.025zm-.095-5.677l.539 5.129c.747-.075 1.495-.14 2.262-.199l-.378-5.145c-.798.06-1.61.13-2.433.215h.01zm11.574 5.249h-.25a73.01 73.01 0 00-2.751-.04h-.249v-6.156h.249c.957 0 1.954 0 2.951.034h.249l-.199 6.162zm-2.712-.544c.735 0 1.477.01 2.228.03l.15-5.154a80.853 80.853 0 00-2.438-.03v5.154h.06z" opacity=".6"/><path d="M183.751 356.918l-.135-.1a66.663 66.663 0 01-2.148-1.705l-1.052 1.246-.189-.159a60.604 60.604 0 01-2.741-2.463l-.185-.169 1.127-1.182c-.27-.259-.544-.498-.808-.792-.264-.294-.638-.643-.952-.997l-1.181 1.146-.17-.184a58.282 58.282 0 01-2.452-2.752l-.159-.189 1.251-1.047a66.001 66.001 0 01-1.545-1.954l-1.306.997-.15-.199a85.93 85.93 0 01-2.123-2.991l-.135-.21 1.361-.897a65.324 65.324 0 01-1.311-2.118l-1.41.827-.125-.214a59.912 59.912 0 01-1.764-3.24l-.115-.225 1.495-.738a51.457 51.457 0 01-1.166-2.492l-.08-.184 2.133-1.531.125.284a54.61 54.61 0 0011.618 17.128 55.981 55.981 0 006.36 5.484l.294.219-2.362 1.401zm-2.343-2.493l.195.16a49.022 49.022 0 002.178 1.744l1.42-.887a56.906 56.906 0 01-6.12-5.319 55.1 55.1 0 01-11.599-17.003l-1.306.937c.369.833.768 1.675 1.182 2.493l.114.219-1.455.763c.498.937.997 1.864 1.495 2.771l1.411-.827.124.219a42.312 42.312 0 001.56 2.492l.14.21-1.366.897c.583.872 1.191 1.74 1.819 2.582l1.306-.997.15.2c.583.777 1.201 1.56 1.839 2.323l.16.189-1.252 1.047a55.42 55.42 0 002.099 2.358l1.181-1.117.175.18c.363.383.732.767 1.111 1.146.379.379.648.638.997.952l.179.175-1.121 1.176c.763.723 1.55 1.431 2.347 2.109l1.037-1.192zm-17.619-50.511l-2.163-1.735-1.815-.284.035-.249a61.65 61.65 0 01.688-3.619l.05-.244 1.615.359a60.14 60.14 0 01.598-2.413l-1.59-.439.065-.244a65.126 65.126 0 011.091-3.519l.085-.235 1.555.539c.274-.793.568-1.57.867-2.328l-1.525-.618.095-.23a53.109 53.109 0 011.495-3.369l.11-.225 1.495.708a58.79 58.79 0 011.131-2.213l-1.44-.788.12-.219a58.664 58.664 0 011.869-3.18l.129-.21 1.386.868c.439-.688.899-1.379 1.381-2.074l-1.336-.942.144-.2a62.109 62.109 0 012.218-2.946l.155-.194 1.271 1.022c.498-.648 1.062-1.286 1.61-1.904l-1.221-1.082.169-.189c.763-.853 1.555-1.7 2.368-2.493l.344-.344 1.146 1.157a63.294 63.294 0 011.814-1.705l-1.086-1.216.184-.165a57.68 57.68 0 012.821-2.373l.195-.154.996 1.281c.653-.499 1.326-.997 1.994-1.496l-.942-1.345.199-.145a57.45 57.45 0 013.076-2.039l.214-.129.862 1.39a63.964 63.964 0 012.149-1.251l-.788-1.435.219-.12a59.8 59.8 0 013.29-1.675l.224-.105.698 1.496a58.885 58.885 0 012.288-.997l-.618-1.521.229-.094a52.767 52.767 0 013.489-1.286l.234-.08.524 1.565a74.843 74.843 0 012.387-.728l-.443-1.595.239-.065a59.37 59.37 0 013.583-.877l.245-.055.344 1.62a52.955 52.955 0 012.452-.453l-.264-1.635.249-.04a60.415 60.415 0 013.658-.464h.25l.154 1.65a53.777 53.777 0 012.492-.174l-.075-1.655h.25a56.657 56.657 0 013.688-.045h.249l-.035 1.904.339 2.323h-.294a54.906 54.906 0 00-55.824 47.57l-.104.394zm-3.41-2.433l1.456.225 1.58 1.271a55.402 55.402 0 0155.978-47.565l-.254-1.785v-1.445c-1.052 0-2.113 0-3.155.039l.07 1.655h-.249c-.997.045-1.994.115-2.956.205h-.249l-.155-1.645a58.607 58.607 0 00-3.135.399l.259 1.635-.244.039a51.12 51.12 0 00-2.916.539l-.244.05-.344-1.615a59.69 59.69 0 00-3.07.752l.443 1.59-.239.065c-.942.264-1.894.554-2.836.873l-.239.074-.524-1.56c-.996.339-1.993.708-2.965 1.102l.618 1.495-.229.09a60.75 60.75 0 00-2.722 1.191l-.224.105-.698-1.495c-.947.448-1.889.932-2.816 1.435l.788 1.436-.22.119c-.877.499-1.734.997-2.562 1.496l-.209.129-.862-1.39a59.305 59.305 0 00-2.632 1.744l.947 1.331-.204.145c-.803.568-1.6 1.161-2.373 1.774l-.194.155-.997-1.281a57.148 57.148 0 00-2.417 2.034l1.086 1.211-.184.169a55.863 55.863 0 00-2.159 2.029l-.174.18-1.146-1.157a50.174 50.174 0 00-2.174 2.288l1.217 1.087-.165.184a59.405 59.405 0 00-1.914 2.264l-.154.194-1.271-.987a72.222 72.222 0 00-1.899 2.522l1.335.942-.144.205a59.541 59.541 0 00-1.64 2.467l-.134.21-1.356-.863a58.266 58.266 0 00-1.6 2.722l1.44.783-.119.219a54.57 54.57 0 00-1.346 2.642l-.11.224-1.495-.713c-.449.947-.877 1.92-1.271 2.887l1.495.618-.094.229a55.724 55.724 0 00-1.032 2.772l-.08.234-1.555-.539a55.478 55.478 0 00-.937 3.016l1.59.439-.065.239a64.569 64.569 0 00-.713 2.871l-.054.245-1.61-.359a60.029 60.029 0 00-.574 3.115zm57.354 68.606h-.249c-1.221 0-2.462-.075-3.683-.164h-.249l.124-1.65a82.658 82.658 0 01-2.492-.254l-.209 1.64-.249-.03a59.133 59.133 0 01-3.639-.584l-.244-.044.309-1.626a57.973 57.973 0 01-2.427-.528l-.394 1.6-.244-.06a58.175 58.175 0 01-3.549-.997l-.235-.074.499-1.576a55.908 55.908 0 01-2.587-.887l-.105-.04-1.281-3.27.539.22a55.007 55.007 0 0070.249-26.501 55.02 55.02 0 00-21.613-71.91l-.214-.119 1.126-2.024.952-1.635.22.125a60.606 60.606 0 013.125 1.954l.209.139-.912 1.361c.678.459 1.361.942 2.034 1.436l.996-1.306.2.149a47.639 47.639 0 012.886 2.298l.189.16-1.057 1.246a52.044 52.044 0 011.855 1.66l1.121-1.192.18.175c.433.409.862.822 1.29 1.251.429.429.883.902 1.311 1.356l.175.184-1.191 1.117a57 57 0 011.654 1.854l1.246-1.051.165.189a61.73 61.73 0 012.293 2.886l.149.2-1.311.997c.499.678.997 1.36 1.436 2.033l1.36-.907.135.21a52.88 52.88 0 011.954 3.13l.124.214-1.42.823c.414.718.812 1.45 1.191 2.188l1.461-.748.114.22a59.619 59.619 0 011.58 3.345l.1.224-1.495.658c.319.748.633 1.495.932 2.313l1.54-.578.09.234a63.088 63.088 0 011.186 3.489l.07.24-1.58.498c.244.808.468 1.615.667 2.403l1.6-.394.06.239c.294 1.187.558 2.398.778 3.609l.045.244-1.625.3c.144.812.269 1.635.384 2.462l1.639-.214.035.244c.155 1.211.279 2.447.359 3.674v.244l-1.655.115c.05.812.085 1.65.105 2.492l1.655-.025v.249c0 1.227 0 2.468-.055 3.684v.249l-1.65-.074c-.04.817-.1 1.65-.179 2.492l1.645.16v.249a63.868 63.868 0 01-.474 3.654l-.04.249-1.635-.264a52.756 52.756 0 01-.458 2.442l1.615.349-.05.244a57.37 57.37 0 01-.887 3.575l-.065.244-1.59-.449a56.167 56.167 0 01-.733 2.378l1.565.528-.08.235a58.355 58.355 0 01-1.29 3.449l-.095.229-1.52-.618a65.044 65.044 0 01-.997 2.273l1.495.698-.105.225a58.097 58.097 0 01-1.679 3.289l-.12.215-1.445-.853a63.964 63.964 0 01-1.251 2.149l1.385.862-.129.215a58.817 58.817 0 01-2.044 3.07l-.144.205-1.331-.947c-.499.667-.997 1.335-1.496 1.993l1.281.997-.154.195a57.556 57.556 0 01-2.378 2.816l-.164.19-1.216-1.092a58.125 58.125 0 01-1.71 1.809l1.157 1.147-.275.279a63.573 63.573 0 01-2.686 2.527l-.19.165-1.116-1.206a75.459 75.459 0 01-1.909 1.6l.997 1.276-.195.154a66.153 66.153 0 01-2.955 2.209l-.205.139-.937-1.336c-.682.474-1.38.932-2.078 1.371l.867 1.386-.214.134a59.365 59.365 0 01-3.185 1.855l-.219.114-.783-1.44c-.733.389-1.495.768-2.218 1.121l.703 1.496-.229.105a69.075 69.075 0 01-3.385 1.495l-.229.09-.613-1.526c-.763.299-1.545.589-2.338.858l.529 1.565-.235.08a59.747 59.747 0 01-3.533 1.076l-.24.065-.433-1.59c-.793.209-1.605.409-2.423.588l.354 1.615-.244.05a50.671 50.671 0 01-3.629.668l-.249.04-.249-1.635c-.827.12-1.66.224-2.492.309l.164 1.645-.244.025a56.693 56.693 0 01-3.683.254h-.249l-.06-1.66c-.823.03-1.66.04-2.492.03l.034 1.645zm-3.643-.648c1.047.075 2.103.12 3.15.14l.025-1.655h.249c.997 0 1.994 0 2.961-.035h.249l.065 1.655a61.685 61.685 0 003.15-.214l-.165-1.65h.25a65.14 65.14 0 002.94-.374l.245-.035.249 1.635a61.727 61.727 0 003.11-.573l-.354-1.611.244-.054a51.49 51.49 0 002.881-.698l.244-.07.429 1.59a63.409 63.409 0 003.026-.922l-.529-1.56.235-.08a50.865 50.865 0 002.786-1.027l.229-.09.608 1.526a49.492 49.492 0 002.901-1.266l-.703-1.496.229-.11a56.4 56.4 0 002.642-1.335l.219-.12.778 1.445a52.443 52.443 0 002.731-1.59l-.867-1.385.214-.13c.833-.499 1.665-1.067 2.493-1.635l.204-.14.937 1.336a57.209 57.209 0 002.527-1.889l-.997-1.276.194-.155a63.558 63.558 0 002.273-1.904l.185-.169 1.081 1.226a68.239 68.239 0 002.398-2.263l-1.152-1.147.175-.179a58.629 58.629 0 002.033-2.154l.17-.184 1.211 1.087a58.413 58.413 0 002.039-2.413l-1.281-.997.154-.194a57.163 57.163 0 001.775-2.373l.144-.204 1.336.947a62.033 62.033 0 001.749-2.627l-1.43-.893.129-.214a96.54 96.54 0 001.496-2.557l.119-.219 1.436.792c.498-.922.997-1.869 1.435-2.816l-1.495-.698.105-.229a58.66 58.66 0 001.191-2.702l.095-.235 1.495.624c.389-.997.763-1.964 1.101-2.956l-1.56-.529.08-.234c.314-.942.608-1.894.867-2.827l.07-.239 1.59.444c.279-.997.533-2.044.758-3.061l-1.615-.349.05-.244c.204-.947.388-1.924.543-2.906l.04-.249 1.635.264a58.84 58.84 0 00.403-3.131l-1.644-.159v-.249a63.35 63.35 0 00.209-2.951v-.25l1.65.075c.045-1.047.06-2.108.05-3.16l-1.66.03v-.25c0-.997-.06-1.994-.125-2.961v-.249l1.65-.109a59.276 59.276 0 00-.309-3.146l-1.645.214-.03-.249a53.35 53.35 0 00-.458-2.926l-.045-.249 1.63-.294a58.487 58.487 0 00-.668-3.091l-1.6.394-.06-.239a57.761 57.761 0 00-.792-2.862l-.07-.239 1.575-.498a87.321 87.321 0 00-.997-2.991l-1.54.578-.09-.234a60.616 60.616 0 00-1.106-2.752l-.1-.229 1.495-.653a56.638 56.638 0 00-1.351-2.861l-1.46.747-.115-.224a59.117 59.117 0 00-1.415-2.602l-.125-.214 1.416-.823a63.172 63.172 0 00-1.67-2.682l-1.361.907-.139-.209a59.738 59.738 0 00-1.705-2.418l-.149-.204 1.311-.997a50.573 50.573 0 00-1.994-2.492l-1.241 1.052-.165-.19a54.2 54.2 0 00-1.969-2.213l-.169-.18 1.186-1.116a61.984 61.984 0 00-2.228-2.233l-1.116 1.186-.185-.169a75.023 75.023 0 00-2.208-1.994l-.189-.16 1.057-1.241a66.938 66.938 0 00-2.493-1.994l-.996 1.306-.2-.15a57.64 57.64 0 00-2.417-1.709l-.209-.14 1.031-1.271a55.63 55.63 0 00-2.681-1.675l-.698 1.196-.887 1.596a55.515 55.515 0 0121.668 72.283 55.51 55.51 0 01-70.414 27.114l.777 1.994c.867.319 1.775.628 2.692.917l.239.075-.499 1.57a50.04 50.04 0 003.041.852l.394-1.6.239.06c.957.234 1.929.443 2.891.628l.244.05-.309 1.62c1.032.194 2.073.364 3.115.498l.209-1.64.25.03c.997.13 1.993.23 2.945.304h.25l-.125 1.675zm101.953-34.988c-9.794 0-17.16-.08-17.405-.324l-.049-.115c-.364-.742-10.901-11.081-17.894-17.855l.344-.359c7.721 7.477 16.827 16.395 17.943 17.945 1.775.419 43.423.11 59.418-.045v.499c-10.392.095-28.74.254-42.357.254zm-200.148-43.208l5.164 1.53-1.336-4.97-3.828 3.44zm1.819-6.137l5.164 1.531-1.336-4.97-3.828 3.439zm1.77-6.385l5.019 1.954-.917-5.065-4.102 3.111zm2.452-6.396l4.845 2.348-.514-5.124-4.331 2.776zM22.146 84.856l-5.338.713 3.25 3.988 2.088-4.7zm.847 6.341l-5.338.713 3.255 3.993 2.083-4.706zm1.002 6.55l-5.378.27 2.906 4.246 2.472-4.516zm.379 6.839l-5.383-.154 2.562 4.461 2.821-4.307zm79.549 171.378h-1.705v-.997h1.112l.149-.264.868.498-.424.763zm-4.177 0h-1.994v-.997h1.994v.997zm-4.486 0h-1.994v-.997h1.994v.997zm-4.486 0h-1.993v-.997h1.993v.997zm-4.486 0h-1.993v-.997h1.993v.997zm-4.485 0h-1.994v-.997h1.994v.997zm-4.83-.404l-.997-1.725.862-.498.997 1.725-.862.498zm28.64-2.517l-.868-.499.997-1.724.867.498-.996 1.725zm-30.903-1.366l-.997-1.725.863-.498.996 1.725-.862.498zm33.125-2.517l-.867-.499.997-1.724.867.498-.997 1.725zm-35.388-1.366l-.997-1.73.863-.498.996 1.729-.862.499zm37.611-2.492l-.867-.499.997-1.73.867.499-.997 1.73zm-39.874-1.371l-.996-1.725.862-.499.997 1.725-.863.499zm42.157-2.538l-.867-.498.997-1.725.867.499-.997 1.724zm-44.36-1.365l-.996-1.73.862-.499.997 1.73-.863.499zm46.583-2.518l-.867-.498.997-1.73.867.499-.997 1.729zm-48.846-1.371l-.996-1.724.862-.499.997 1.725-.863.498zm51.069-2.517l-.867-.498.174-.294-.538-.933.862-.498.828 1.431-.459.792zm-51.452-1.371l-.868-.498.997-1.73.868.499-.997 1.729zm49.02-2.517l-.997-1.73.862-.498.997 1.729-.862.499zm-46.777-1.371l-.868-.498.997-1.725.867.498-.996 1.725zm44.534-2.517l-.997-1.725.862-.498.997 1.724-.862.499zm-42.291-1.366l-.868-.499.997-1.724.867.498-.996 1.725zm40.043-2.527l-.997-1.725.863-.499.996 1.725-.862.499zm-37.806-1.366l-.867-.499.997-1.729.867.498-.997 1.73zm35.563-2.493l-.997-1.729.863-.499.996 1.73-.862.498zm-33.315-1.385l-.867-.499.997-1.725.867.499-.997 1.725zm31.077-2.518l-.997-1.724.863-.499.997 1.725-.863.498zm-28.834-1.366l-.867-.498.997-1.73.867.499-.997 1.729zm27.095-2.148h-1.994v-.997h1.994v.997zm-4.486 0h-1.994v-.997h1.994v.997zm-4.486 0h-1.994v-.997h1.994v.997zm-4.486 0h-1.994v-.997h1.994v.997zm-4.486 0h-1.993v-.997H85.7v.997zm-4.486 0h-1.993v-.997h1.993v.997zm-38.772 13.768h-1.994v-.997h1.994v.997zm-4.486 0h-1.994v-.997h1.994v.997zm-4.486 0h-1.993v-.997h1.993v.997zm-4.486 0h-.368l-1.102-1.909.862-.499.957 1.66-.349.2v.548zm15.417-1.909l-.863-.499.997-1.724.863.498-.997 1.725zm-18.128-2.139l-.997-1.724.862-.499.997 1.725-.862.498zm20.37-1.744l-.862-.499.997-1.729.863.498-.997 1.73zm-22.613-2.139l-.997-1.729.862-.499.997 1.73-.862.498zm24.857-1.749l-.863-.499.997-1.725.862.499-.996 1.725zm-27.1-2.139l-.498-.872.782-1.351.862.498-.498.853.214.374-.862.498zm27.18-1.745l-.998-1.724.868-.499.997 1.725-.868.498zm-24.792-2.138l-.863-.499.997-1.724.862.498-.996 1.725zm22.548-1.745l-.996-1.729.867-.499.997 1.73-.868.498zm-20.305-2.138l-.863-.499.997-1.729.862.498-.997 1.73zm18.063-1.75l-.997-1.725.867-.498.997 1.725-.867.498zm-15.82-2.138l-.863-.499.823-1.426h.922v.997h-.35l-.533.928zm14.34-.928h-1.995v-.997H43v.997zm-4.487 0h-1.993v-.997h1.993v.997zm-4.486 0h-1.993v-.997h1.994v.997zM-16.273 321.75h-1.993v-.997h1.993v.997zm-4.486 0h-1.993v-.997h1.993v.997zm-4.485 0h-1.994v-.997h1.994v.997zm-4.486 0h-1.994v-.997h1.994v.997zm-4.486 0h-1.994v-.997h1.994v.997zm-4.486 0h-1.994v-.997h1.994v.997zm-4.486 0h-1.993v-.997h1.993v.997zm-4.486 0h-1.993v-.997h1.993v.997zm-4.485 0h-1.994v-.997h1.994v.997zm38.114-1.456l-.862-.499.997-1.724.862.498-.997 1.725zm-42.311-.05l-.997-1.73.867-.498.997 1.73-.867.498zm44.554-3.833l-.862-.499.997-1.724.862.498-.997 1.725zm-46.797-.055l-.997-1.725.867-.498.997 1.725-.867.498zm49.04-3.828l-.862-.499.997-1.73.862.499-.997 1.73zm-51.283-.055l-.997-1.73.867-.498.997 1.729-.867.499zm53.526-3.834l-.862-.498.997-1.725.862.499-.997 1.724zm-55.769-.054l-.997-1.725.867-.499.997 1.725-.867.499zm58.012-3.824l-.867-.498.997-1.73.862.499-.992 1.729zm-60.255-.055l-.997-1.724.868-.499.996 1.725-.867.498zm62.498-3.833l-.862-.498.996-1.725.863.498-.997 1.725zm-64.74-.055l-.998-1.724.868-.499.996 1.725-.867.498zm66.983-3.828l-.863-.498.997-1.725.863.498-.997 1.725zm-69.227-.055l-.997-1.725.868-.498.997 1.725-.868.498zm71.47-3.833l-.863-.499.997-1.724.863.498-.997 1.725zm-73.713-.05l-.996-1.73.867-.498.997 1.73-.868.498zM3.9 289.219l-.863-.499.997-1.725.862.499-.996 1.725zm-78.198-.055l-.997-1.725.867-.498.997 1.724-.867.499zm77.829-3.843l-.997-1.73.867-.499.997 1.73-.867.499zm-77.42-.055l-.863-.499.997-1.729.862.498-.997 1.73zm75.177-3.834l-.997-1.724.867-.499.997 1.725-.867.498zm-72.935-.054l-.862-.499.997-1.725.862.499-.997 1.725zm70.692-3.819l-.997-1.71.867-.498.997 1.73-.867.478zm-68.449-.055l-.862-.498.997-1.725.862.499-.997 1.724zm66.206-3.833l-.997-1.725.867-.498.997 1.725-.867.498zm-63.963-.05l-.862-.498.996-1.73.863.498-.997 1.73zm61.72-3.833l-.997-1.725.867-.498.997 1.724-.867.499zm-59.477-.055l-.862-.498.996-1.725.863.498-.997 1.725zm57.244-3.853l-.997-1.725.868-.498.996 1.724-.867.499zm-54.991-.05l-.863-.499.997-1.729.863.498-.997 1.73zm52.738-3.813l-.997-1.725.868-.499.997 1.725-.868.499zm-50.505-.055l-.863-.499.997-1.725.862.499-.996 1.725zm48.262-3.829l-.997-1.729.868-.499.997 1.73-.868.498zm-46.02-.054l-.862-.499.997-1.73.862.499-.996 1.73zm43.777-3.834l-.996-1.725.184-.104h-1.949v-.997h1.994v.972l.638-.369.997 1.725-.868.498zm-41.533-.055l-.863-.498.997-1.725.862.499-.996 1.724zm36.29-1.769h-1.994v-.997h1.994v.997zm-4.486 0h-1.994v-.997h1.994v.997zm-4.486 0h-1.993v-.997h1.993v.997zm-4.486 0h-1.993v-.997h1.993v.997zm-4.485 0h-1.994v-.997h1.994v.997zm-4.486 0h-1.994v-.997h1.994v.997zm-4.486 0h-1.994v-.997h1.994v.997zm-4.486 0h-1.994v-.997h1.994v.997zm237.454-53.338h-1.993v-.997h1.993v.997zm-4.485 0h-1.994v-.997h1.994v.997zm-4.486 0h-1.994v-.997h1.994v.997zm-4.486 0h-1.994v-.997h1.994v.997zm-4.486 0h-1.994v-.997h1.994v.997zm-4.745-.553l-.997-1.725.868-.498.996 1.725-.867.498zm24.921-.877l-.862-.499.997-1.73.862.499-.997 1.73zm-27.174-2.991l-.997-1.725.868-.498.997 1.724-.868.499zm29.407-.883l-.862-.498.997-1.725.862.499-.997 1.724zm-31.66-2.99l-.996-1.73.867-.499.997 1.73-.868.499zm33.893-.883l-.862-.498.997-1.73.862.499-.997 1.729zm-36.146-2.991l-.996-1.724.867-.499.997 1.725-.868.498zm38.379-.882l-.862-.498.997-1.725.862.498-.997 1.725zm-40.631-2.991l-.997-1.73.867-.498.997 1.73-.867.498zm42.864-.882l-.862-.499.997-1.729.862.498-.997 1.73zm-45.117-2.991l-.359-.623.922-1.6.867.498-.638 1.102.075.125-.867.498zm45.97-.952l-.997-1.725.862-.498.997 1.724-.862.499zm-43.234-2.991l-.867-.498.997-1.725.867.498-.997 1.725zm40.991-.882l-.997-1.725.862-.499.997 1.725-.862.499zm-38.748-2.991l-.867-.499.997-1.729.867.498-.997 1.73zm36.505-.902l-.997-1.73.862-.499.997 1.73-.862.499zm-34.262-2.991l-.867-.499.996-1.725.868.499-.997 1.725zm32.019-.883l-.997-1.724.862-.499.997 1.725-.862.498zm-29.776-2.991l-.867-.498.996-1.73.868.499-.997 1.729zm27.533-.892l-.997-1.73.862-.498.997 1.73-.862.498zm-25.29-2.991l-.868-.498.753-1.301h1.067v.997h-.499l-.453.802zm23.381-.802h-1.994v-.997h2.283l.239.419-.528.309v.269zm-4.486 0h-1.994v-.997h1.994v.997zm-4.486 0h-1.993v-.997h1.993v.997zm-4.486 0h-1.993v-.997h1.993v.997zm-4.485 0h-1.994v-.997h1.994v.997z" opacity=".6"/><path d="M118.158 323.195l-36.36-36.364H-99.116v-.498H82.007l36.505 36.513-.354.349zm112.251-124.441l-21.637-21.639V51.035h.498V176.91l21.493 21.489-.354.354z" opacity=".6"/></g></svg>