<svg width="676" height="575" fill="none" xmlns="http://www.w3.org/2000/svg"><g style="mix-blend-mode:luminosity" opacity=".6" clip-path="url(#clip0_5_105)" fill="#D4CEFF"><path d="M540.968 263.205v6.548l5.628-3.277-5.628-3.271zm7.125 0v6.548l5.628-3.277-5.628-3.271zm7.132 0v6.548l5.629-3.277-5.629-3.271zm7.133 0v6.548l5.628-3.277-5.628-3.271zm7.125 0v6.548l5.635-3.277-5.635-3.271zm7.132 0v6.548l5.628-3.277-5.628-3.271zm7.133 0v6.548l5.628-3.277-5.628-3.271zm7.132 0v6.548l5.628-3.277-5.628-3.271zm7.125 0v6.548l5.636-3.277-5.636-3.271zm-230.381-29.283a50.5 50.5 0 01-32.036-11.514 50.607 50.607 0 01-12.44-62.939 50.536 50.536 0 0125.242-22.856 50.485 50.485 0 0134-1.643 50.535 50.535 0 0127.324 20.318 50.604 50.604 0 01-6.327 63.845 50.382 50.382 0 01-16.407 10.968 50.33 50.33 0 01-19.356 3.821zm0-100.421a49.781 49.781 0 00-31.595 11.332 49.862 49.862 0 00-17.241 28.821 49.899 49.899 0 004.94 33.227 49.827 49.827 0 0024.878 22.548 49.766 49.766 0 0033.522 1.634 49.822 49.822 0 0026.948-20.023 49.9 49.9 0 008.141-32.59 49.877 49.877 0 00-14.363-30.361 49.65 49.65 0 00-35.23-14.588z" opacity=".6"/><path d="M381.464 261.181l-8.37-46.104.353-.065a31.933 31.933 0 0016.934-8.911 32.336 32.336 0 005.758-7.816l.166-.317 41.405 21.798-.173.317a79.12 79.12 0 01-23.148 26.944 79.02 79.02 0 01-32.594 14.089l-.331.065zm-7.535-45.514l8.111 44.664a78.304 78.304 0 0031.93-13.882 78.394 78.394 0 0022.768-26.358l-40.124-21.136a33.068 33.068 0 01-5.714 7.679 32.673 32.673 0 01-16.971 9.033zm-58.427 27.072l-.266-.237a88.405 88.405 0 01-3.462-3.264 79.084 79.084 0 01-23.129-55.887 79.087 79.087 0 016.011-30.246 79.028 79.028 0 0117.118-25.641 79.174 79.174 0 017.125-6.325l.288-.223 28.882 36.84-.288.223a32.234 32.234 0 00-12.29 23.421 32.235 32.235 0 009.368 24.737c.461.454.936.908 1.44 1.333l.23.273-31.027 34.996zm3.599-120.807a78.363 78.363 0 00-21.882 27.307 78.452 78.452 0 00-7.821 34.119 77.858 77.858 0 005.906 29.975 77.806 77.806 0 0016.981 25.387 82.798 82.798 0 003.16 2.989l30.084-33.966c-.403-.36-.792-.72-1.173-1.116a32.96 32.96 0 010-46.587 35.99 35.99 0 012.706-2.428l-27.961-35.68zm78.067 48.539l-.144-.324a32.341 32.341 0 00-21.706-18.082l-.346-.086 11.163-45.471.353.087a79.129 79.129 0 0131.67 16.036 79.234 79.234 0 0121.488 28.274l.144.332-42.622 19.234zm-21.296-19.018a33.007 33.007 0 0112.835 6.61 33.048 33.048 0 018.792 11.457l41.341-18.644a78.43 78.43 0 00-21.127-27.692 78.35 78.35 0 00-31.024-15.804l-10.817 44.073z" opacity=".6"/><path d="M368.761 229.441l-.129-5.043h.719l.202 5.043h-.792zm-3.044 0l-.763-.086.288-5.043.676.036-.201 5.093zm6.837-.223l-.54-5.043.677-.079.619 5.043-.756.079zm-10.63-.087l-.72-.1.72-4.993.669.087-.669 5.006zm14.394-.475l-.943-4.956.663-.13 1.022 4.935-.742.151zm-18.144-.151l-.72-.166 1.116-4.913.655.144-1.051 4.935zm21.851-.721l-1.353-4.913.655-.187 1.439 4.834-.741.266zm-25.543-.209l-.72-.223 1.512-4.812.647.202-1.439 4.833zm29.163-.965l-1.749-4.726.633-.245 1.828 4.705-.712.266zm-32.762-.266l-.719-.289 1.907-4.668.626.252-1.814 4.705zm36.281-1.204l-2.159-4.567.619-.295 2.21 4.531-.67.331zm-39.764-.331l-.72-.338 2.325-4.481.605.295-2.21 4.524zm43.14-1.441l-2.505-4.372.583-.346 2.584 4.322-.662.396zm-46.487-.381l-.647-.397 2.648-4.322.576.346-2.577 4.373zm49.704-1.657l-2.879-4.15.554-.389 2.937 4.099-.612.44zm-52.885-.425l-.619-.454 3.001-4.063.547.396-2.929 4.121zm55.929-1.873l-3.195-3.89.525-.44 3.261 3.847-.591.483zm-58.908-.483l-.576-.497 3.296-3.825.518.446-3.238 3.876zm61.773-2.067l-3.505-3.602c.165-.152.324-.317.482-.476l3.649 3.487-.094.093-.532.498zm-64.573-.512l-.518-.519 3.598-3.515c.151.158.303.317.461.468l-3.541 3.566zm67.265-2.32l-3.793-3.313.439-.519 3.85 3.256-.496.576zm-69.813-.482l-.489-.584 3.893-3.205.432.525-3.836 3.264zm72.224-2.486l-4.052-2.996.395-.541 4.103 2.918a6.386 6.386 0 00-.497.619h.051zm-74.57-.518l-.439-.627 4.145-2.881.389.554-4.095 2.954zm76.7-2.637l-4.318-2.644.352-.576 4.319 2.572-.353.648zm-78.787-.555l-.439-.669 4.368-2.515.346.584-4.275 2.6zm80.608-2.766l-4.491-2.283.302-.605 4.527 2.211c-.122.223-.237.454-.353.677h.015zm-82.465-.583l-.324-.685 4.556-2.161c.1.202.194.411.295.613l-4.527 2.233zm84.048-2.882l-4.671-1.894c.087-.209.166-.418.252-.634l4.7 1.822-.281.706zm-85.574-.605a21.904 21.904 0 01-.274-.72l4.707-1.758c.08.209.159.418.245.634l-4.678 1.844zm86.855-2.975l-4.807-1.506c.072-.216.136-.432.201-.648l4.829 1.441c-.086.23-.158.49-.237.713h.014zm-88.086-.634c-.072-.245-.144-.49-.209-.72l4.851-1.355c.058.216.123.433.187.649l-4.829 1.426zm89.08-3.04l-4.916-1.109c.05-.224.101-.44.144-.663l4.93 1.023c-.072.252-.122.497-.18.749h.022zm-90.03-.656a19.628 19.628 0 01-.151-.72l4.944-.958c.044.223.087.447.137.67l-4.93 1.008zm90.684-3.097l-4.987-.721.086-.677 5.002.62c-.029.274-.065.526-.101.778zm-91.31-.663c0-.252-.065-.504-.094-.756l5.038-.541c0 .231.051.454.08.678l-5.024.619zm91.685-3.126l-5.038-.281v-.678l5.038.202a5.46 5.46 0 010 .757zm-92.002-.67v-.721l5.038-.122v.677l-5.038.166zm87.021-3.004v-.678l5.038-.216v.764l-5.038.13zm-81.99-.591l-5.038-.209c0-.252 0-.504.036-.764l5.038.289c-.014.23-.021.453-.036.684zm81.789-2.795c0-.223-.051-.447-.079-.677l5.038-.627.086.756-5.045.548zm-81.479-.591l-5.002-.619c0-.253.064-.505.1-.757l4.988.721-.086.655zm80.975-2.766c-.043-.223-.086-.44-.137-.663l4.93-1.037c.058.245.101.497.151.72l-4.944.98zm-80.421-.584l-4.937-1.023c.05-.252.108-.497.165-.72l4.909 1.109a4.295 4.295 0 00-.166.634h.029zm79.636-2.715a15.69 15.69 0 00-.187-.656l4.83-1.441.216.721-4.859 1.376zm-78.816-.57l-4.829-1.44c.072-.245.151-.483.223-.721l4.808 1.513a4.526 4.526 0 00-.23.648h.028zm77.773-2.658l-.245-.634 4.693-1.837.273.721-4.721 1.75zm-76.672-.547l-4.699-1.83.28-.72 4.664 1.901a6.995 6.995 0 00-.273.649h.028zm75.355-2.579c-.094-.209-.195-.411-.295-.613l4.527-2.225.331.72-4.563 2.118zm-74.001-.526l-4.527-2.212c.115-.23.223-.461.338-.72l4.491 2.291-.302.641zm72.403-2.485l-.345-.584 4.318-2.593.389.662-4.362 2.515zm-70.82-.505l-4.318-2.579c.129-.223.266-.439.395-.655l4.283 2.658-.36.576zm69.006-2.37l-.388-.554 4.088-2.94.446.627-4.146 2.867zm-67.156-.468l-4.103-2.925.446-.612 4.052 3.004-.395.533zm65.112-2.204l-.439-.519 3.836-3.271.49.584-3.887 3.206zm-63.032-.433l-3.844-3.256.497-.583 3.793 3.328c-.151.137-.281.31-.446.483v.028zm60.765-2.096c-.144-.144-.28-.288-.432-.432l-.05-.058 3.599-3.602.05.058c.166.159.324.317.482.483l-3.649 3.551zm-58.441-.461l-3.598-3.537h.036c.165-.173.331-.339.503-.504l3.505 3.602-.446.439zm55.973-1.909l-.511-.439 3.253-3.847.576.49-3.318 3.796zm-53.511-.367l-3.268-3.84.583-.49 3.203 3.89-.518.44zm50.869-1.758l-.547-.396 2.93-4.106.611.446-2.994 4.056zm-48.221-.331l-2.907-4.099.626-.44 2.879 4.142c-.202.13-.389.26-.569.397h-.029zm45.4-1.564l-.583-.353 2.577-4.322.647.396-2.641 4.279zm-42.535-.302l-2.591-4.322.662-.382 2.512 4.365-.583.339zm39.584-1.362l-.604-.295 2.202-4.538.72.338-2.318 4.495zm-36.605-.223l-2.216-4.524.719-.331 2.159 4.56-.662.295zm33.554-1.145l-.605-.296 1.814-4.697c.235.087.475.18.719.281l-1.928 4.712zm-30.452-.217l-1.821-4.732.72-.274 1.763 4.726-.662.28zm27.263-.929l-.648-.202 1.44-4.833.72.223-1.512 4.812zm-24.046-.209l-1.439-4.833.72-.217 1.346 4.863-.627.187zm20.786-.72l-.662-.144 1.029-4.942.72.166-1.087 4.92zm-17.496-.13l-1.03-4.934.72-.152.957 4.957c-.216.05-.439.1-.662.144l.015-.015zm14.164-.482l-.67-.087.612-5.007.72.101-.662 4.993zm-10.796-.072l-.626-5.007.719-.087.54 5.043-.633.051zm7.442-.26h-.677l.202-5.042h.763l-.288 5.042zm-4.067 0l-.208-5.042h.762l.123 5.042h-.677zm1.706 64.589h-1.526l.281-5.763h.36a17.614 17.614 0 005.527-.59l.346-.094 1.497 5.569-.353.093a23.717 23.717 0 01-6.132.785zm-.777-.72a22.84 22.84 0 006.376-.72l-1.122-4.179a18.233 18.233 0 01-5.038.541l-.216 4.358zm-4.894.043l-.31-.101a23.346 23.346 0 01-6.729-2.96l-.302-.195 3.116-4.848.302.195a17.71 17.71 0 005.038 2.24l.353.086-1.468 5.583zm-6.384-3.472a22.726 22.726 0 005.873 2.593l1.101-4.185a17.962 17.962 0 01-4.635-2.039l-2.339 3.631zm22.455 1.743l-2.62-5.129.317-.165a17.703 17.703 0 004.491-3.271l.266-.274.252-.259 4.16 3.984-.252.259-.352.36a23.631 23.631 0 01-5.938 4.322l-.324.173zm-1.655-4.819l1.964 3.847a22.713 22.713 0 005.535-4.121l-3.123-2.989a18.747 18.747 0 01-4.376 3.256v.007zm-25.061.67l-.345-.339a23.675 23.675 0 01-4.275-5.835l-.166-.317 5.117-2.651.166.317a17.7 17.7 0 003.224 4.409l.324.317-4.045 4.099zm-3.807-6.188a22.942 22.942 0 003.8 5.172l3.037-3.083a18.473 18.473 0 01-3.008-4.077l-3.829 1.988zm39.958 1.909l-4.894-3.04.195-.31a17.721 17.721 0 002.159-5.115l.086-.345 5.592 1.376-.086.345a23.392 23.392 0 01-2.879 6.786l-.173.303zm-3.9-3.278l3.663 2.284a22.624 22.624 0 002.49-5.915l-4.196-1.037a18.089 18.089 0 01-1.957 4.661v.007zm-38.563-2.881l-.093-.346a23.573 23.573 0 01-.842-6.267v-1.398l5.757.252v1.146a17.864 17.864 0 00.634 4.74l.093.353-5.549 1.52zm-.209-7.262v.649c-.002 1.943.24 3.879.72 5.763l4.167-1.146a18.473 18.473 0 01-.568-4.581v-.454l-4.319-.231zm46.372 1.801l-5.758-.194v-.915a18 18 0 00-.72-4.92l-.1-.346 5.534-1.585.101.346c.604 2.108.912 4.29.914 6.483v.793l.029.338zm-5.038-.893l4.318.144v-.403a22.84 22.84 0 00-.792-5.965l-4.152 1.188c.413 1.559.623 3.164.626 4.777.029.108-.007.194-.007.281l.007-.022zm-35.849-4.373l-5.578-1.441.086-.345a23.602 23.602 0 012.93-6.757l.194-.303 4.851 3.098-.187.302a17.711 17.711 0 00-2.188 5.158l-.108.288zm-4.7-1.952l4.182 1.081a18.12 18.12 0 012.015-4.647l-3.642-2.327a22.684 22.684 0 00-2.533 5.915l-.022-.022zm37.951-1.938l-.173-.317a17.973 17.973 0 00-3.138-4.236l-.461-.453 4.009-4.143.518.519a23.394 23.394 0 014.153 5.612l.173.317-5.081 2.701zm-2.764-5.042a18.471 18.471 0 013.052 4.048l3.814-2.024a22.772 22.772 0 00-3.85-5.122l-3.016 3.098zm-26.111.857l-4.124-4.02.439-.447a23.807 23.807 0 015.707-4.214l.324-.165 2.677 5.107-.324.166a17.725 17.725 0 00-4.318 3.184l-.381.389zm-3.081-4.034l3.095 3.018a18.509 18.509 0 014.059-3.026l-2.008-3.825a22.65 22.65 0 00-5.146 3.833zm25.845 1.34l-.302-.195a17.899 17.899 0 00-5.103-2.161l-.345-.087 1.439-5.59.346.094a23.275 23.275 0 016.765 2.881l.302.195-3.102 4.863zm-4.879-2.983a18.509 18.509 0 014.656 1.988l2.274-3.652a22.74 22.74 0 00-5.901-2.521l-1.029 4.185zm-10.076.829l-1.533-5.547.345-.101a23.62 23.62 0 017.291-.857h.36l-.216 5.763h-.36a17.625 17.625 0 00-5.52.655l-.367.087zm-.67-5.043l1.166 4.164a18.57 18.57 0 015.038-.591l.158-4.322a23.03 23.03 0 00-6.369.742l.007.007zm5.168 152.598c-.965 0-1.929 0-2.879-.05l.043-1.441c.957 0 1.907.043 2.879.05l-.043 1.441zm3.598-.036v-1.441c.95 0 1.908-.05 2.879-.093l.065 1.44c-1 .044-1.965.072-2.929.094h-.015zm-10.112-.173c-.964-.057-1.921-.115-2.878-.194l.108-1.441c.957.072 1.907.137 2.878.187l-.108 1.448zm16.633-.144l-.101-1.441c.96-.062 1.92-.141 2.879-.237l.137 1.44c-.986.101-1.951.18-2.915.253v-.015zm-23.124-.374a138.99 138.99 0 01-2.879-.339l.18-1.441c.95.123 1.9.231 2.878.332l-.179 1.448zm29.609-.26l-.173-1.441c.943-.122 1.893-.245 2.836-.381l.208 1.44c-.957.152-1.914.281-2.871.397v-.015zm-36.065-.583c-.96-.144-1.92-.303-2.879-.476l.252-1.441c.943.173 1.878.325 2.821.476l-.194 1.441zM390 311.91l-.245-1.44c.943-.166 1.879-.339 2.822-.526l.273 1.44c-.979.195-1.9.375-2.85.541v-.015zm-48.941-.792c-.942-.195-1.885-.404-2.821-.62l.324-1.44c.928.216 1.857.417 2.793.612l-.296 1.448zm55.303-.483l-.316-1.441c.935-.208 1.864-.432 2.785-.662l.353 1.397c-.907.288-1.85.505-2.793.721l-.029-.015zm-61.636-.994a181.9 181.9 0 01-2.793-.756l.389-1.391c.921.26 1.843.512 2.764.721l-.36 1.426zm67.956-.598l-.382-1.39a98.132 98.132 0 002.749-.8l.418 1.383c-.9.296-1.828.562-2.757.822l-.028-.015zm-74.189-1.167a209.15 209.15 0 01-2.749-.893l.461-1.369c.906.312 1.813.608 2.72.886l-.432 1.376zm80.45-.72l-.453-1.362a118.61 118.61 0 002.706-.943l.489 1.361c-.914.317-1.821.634-2.742.944zm-86.603-1.398a94.684 94.684 0 01-2.707-1.037l.533-1.34c.885.353 1.778.72 2.67 1.023l-.496 1.354zm92.735-.821l-.525-1.347c.892-.346 1.777-.721 2.655-1.073l.555 1.332c-.893.375-1.785.735-2.685 1.088zm-98.774-1.592a98.133 98.133 0 01-2.648-1.167l.597-1.311c.871.396 1.742.778 2.62 1.16l-.569 1.318zm104.791-.937l-.59-1.311c.871-.396 1.741-.792 2.598-1.203l.626 1.297c-.907.418-1.763.821-2.641 1.217h.007zm-110.714-1.736c-.864-.425-1.727-.857-2.584-1.296l.662-1.283c.85.44 1.699.865 2.555 1.283l-.633 1.296zm116.594-1.051l-.655-1.283c.849-.432 1.691-.879 2.533-1.332l.684 1.267c-.856.426-1.677.872-2.569 1.312l.007.036zm-122.352-1.953a68.78 68.78 0 01-2.519-1.44l.72-1.247c.82.483 1.655.951 2.483 1.441l-.684 1.246zm128.11-1.159l-.72-1.254c.828-.475 1.648-.958 2.469-1.441l.719 1.225c-.863.454-1.669.951-2.504 1.434l.036.036zm-133.702-2.162l-2.44-1.556.785-1.203c.799.519 1.605 1.03 2.411 1.535l-.756 1.224zm139.258-1.282l-.777-1.21a128.22 128.22 0 002.389-1.585l.806 1.196c-.815.543-1.631 1.076-2.447 1.599h.029zm-144.663-2.283c-.792-.548-1.576-1.11-2.361-1.672l.85-1.167c.77.562 1.547 1.11 2.324 1.65l-.813 1.189zm150.082-1.398l-.842-1.167c.778-.555 1.548-1.124 2.311-1.7l.87 1.145c-.834.584-1.633 1.16-2.396 1.722h.057zm-155.394-2.399a145.804 145.804 0 01-2.267-1.786l.9-1.124a71.28 71.28 0 002.245 1.765l-.878 1.145zm160.54-1.505l-.899-1.131c.748-.601 1.49-1.206 2.224-1.816l.921 1.11c-.739.595-1.488 1.195-2.246 1.8v.037zm-165.592-2.587a106.425 106.425 0 01-2.159-1.901l.957-1.074c.71.634 1.43 1.261 2.159 1.88l-.957 1.095zm170.573-1.62l-.95-1.081c.719-.627 1.439-1.268 2.159-1.916l.979 1.059c-.734.619-1.454 1.268-2.174 1.887l-.014.051zm-175.438-2.724a88.25 88.25 0 01-2.087-2.002l1.007-1.03c.684.67 1.368 1.332 2.066 1.981l-.986 1.051zm180.21-1.707l-1.001-1.037 1.173-1.16.85-.857 1.029 1.008-.857.865c-.381.36-.777.756-1.18 1.145l-.014.036zm-184.845-2.881c-.67-.721-1.332-1.398-1.987-2.111l1.058-.973c.648.721 1.303 1.391 1.965 2.082l-1.036 1.002zm189.393-1.794l-1.036-1.03c.647-.721 1.288-1.441 1.921-2.125l1.08.958a56.793 56.793 0 01-1.95 2.175l-.015.022zm-193.805-3.011c-.633-.721-1.267-1.441-1.886-2.212l1.109-.922c.611.72 1.23 1.441 1.864 2.161l-1.087.973zm198.123-1.873l-1.101-.93c.612-.72 1.217-1.44 1.807-2.204l1.123.901a119.8 119.8 0 01-1.814 2.211l-.015.022zm-202.269-3.177a91.283 91.283 0 01-1.77-2.298l1.144-.865c.576.764 1.159 1.52 1.756 2.27l-1.13.893zm206.343-1.924l-1.144-.871c.575-.757 1.144-1.527 1.705-2.291l1.159.843c-.568.778-1.144 1.549-1.727 2.319h.007zm-210.265-3.292a107.754 107.754 0 01-1.655-2.384l1.194-.807c.533.792 1.08 1.578 1.634 2.356l-1.173.835zm214.08-1.981l-1.195-.814c.54-.785 1.072-1.577 1.59-2.377l1.202.785c-.539.785-1.072 1.607-1.597 2.406zm-217.715-3.436a226.102 226.102 0 01-1.533-2.464l1.231-.72c.497.814 1 1.628 1.519 2.435l-1.217.749zm221.241-2.024l-1.223-.721c.496-.814.986-1.628 1.439-2.449l1.245.72c-.475.8-.971 1.629-1.475 2.45h.014zm-224.623-3.566c-.475-.843-.943-1.686-1.44-2.536l1.267-.684c.453.835.914 1.671 1.389 2.507l-1.216.713zm227.869-2.068l-1.267-.72c.461-.836.907-1.678 1.346-2.529l1.274.663a78.478 78.478 0 01-1.353 2.586zm-230.95-3.688a88.09 88.09 0 01-1.274-2.601l1.296-.619c.41.864.835 1.722 1.267 2.572l-1.289.648zm233.908-2.103l-1.303-.627c.418-.857.821-1.722 1.217-2.594l1.31.598a78.088 78.088 0 01-1.21 2.623h-.014zm-236.715-3.79a126.84 126.84 0 01-1.137-2.665l1.324-.555c.368.879.72 1.758 1.13 2.637l-1.317.583zm239.385-2.161l-1.324-.562c.367-.879.72-1.757 1.08-2.643l1.338.525a63.562 63.562 0 01-1.079 2.695l-.015-.015zm-241.868-3.883c-.345-.907-.719-1.815-1.007-2.723l1.353-.482c.324.9.655 1.793.993 2.687l-1.339.518zm244.243-2.161l-1.353-.497c.331-.893.648-1.794.95-2.701l1.361.461c-.288.915-.619 1.83-.943 2.737h-.015zm-246.423-3.976a90.847 90.847 0 01-.871-2.759l1.374-.418c.274.908.562 1.822.864 2.73l-1.367.447zm248.496-2.205l-1.375-.425c.281-.907.547-1.822.807-2.744l1.389.396c-.252.915-.526 1.851-.807 2.773h-.014zm-250.353-4.019a64.35 64.35 0 01-.72-2.803l1.396-.353c.231.93.475 1.852.72 2.781l-1.396.375zm252.124-2.226l-1.397-.353c.238-.93.461-1.859.677-2.788l1.403.324c-.216.922-.446 1.859-.683 2.795v.022zm-253.686-4.106a122.05 122.05 0 01-.59-2.839l1.439-.274c.18.937.374 1.873.583 2.803l-1.432.31zm255.132-2.248l-1.439-.288c.187-.937.36-1.873.532-2.81l1.44.252c-.166.93-.346 1.873-.533 2.824v.022zm-256.37-4.157c-.158-.951-.309-1.901-.446-2.881l1.439-.209c.137.944.281 1.887.439 2.831l-1.432.259zm257.493-2.262l-1.439-.216c.143-.943.273-1.887.395-2.838l1.44.187c-.123.937-.252 1.888-.396 2.846v.021zm-258.378-4.192c-.115-.958-.216-1.916-.31-2.882l1.44-.137c.096.961.196 1.921.302 2.882l-1.432.137zm259.213-2.277l-1.44-.137c.094-.95.18-1.901.252-2.881l1.44.115c-.101.958-.187 1.924-.281 2.882l.029.021zm-259.818-4.214c-.05-.72-.093-1.498-.137-2.247l1.44-.073c.038.74.081 1.482.129 2.226l-1.432.094zm260.293-2.284l-1.44-.072c.051-.95.087-1.909.116-2.881h1.439c-.038.989-.084 1.967-.137 2.932l.022.021zm.158-6.483h-1.439v-2.881h1.439c-.029.9-.021 1.865-.021 2.831l.021.05zm-1.598-6.483c-.05-.951-.108-1.909-.172-2.882l1.439-.101c.072.958.13 1.924.18 2.882l-1.447.101zm-.482-6.426c-.093-.951-.201-1.902-.316-2.882l1.439-.173c.115.959.223 1.917.317 2.882l-1.44.173zm-.799-6.404a123.97 123.97 0 00-.46-2.824l1.439-.252c.158.958.317 1.909.461 2.881l-1.44.195zm-1.115-6.347c-.187-.936-.389-1.873-.598-2.802l1.404-.317c.211.96.413 1.904.604 2.831l-1.41.288zm-1.44-6.289c-.237-.929-.482-1.851-.719-2.773l1.389-.382c.259.929.511 1.866.719 2.795l-1.389.36zm-1.749-6.209c-.28-.915-.568-1.823-.87-2.731l1.367-.454c.302.915.597 1.837.885 2.76l-1.382.425zm-2.051-6.116c-.324-.901-.662-1.794-1.007-2.687l1.338-.519c.353.9.72 1.808 1.022 2.708l-1.353.498zm-2.353-6.008c-.374-.879-.756-1.751-1.145-2.63l1.31-.591c.396.887.785 1.773 1.159 2.666l-1.324.555zm-2.663-5.879a93.948 93.948 0 00-1.274-2.564l1.281-.656c.439.857.871 1.722 1.288 2.594l-1.295.626zm-2.951-5.763a72.261 72.261 0 00-1.403-2.507l1.252-.72c.482.843.957 1.686 1.439 2.536l-1.288.691zm-3.232-5.59a118.547 118.547 0 00-1.533-2.428l1.195-.785c.526.814 1.044 1.628 1.548 2.457l-1.21.756zm-3.526-5.374c-.54-.792-1.094-1.57-1.656-2.348l1.174-.843c.561.785 1.122 1.577 1.662 2.377l-1.18.814zm-3.786-5.237a127.631 127.631 0 00-1.763-2.262l1.094-.922c.604.72 1.202 1.52 1.785 2.291l-1.116.893zm-4.037-5.043c-.619-.72-1.246-1.44-1.879-2.16l1.08-.952c.64.72 1.274 1.44 1.892 2.197l-1.093.915zm-4.283-4.848c-.648-.72-1.31-1.39-1.979-2.075L461 92.281c.677.72 1.346 1.397 2.001 2.096l-1.051.987zm-4.512-4.596c-.684-.67-1.375-1.326-2.073-1.974l.986-1.052c.72.649 1.396 1.319 2.094 1.989l-1.007 1.037zm-4.722-4.38a236.562 236.562 0 00-2.159-1.866l.929-1.102c.719.62 1.439 1.246 2.195 1.888l-.965 1.08zm-4.93-4.128c-.72-.598-1.504-1.181-2.26-1.757l.871-1.146c.77.584 1.526 1.174 2.282 1.772l-.893 1.131zm-5.131-3.883c-.77-.554-1.555-1.102-2.339-1.635l.813-1.188c.792.54 1.583 1.095 2.368 1.656l-.842 1.168zm-5.312-3.601a223.033 223.033 0 00-2.418-1.52l.72-1.225c.82.497 1.633 1.016 2.447 1.534l-.749 1.21zm-5.491-3.343c-.828-.475-1.663-.944-2.498-1.398l.72-1.267c.849.46 1.684.929 2.526 1.44l-.748 1.225zm-5.657-3.069a178.74 178.74 0 00-2.555-1.275l.626-1.296c.864.417 1.727.85 2.584 1.289l-.655 1.282zm-5.801-2.78a164.73 164.73 0 00-2.62-1.146l.561-1.325c.886.374 1.771.763 2.649 1.152l-.59 1.319zm-5.931-2.486c-.892-.346-1.785-.684-2.677-1.008l.489-1.355c.907.332 1.807.67 2.707 1.023l-.519 1.34zm-6.052-2.16c-.907-.303-1.814-.599-2.728-.88l.424-1.376c.922.288 1.843.584 2.757.886l-.453 1.37zm-6.161-1.881c-.912-.26-1.833-.5-2.764-.72l.36-1.398c.928.238 1.864.483 2.792.72l-.388 1.398zm-6.24-1.57c-.929-.21-1.864-.411-2.8-.598l.288-1.441 2.828.605-.316 1.434zm-6.298-1.29c-.943-.166-1.885-.317-2.828-.461l.216-1.44c.95.136 1.907.294 2.879.46l-.267 1.441zm-6.369-.944c-.95-.115-1.9-.216-2.879-.31l.144-1.44c.964.093 1.922.202 2.879.317l-.144 1.433zm-6.413-.62c-.95-.064-1.9-.122-2.879-.172l.072-1.44c.965.05 1.929.107 2.879.18l-.072 1.433zm-6.449-.33h-2.878v-1.441h2.878v1.44zm-2.857 189.783c-.972 0-1.958 0-2.929-.072l.065-1.44c.95.05 1.914.072 2.879.072l-.015 1.44zm6.586-.36l-.159-1.441c.95-.108 1.907-.23 2.879-.381l.223 1.44c-.993.152-1.972.281-2.943.418v-.036zm-16.079-.382a65.547 65.547 0 01-2.879-.525l.288-1.441a54.25 54.25 0 002.814.511l-.223 1.455zm25.435-1.383l-.374-1.39a63.114 63.114 0 002.742-.814l.446 1.369c-.929.302-1.879.583-2.814.835zm-34.691-.835a55.462 55.462 0 01-2.77-.973l.511-1.347c.885.339 1.799.656 2.699.951l-.44 1.369zm43.658-2.378l-.59-1.311a63.567 63.567 0 002.577-1.239l.655 1.283c-.864.439-1.756.871-2.642 1.239v.028zm-52.481-1.26a68.297 68.297 0 01-2.584-1.398l.72-1.253c.827.475 1.677.936 2.519 1.361l-.655 1.29zm60.801-3.321l-.791-1.21a58.713 58.713 0 002.353-1.628l.849 1.167a53.224 53.224 0 01-2.382 1.671h-.029zm-68.92-1.664a61.996 61.996 0 01-2.324-1.787l.899-1.116c.72.59 1.505 1.181 2.275 1.736l-.85 1.167zm76.492-4.178l-.972-1.067a45.09 45.09 0 002.073-1.981l1.072.966-.057.057a51.31 51.31 0 01-2.116 2.025zm-83.674-2.018c-.72-.72-1.375-1.44-2.023-2.117l1.065-.973a45.16 45.16 0 001.965 2.06l-1.007 1.03zm90.245-4.97l-1.123-.901c.597-.72 1.18-1.512 1.735-2.276l1.166.843c-.591.785-1.152 1.57-1.8 2.334h.022zm-96.442-2.269a56.004 56.004 0 01-1.67-2.414l1.202-.785a56.112 56.112 0 001.627 2.356l-1.159.843zm101.789-5.605l-1.245-.72a69.8 69.8 0 001.36-2.522l1.282.649a65.133 65.133 0 01-1.411 2.593h.014zm-106.791-2.514a59.352 59.352 0 01-1.267-2.644l1.31-.562c.389.872.806 1.744 1.238 2.586l-1.281.62zm110.836-6.109l-1.346-.511c.331-.886.655-1.794.943-2.702l1.375.447a76.538 76.538 0 01-.972 2.788v-.022zm-114.478-2.694a55.134 55.134 0 01-.835-2.817l1.389-.374c.245.922.526 1.844.814 2.744l-1.368.447zm117.127-6.483l-1.44-.296c.195-.929.367-1.88.511-2.817l1.44.224c-.137.987-.31 1.959-.511 2.917v-.028zm-119.372-2.788a67.558 67.558 0 01-.389-2.882l1.439-.151c.101.944.231 1.902.375 2.838l-1.425.195zm120.538-6.642l-1.44-.065c.043-.937.065-1.88.065-2.817l1.439-.05v.05a37.95 37.95 0 01-.036 2.882h-.028zm-121.258-2.86c0-.965 0-1.945.072-2.882l1.439.072c-.05.937-.072 1.895-.072 2.839l-1.439-.029zm119.559-6.484a62.954 62.954 0 00-.381-2.881l1.439-.223c.151.965.281 1.945.389 2.881l-1.447.223zm-117.4-2.787l-1.439-.217c.151-.958.323-1.93.525-2.881l1.439.288a51.22 51.22 0 00-.525 2.81zm115.666-6.376a54.395 54.395 0 00-.814-2.744l1.368-.447c.302.929.583 1.873.835 2.809l-1.389.382zm-113.507-2.68l-1.367-.439c.302-.929.626-1.859.971-2.774l1.346.526a54.295 54.295 0 00-.95 2.687zm110.369-6.08a57.016 57.016 0 00-1.238-2.579l1.281-.655c.439.864.871 1.75 1.266 2.644l-1.309.59zm-106.821-2.514l-1.281-.655c.446-.865.914-1.736 1.396-2.579l1.253.72a55.93 55.93 0 00-1.368 2.514zm102.344-5.619a53.791 53.791 0 00-1.634-2.355l1.166-.85a55.359 55.359 0 011.67 2.413l-1.202.792zm-97.486-2.305l-1.158-.85a61.125 61.125 0 011.777-2.334l1.123.908a60.297 60.297 0 00-1.742 2.276zm91.779-5.043c-.627-.72-1.281-1.376-1.944-2.031l.986-1.059a60.148 60.148 0 011.987 2.089l-1.029 1.001zm-85.711-2.017l-1.044-1.001a69.779 69.779 0 012.102-2.003l1.022 1.009c-.72.634-1.44 1.275-2.08 1.995zm78.938-4.322a49.67 49.67 0 00-2.267-1.736l.842-1.167a60.537 60.537 0 012.332 1.786l-.907 1.117zm-71.9-1.693l-.849-1.188a55.073 55.073 0 012.411-1.672l.792 1.203c-.799.469-1.555 1.045-2.354 1.6v.057zm64.228-3.544a73.004 73.004 0 00-2.519-1.362l.655-1.282c.864.44 1.727.908 2.576 1.398l-.712 1.246zm-56.311-1.383l-.64-1.304a54.99 54.99 0 012.641-1.268l.59 1.311a88.9 88.9 0 00-2.591 1.261zm47.905-2.637c-.893-.338-1.8-.655-2.706-.944l.446-1.375c.921.302 1.857.626 2.763.972l-.503 1.347zm-39.318-.922l-.447-1.347a77.115 77.115 0 012.814-.836l.375 1.391c-.922.223-1.843.497-2.742.792zm30.393-1.671a51.847 51.847 0 00-2.821-.512l.223-1.44c.964.151 1.936.331 2.879.525l-.281 1.427zm-21.354-.504l-.223-1.441a67.425 67.425 0 012.879-.389l.158 1.441c-.928.115-1.878.244-2.814.389zm12.127-.663a61.714 61.714 0 00-2.821-.065l-.043-1.441h.043c.957 0 1.936 0 2.879.072l-.058 1.434zm-9.752 179.036h-.36a119.238 119.238 0 01-45.032-11.8l-.324-.151 8.169-16.857.323.158a100.517 100.517 0 0037.994 9.934h.36l-1.13 18.716zm-44.752-12.29a118.383 118.383 0 0044.076 11.526l1.043-17.289a101.265 101.265 0 01-37.562-9.79l-7.557 15.553zm97.471 3.422l-7.197-17.289.331-.144a101.587 101.587 0 0053.259-51.652l.152-.324 17.042 7.737-.151.324a120.422 120.422 0 01-63.083 61.233l-.353.115zm-6.247-16.907l6.636 15.963a119.642 119.642 0 0062.227-60.396l-15.726-7.139a102.387 102.387 0 01-53.137 51.55v.022zm-133.773-19.811l-.224-.281a118.886 118.886 0 01-21.022-41.58l-.094-.346 17.993-5.043.093.346a100.28 100.28 0 0017.727 35.054l.223.288-14.696 11.562zm-20.426-41.703a118.086 118.086 0 0020.577 40.687l13.566-10.64a100.898 100.898 0 01-17.532-34.679l-16.611 4.632zM468.802 180.7v-.36a100.862 100.862 0 00-8.73-38.324l-.151-.332 17.086-7.636.151.325a119.6 119.6 0 0110.349 45.384v.36l-18.705.583zm-7.917-38.648a101.591 101.591 0 018.637 37.906l17.273-.511a118.953 118.953 0 00-10.191-44.462l-15.719 7.067zm-28.206-36.278l-.28-.231a100.062 100.062 0 00-34.446-18.824l-.324-.115L403.2 68.71l.345.108a118.972 118.972 0 0140.866 22.346l.273.238-12.005 14.372zm-34.172-19.645a100.838 100.838 0 0134.079 18.6l11.105-13.24a118.184 118.184 0 00-40.016-21.857l-5.168 16.497zm-83.393 10.618l-9.666-16.035.309-.188a118.827 118.827 0 0143.788-15.812l.352-.058 2.807 18.521-.352.05a100.25 100.25 0 00-36.929 13.342l-.309.18zm-8.68-15.79l8.924 14.803a101.067 101.067 0 0136.526-13.19l-2.591-17.094a118.105 118.105 0 00-42.859 15.48z" opacity=".6"/><path d="M367.624 327.269a143.997 143.997 0 01-44.421-7.01l-.338-.115 11.976-37.006.345.108a104.844 104.844 0 0032.438 5.122c3.174 0 6.384-.144 9.543-.432l.353-.036 3.512 38.742-.352.036a146.35 146.35 0 01-13.056.591zm-43.852-7.586a143.091 143.091 0 0043.852 6.865c4.196 0 8.442-.187 12.631-.555l-3.383-37.308c-3.066.267-6.175.403-9.248.403a105.828 105.828 0 01-32.323-5.042l-11.529 35.637zm96.888-2.536l-14.394-36.127.331-.129a104.102 104.102 0 0035.215-23.283c.835-.836 1.663-1.686 2.455-2.536l.244-.266 28.379 26.589-.245.259a139.4 139.4 0 01-3.354 3.465 142.82 142.82 0 01-48.286 31.899l-.345.129zm-13.473-35.723l13.876 34.787a142.068 142.068 0 0047.71-31.603 130.72 130.72 0 003.08-3.184l-27.349-25.596c-.72.764-1.439 1.535-2.224 2.291a104.983 104.983 0 01-35.086 23.305h-.007zm88.971-33.513l-34.784-17.361.166-.324a104.522 104.522 0 0010.795-40.831v-.36l38.8 2.226v.36a143.158 143.158 0 01-14.84 55.966l-.137.324zm-33.827-17.685l33.496 16.72a142.312 142.312 0 0014.581-55.008l-37.36-2.161a105.046 105.046 0 01-10.702 40.449h-.015zm-233.116-7.737l-.1-.345a144.704 144.704 0 01-4.052-57.739l.05-.353 38.526 5.093-.043.36a105.545 105.545 0 002.958 42.186l.094.346-37.433 10.452zm-3.483-57.63a143.8 143.8 0 003.98 56.744l36.05-10.085a106.393 106.393 0 01-2.929-41.768l-37.101-4.891zm45.947-24.154l-35.468-15.906.151-.332a143.56 143.56 0 0129.559-42.877c1.439-1.354 2.879-2.759 4.318-4.084l.259-.245 26.349 28.592-.266.245a110.25 110.25 0 00-3.117 3.004 104.458 104.458 0 00-21.591 31.278l-.194.325zm-34.511-16.267l34.151 15.316a105.23 105.23 0 0121.591-31.164c.936-.936 1.907-1.873 2.879-2.773l-25.356-27.54a142.661 142.661 0 00-3.972 3.825 142.568 142.568 0 00-29.264 42.336h-.029zM430.93 99.6l-.288-.216a103.65 103.65 0 00-38.109-18.06l-.352-.08 9.183-37.805.353.086a142.216 142.216 0 0152.316 24.789l.288.216L430.93 99.6zm-37.878-18.89a104.41 104.41 0 0137.741 17.88l22.52-29.881a141.636 141.636 0 00-51.416-24.363l-8.845 36.364zm-71.871 8.436l-17.079-34.938.324-.159a142.774 142.774 0 0156.037-14.407h.36l1.921 38.857h-.36c-14.2.68-28.111 4.26-40.879 10.517l-.324.13zm-16.115-34.578l16.446 33.591a104.804 104.804 0 0140.477-10.388l-1.85-37.416a142.049 142.049 0 00-55.073 14.184v.029z" opacity=".6"/><path d="M311.025 348.152l-.338-.115a174.82 174.82 0 01-42.247-21.431 176.055 176.055 0 01-17.993-14.292l-.266-.245 31.523-34.795.274.238a127.862 127.862 0 0044.054 26.143l.345.115-15.352 44.382zm-59.83-36.148a175.72 175.72 0 0017.655 13.997 174.078 174.078 0 0041.744 21.237l14.862-43.036a128.867 128.867 0 01-43.701-25.934l-30.56 33.736zm221.673 10.085l-28.529-37.344.287-.224a127.062 127.062 0 0027.465-28.815c2.159-3.17 4.261-6.483 6.153-9.826l.18-.31 40.837 23.103-.18.317a175.344 175.344 0 01-8.406 13.421l-.295-.209.295.209a174.186 174.186 0 01-37.569 39.44l-.238.238zm-27.522-37.215l27.623 36.185A173.602 173.602 0 00510.099 282a176.379 176.379 0 008.198-13.053l-39.585-22.419a129.99 129.99 0 01-6.009 9.567 128.003 128.003 0 01-27.357 28.779zm-226.66-11.05l-.187-.31a173.525 173.525 0 01-22.311-59.006 160.131 160.131 0 01-1.138-7.06l-.05-.353 46.486-6.556.051.353c.245 1.729.525 3.473.835 5.187a126.923 126.923 0 0016.273 43.1l.187.31-40.146 24.335zm-22.858-66.081c.309 2.219.676 4.459 1.079 6.671a173.005 173.005 0 0022.024 58.459l38.915-23.586a127.587 127.587 0 01-16.18-43.071 121.472 121.472 0 01-.791-4.855l-45.047 6.382zm341.361 14.775l-45.752-10.525.079-.353a126.423 126.423 0 001.116-51.197 101.287 101.287 0 00-.835-4.2l-.072-.353 45.867-9.941.079.353c.403 1.895.792 3.818 1.138 5.763a173.319 173.319 0 01-1.555 70.086l-.065.367zM492.3 211.489l44.342 10.172a172.525 172.525 0 001.44-69.474 145.077 145.077 0 00-1.058-5.345l-44.464 9.603c.273 1.275.532 2.572.77 3.868a127.3 127.3 0 01-1.03 51.14v.036zm-250.648-46.925l-.36-.058-46.062-6.973.058-.353a173.208 173.208 0 0124.254-65.8l.195-.31 39.872 24.782-.194.309a126.454 126.454 0 00-17.713 48.042l-.05.361zm-45.587-7.636l44.982 6.814a127.344 127.344 0 0117.569-47.66l-38.649-24.017a172.62 172.62 0 00-23.902 64.863zm283.065-34.752l-.173-.309a126.378 126.378 0 00-33.208-38.959l-.288-.223.223-.28 28.638-36.74.288.223a173.117 173.117 0 0145.464 53.33l.173.317-41.117 22.641zm-32.654-39.62a126.954 126.954 0 0132.934 38.641l39.851-21.943a172.283 172.283 0 00-44.817-52.588l-27.968 35.89zm-163.692 5.727l-31.2-35.097.274-.238a172.213 172.213 0 0160.7-35.075l.339-.116 14.761 44.592-.338.115a125.67 125.67 0 00-44.27 25.58l-.266.239zm-30.185-35.04l30.228 34.024a126.336 126.336 0 0143.903-25.372l-14.308-43.223a171.595 171.595 0 00-59.823 34.571zm114.996 213.989a83.725 83.725 0 01-48.201-15.276 83.85 83.85 0 01-30.646-40.251 83.935 83.935 0 01-1.932-50.569 83.876 83.876 0 0127.486-42.476 83.728 83.728 0 0196.125-7.383 83.84 83.84 0 0133.639 37.78 83.94 83.94 0 015.8 50.272l-1.439-.273a82.488 82.488 0 00-6.537-51.173 82.373 82.373 0 00-35.652-37.256 82.269 82.269 0 00-50.796-8.741 82.306 82.306 0 00-46.036 23.201 82.454 82.454 0 00-23.696 50.052 82.48 82.48 0 0013.307 53.762 82.35 82.35 0 0044.298 33.192 82.272 82.272 0 0055.286-2.367l.539 1.333a83.741 83.741 0 01-31.545 6.173z" opacity=".6"/><path d="M423.244 359.253l-.432-1.375a181.685 181.685 0 0031.97-13.587l.633-.346 6.866 12.657a197.8 197.8 0 0048.739-37.711l-10.472-9.855.497-.526a184.98 184.98 0 0013.783-16.569l1.158.857a185.422 185.422 0 01-13.401 16.151l10.494 9.855-.497.526a177.877 177.877 0 01-4.477 4.625 198.857 198.857 0 01-45.752 34.232l-.633.346-6.859-12.657a183.192 183.192 0 01-31.617 13.377zm-144.088 2.241l-.64-.324a197.974 197.974 0 01-46.839-32.756l-.526-.49 9.846-10.496c-1.439-1.332-2.605-2.492-3.735-3.602a184.302 184.302 0 01-33.107-45.074l1.274-.67a182.945 182.945 0 0032.848 44.721 167.98 167.98 0 004.231 4.085l.526.497-9.846 10.496a197.06 197.06 0 0045.342 31.697l6.478-12.866.64.317a181.417 181.417 0 0032.028 12.441l-.396 1.39a184.144 184.144 0 01-31.632-12.247l-6.492 12.881zm269.937-255.555a198.024 198.024 0 00-7.758-16.15l-12.639 6.872-.345-.634a183.182 183.182 0 00-37.857-48.208l-.533-.483 9.673-10.654a196.874 196.874 0 00-45.838-30.977l-6.24 12.967-.648-.31a182.03 182.03 0 00-58.895-16.921L388.172 0a183.555 183.555 0 0158.707 16.742l6.24-12.967.648.317a197.99 197.99 0 0147.372 31.992l.532.482-9.673 10.67a195.87 195.87 0 015.923 5.669 184.687 184.687 0 0131.351 41.782l12.638-6.873.346.634a198.015 198.015 0 018.162 16.929l-1.325.562zm-74.67 119.756l-1.339-.533a114.442 114.442 0 006.729-58.545l1.44-.216a115.862 115.862 0 01-6.816 59.294h-.014zm-106.54 72.629a118.255 118.255 0 01-13.394-.771c-62.91-7.254-108.202-64.373-100.962-127.341a114.988 114.988 0 0142.704-76.9 114.78 114.78 0 0184.521-24.155 114.262 114.262 0 0175.505 41.104l-1.108.951a113.378 113.378 0 00-75.585-40.72 113.331 113.331 0 00-82.436 23.95 112.714 112.714 0 00-28.684 33.735 112.812 112.812 0 00-13.484 42.193c-7.147 62.183 37.59 118.589 99.695 125.75a112.24 112.24 0 0051.028-5.814l.489 1.354a113.173 113.173 0 01-38.289 6.664z" opacity=".6"/><path d="M366.048 258.321h-.36c-.84 0-1.682-.036-2.526-.108h-.36l.324-5.547h.36c.784.043 1.562.079 2.339.094h.36l-.137 5.561zm-2.483-.814c.597 0 1.187.058 1.785.079l.101-4.12c-.547 0-1.102-.043-1.649-.072l-.237 4.113zm6.823.778l-.238-5.554h.36a83.324 83.324 0 002.339-.137h.36l.418 5.547h-.36c-.835.065-1.677.115-2.519.151l-.36-.007zm.511-4.862l.173 4.113c.597 0 1.194-.065 1.784-.108l-.309-4.106c-.547.043-1.101.072-1.648.101zm-12.415 4.365l-.36-.05a76.661 76.661 0 01-2.498-.361l-.352-.057.878-5.489.36.057c.77.123 1.54.238 2.317.339l.353.043-.698 5.518zm-2.39-1.059c.59.091 1.181.178 1.771.259l.511-4.091c-.54-.072-1.08-.144-1.627-.231l-.655 4.063zm21.851.901l-.792-5.504.353-.051c.777-.108 1.547-.23 2.317-.374l.353-.058.972 5.468-.353.065c-.828.151-1.663.281-2.498.403l-.352.051zm0-4.892l.583 4.078c.59-.087 1.18-.181 1.763-.289l-.72-4.048c-.518.086-1.058.173-1.605.252l-.021.007zm-26.954 3.753l-.345-.079a71 71 0 01-2.447-.605l-.353-.094 1.44-5.374.345.094a61.81 61.81 0 002.274.562l.346.086-1.26 5.41zm-2.259-1.289l1.727.425.921-4.013a54.28 54.28 0 01-1.59-.396l-1.058 3.984zm36.647 1.008l-1.345-5.395.352-.087a62.619 62.619 0 002.267-.605l.346-.101 1.518 5.346-.345.1a92.77 92.77 0 01-2.447.656l-.346.086zm-.475-4.869l.994 3.991a46.442 46.442 0 001.727-.461l-1.123-3.963c-.518.149-1.043.291-1.576.425l-.022.008zm-41.182 3.104l-.345-.122a72.622 72.622 0 01-2.368-.85l-.338-.13 1.965-5.194.338.123c.72.281 1.439.54 2.202.792l.338.116-1.792 5.265zm-2.159-1.52c.554.209 1.116.411 1.67.606l1.331-3.898a64.053 64.053 0 01-1.547-.562l-1.454 3.854zm-4.887-1.239l-.331-.151a92.896 92.896 0 01-2.274-1.095l-.324-.158 2.476-4.978.324.166c.695.345 1.401.684 2.116 1.015l.324.144-2.311 5.057zm-1.965-1.728c.533.266 1.073.518 1.605.77l1.721-3.738-1.49-.721-1.836 3.689zm-4.778-1.758l-.31-.18a54.83 54.83 0 01-2.159-1.319l-.302-.194 2.979-4.697.303.195c.662.417 1.324.828 1.993 1.224l.31.18-2.814 4.791zm-1.778-1.916a68.21 68.21 0 001.526.929l2.087-3.544c-.48-.279-.948-.567-1.404-.865l-2.209 3.48zm90.346-7.896l-3.793-4.063.266-.245c.562-.533 1.123-1.073 1.684-1.628l.36-.367 3.93 3.926-.353.36a83.584 83.584 0 01-1.828 1.772l-.266.245zm-2.807-3.991l2.814 3.004c.468-.439.928-.886 1.396-1.354l-2.879-2.882c-.46.361-.892.786-1.331 1.232zm8.183-1.527l-4.189-3.652.238-.274a58.783 58.783 0 001.511-1.794l.231-.273 4.318 3.508-.223.281a85.02 85.02 0 01-1.634 1.93l-.252.274zm-3.174-3.724l3.109 2.708c.389-.453.77-.907 1.145-1.368l-3.189-2.601c-.345.389-.705.807-1.065 1.225v.036zM307.47 228.08l-.216-.296a37.502 37.502 0 01-1.439-2.06l-.202-.295 4.578-3.148.201.295c.446.641.9 1.282 1.36 1.916l.216.288-4.498 3.3zm-.885-2.464c.338.483.72.972 1.036 1.441l3.311-2.442a86.143 86.143 0 01-.957-1.348l-3.39 2.349zm121.992 1.275l-4.542-3.213.209-.295c.454-.634.893-1.283 1.324-1.931l.195-.302 4.642 3.054-.202.303c-.46.72-.935 1.397-1.439 2.089l-.187.295zm-3.534-3.386l3.361 2.377c.338-.489.677-.979 1.001-1.476l-3.412-2.255-.95 1.354zm-121.79-1.743l-.187-.31a57.638 57.638 0 01-1.246-2.197l-.172-.317 4.879-2.665.173.317c.367.684.72 1.361 1.152 2.038l.18.31-4.779 2.824zm-.627-2.536c.288.519.576 1.037.879 1.549l3.548-2.089a36.279 36.279 0 01-.814-1.441l-3.613 1.981zm130.06 1.268l-4.829-2.73.173-.317a55.35 55.35 0 001.115-2.06l.166-.317 4.93 2.564-.165.324a75.495 75.495 0 01-1.21 2.226l-.18.31zm-3.857-3.004l3.598 2.024c.288-.518.569-1.044.85-1.57l-3.649-1.902c-.274.483-.533.965-.799 1.448zm-129.132-2.435l-.144-.324c-.36-.778-.719-1.549-1.022-2.334l-.144-.331 5.125-2.162.136.339c.303.72.619 1.441.951 2.161l.151.324-5.053 2.327zm-.367-2.6c.238.547.475 1.095.72 1.642l3.735-1.722a58.097 58.097 0 01-.662-1.512l-3.793 1.592zm136.746 1.26l-5.088-2.226.144-.331c.317-.72.612-1.441.9-2.161l.129-.332 5.168 2.046-.137.339a96.177 96.177 0 01-.972 2.334l-.144.331zm-4.138-2.593l3.771 1.65a64.31 64.31 0 00.684-1.65l-3.829-1.513a34.024 34.024 0 01-.604 1.513h-.022zm-135.069-3.119l-.115-.339c-.274-.8-.533-1.606-.778-2.413l-.108-.346 5.319-1.614.101.346c.223.72.468 1.491.72 2.233l.115.339-5.254 1.794zm-.101-2.623c.173.577.36 1.146.547 1.708l3.894-1.326a76.566 76.566 0 01-.504-1.57l-3.937 1.188zm142.065 1.261l-5.29-1.7.108-.346c.237-.72.46-1.484.676-2.233l.094-.346 5.347 1.513-.1.346c-.231.807-.468 1.613-.72 2.42l-.115.346zm-4.39-2.161l3.922 1.261c.18-.569.345-1.139.511-1.708l-3.958-1.123c-.173.511-.331 1.044-.497 1.563l.022.007zm-139.733-3.775l-.08-.346a75.364 75.364 0 01-.532-2.485l-.065-.353 5.448-1.066.072.353c.151.764.31 1.534.49 2.291l.079.353-5.412 1.253zm.165-2.615c.115.584.245 1.167.374 1.751l4.009-.93a59.849 59.849 0 01-.345-1.613l-4.038.792zm145.937 1.225l-5.434-1.153.079-.353c.159-.763.31-1.527.447-2.298l.057-.353 5.47.973-.065.353a71.217 71.217 0 01-.475 2.478l-.079.353zm-4.577-1.707l4.023.857c.122-.584.237-1.167.338-1.751l-4.052-.72c-.122.54-.23 1.08-.338 1.614h.029zm-142.85-4.373l-.05-.353a77.31 77.31 0 01-.274-2.521l-.036-.361 5.528-.511v.36c.072.778.158 1.549.259 2.327l.043.36-5.47.699zm.425-2.579c.058.591.122 1.181.194 1.772l4.081-.519c-.065-.547-.122-1.087-.18-1.635l-4.095.382zm148.262 1.174l-5.521-.598.036-.36c.087-.773.159-1.551.216-2.334v-.353l5.542.411v.36a61.116 61.116 0 01-.23 2.514l-.043.36zm-4.729-1.239l4.088.447c.065-.591.115-1.189.166-1.78l-4.103-.302c-.101.547-.151 1.095-.209 1.635h.058zm-144.548-4.92v-3.256l5.556.043v3.069l-5.556.144zm.72-2.529v1.787l4.117-.108v-1.643l-4.117-.036zm149.053 1.117l-5.549-.043v-3.062l5.556-.151v.36c0 .843.036 1.693 0 2.536l-.007.36zm-4.829-.756h4.117v-1.787l-4.11.108c-.094.576-.094 1.131-.094 1.679h.087zm-139.308-5.007l-5.535-.418v-.36c.065-.843.144-1.679.237-2.514l.036-.36 5.521.597-.036.361a61.313 61.313 0 00-.216 2.334l-.007.36zm-4.765-1.081l4.102.31c.044-.547.094-1.095.152-1.642l-4.088-.447a71.699 71.699 0 00-.166 1.779zm142.993-.223v-.36c-.079-.778-.165-1.556-.259-2.327l-.05-.36 5.513-.721.043.361c.108.835.202 1.671.281 2.514v.36l-5.528.533zm.468-2.428c.065.548.13 1.095.18 1.643l4.095-.389a70.524 70.524 0 00-.194-1.772l-4.081.518zm-137.854-3.241l-5.47-.973.065-.353c.143-.836.309-1.664.482-2.485l.079-.353 5.434 1.16-.079.345c-.159.771-.31 1.535-.447 2.298l-.064.361zm-4.635-1.556l4.052.72c.1-.54.208-1.081.316-1.614l-4.023-.857c-.12.586-.235 1.169-.345 1.751zm141.064.259l-.072-.353a89.583 89.583 0 00-.489-2.298l-.087-.346 5.398-1.268.079.353c.195.821.375 1.65.533 2.478l.072.353-5.434 1.081zm.216-2.457c.122.533.237 1.074.345 1.614l4.038-.8a49.62 49.62 0 00-.374-1.75l-4.009.936zm-135.091-3.097l-5.34-1.527.101-.346c.23-.807.467-1.614.719-2.413l.116-.346 5.282 1.7-.108.346c-.237.72-.468 1.491-.676 2.24l-.094.346zm-4.448-2.017l3.937 1.145c.159-.526.317-1.044.482-1.57l-3.929-1.311c-.173.598-.339 1.159-.504 1.736h.014zm137.646.72l-.101-.338c-.23-.721-.467-1.492-.719-2.234l-.116-.345 5.254-1.801.116.338c.273.8.539 1.607.784 2.413l.101.346-5.319 1.621zm0-2.471c.173.526.346 1.052.511 1.578l3.93-1.203c-.173-.569-.36-1.138-.547-1.708l-3.894 1.333zm-130.988-2.867l-5.161-2.053.13-.339c.317-.778.64-1.556.979-2.334l.144-.324 5.088 2.226-.144.332c-.317.72-.619 1.44-.9 2.161l-.136.331zm-4.225-2.456l3.814 1.498c.209-.504.418-1.009.634-1.513l-3.771-1.657a57.592 57.592 0 00-.677 1.65v.022zm132.845 1.203l-.144-.332a91.903 91.903 0 00-.943-2.161l-.151-.331 5.038-2.327.152.324a45.3 45.3 0 011.029 2.327l.136.331-5.117 2.169zm-.288-2.457c.231.504.454 1.009.67 1.52l3.793-1.599a89.158 89.158 0 00-.72-1.643l-3.743 1.722zm-2.735-3.89l-.172-.317a40.665 40.665 0 00-1.159-2.039l-.18-.309 4.779-2.831.18.309c.432.73.849 1.465 1.252 2.205l.173.309-4.873 2.673zm-.525-2.413c.274.475.547.951.813 1.441l3.599-1.974a66.245 66.245 0 00-.885-1.556l-3.527 2.089zm-3.116-3.602l-.209-.295a63.5 63.5 0 00-1.36-1.909l-.209-.289 4.462-3.306.216.295c.504.677.993 1.362 1.44 2.06l.201.296-4.541 3.148zm-.778-2.341c.331.446.648.893.958 1.34l3.404-2.349a42.99 42.99 0 00-1.037-1.441l-3.325 2.45zm-3.461-3.264l-.238-.273a70.904 70.904 0 00-1.54-1.758l-.245-.267 4.088-3.753.245.267c.568.626 1.123 1.26 1.67 1.901l.23.274-4.21 3.609zm-1.008-2.247c.367.403.72.821 1.087 1.239l3.138-2.673-1.152-1.354-3.073 2.788zm-101.48-1.938l-3.937-3.969.317-.31a64.225 64.225 0 011.756-1.707l.259-.245 3.8 4.055-.266.245a86.308 86.308 0 00-1.627 1.585l-.302.346zm-2.915-3.969l2.879 2.881c.389-.389.784-.771 1.187-1.145l-2.785-2.954c-.432.404-.863.821-1.281 1.218zm100.616 2.968l-.259-.253a71.23 71.23 0 00-1.713-1.592l-.266-.244 3.721-4.128.266.237c.627.57 1.238 1.146 1.85 1.729l.259.253-3.858 3.998zm-1.223-2.162c.403.368.806.721 1.202 1.124l2.879-2.968c-.425-.41-.864-.814-1.303-1.217l-2.778 3.061zm-91.303-1.606l-3.52-4.322.281-.231a82.018 82.018 0 011.979-1.57l.288-.216 3.376 4.416-.288.216c-.619.475-1.231.958-1.836 1.44l-.28.267zm-2.505-4.2l2.605 3.184c.425-.345.857-.684 1.296-1.023l-2.505-3.27c-.467.346-.935.735-1.396 1.109zm8.133 0l-3.066-4.639.295-.195c.705-.48 1.425-.934 2.159-1.361l.302-.187 2.879 4.733-.295.165c-.662.411-1.324.829-1.972 1.261l-.302.223zm-2.073-4.43l2.26 3.429c.461-.303.921-.598 1.389-.886l-2.159-3.508c-.49.309-.986.634-1.49.965zm8.097.821l-2.584-4.92.346-.159a55.7 55.7 0 012.267-1.138l.324-.158 2.411 5.042-.324.159c-.72.338-1.404.72-2.102 1.059l-.338.115zm-1.605-4.618l1.907 3.646c.49-.253.986-.505 1.44-.721l-1.749-3.731c-.533.259-1.073.526-1.598.806zm8.003 1.636l-2.087-5.158.331-.137c.785-.31 1.576-.612 2.368-.901l.338-.122 1.929 5.23-.338.122a67.5 67.5 0 00-2.159.836l-.382.13zm-1.123-4.755l1.526 3.825a40.712 40.712 0 011.548-.59l-1.44-3.876c-.554.209-1.108.418-1.662.641h.028zm7.737 2.442l-1.525-5.345.345-.094a59.739 59.739 0 012.44-.655l.353-.094 1.345 5.396-.345.086c-.72.195-1.519.397-2.267.613l-.346.093zm-.64-4.826l1.13 3.962a92.131 92.131 0 011.598-.432l-1.001-4.013c-.576.144-1.151.303-1.727.483zm7.478 3.227l-.979-5.475.353-.065a71.316 71.316 0 012.497-.403l.36-.05.791 5.503-.352.051c-.777.108-1.548.237-2.318.374l-.352.065zm-.144-4.891l.719 4.055c.54-.093 1.08-.187 1.627-.266l-.59-4.077c-.583.064-1.173.165-1.756.266v.022zm7.111 3.962l-.425-5.547h.36a84.327 84.327 0 012.526-.151h.36l.237 5.554h-.36c-.806.007-1.525.007-2.339.093l-.359.051zm.345-4.877l.317 4.106c.547-.043 1.094-.072 1.641-.101l-.173-4.113c-.597.007-1.188.043-1.785.086v.022zm9.731 4.74h-.36a64.997 64.997 0 00-2.332-.094h-.36l.13-5.554h.359c.84 0 1.682.036 2.527.108h.359l-.323 5.54zm-2.318-.829c.547 0 1.094.022 1.641.065l.245-4.106c-.598-.036-1.195-.057-1.785-.079l-.101 4.12zm-1 227.359c-1.548 0-3.102 0-4.643-.064h-.359l.316-10.95h.36c1.655.043 3.325.065 4.966.057h.36l.05 10.95h-1.05v.007zm-4.261-.778c1.518.044 3.059.051 4.584.058l-.043-9.516c-1.439 0-2.879 0-4.268-.051l-.273 9.509zm15.251.389l-.785-10.921h.36c1.627-.115 3.289-.266 4.952-.439l.359-.036 1.152 10.892-.353.036c-1.749.187-3.541.346-5.326.476l-.359-.008zm0-10.258l.698 9.488c1.533-.108 3.073-.253 4.577-.404l-1-9.458c-1.418.144-2.858.273-4.297.374h.022zm-25.932 9.949l-.36-.036c-1.77-.173-3.555-.375-5.304-.606l-.353-.043 1.44-10.863.352.05c1.62.209 3.282.397 4.931.555l.359.036-1.065 10.907zm-5.211-1.304c1.505.194 3.038.367 4.563.518l.907-9.473a115.24 115.24 0 01-4.239-.482l-1.231 9.437zm47.027-.303l-1.893-10.806.36-.057a179.91 179.91 0 004.887-.944l.352-.072 2.246 10.719-.353.072c-1.72.361-3.49.721-5.247 1.009l-.352.079zm-1.058-10.208l1.641 9.365a147.52 147.52 0 004.512-.871l-1.936-9.279c-1.403.267-2.814.54-4.203.785h-.014zm16.683 6.686l-2.973-10.547.346-.093c1.576-.447 3.181-.93 4.772-1.441l.338-.108 3.325 10.431-.338.108a160.26 160.26 0 01-5.125 1.541l-.345.109zm-2.087-10.05l2.583 9.156c1.44-.418 2.951-.864 4.412-1.325l-2.879-9.063c-1.367.433-2.742.85-4.102 1.232h-.014zm17.273 4.949l-4.031-10.186.339-.137a150.28 150.28 0 004.599-1.909l.331-.144 4.368 10.042-.323.144c-1.613.721-3.275 1.391-4.945 2.053l-.338.137zm-3.095-9.783l3.527 8.854a137.71 137.71 0 004.253-1.772l-3.8-8.724a126.967 126.967 0 01-3.958 1.642h-.022zm17.683 3.156l-5.038-9.718.324-.166c1.44-.72 2.879-1.549 4.362-2.37l.316-.173 5.37 9.545-.31.173a158.227 158.227 0 01-4.692 2.543l-.332.166zm-4.052-9.43l4.384 8.436c1.345-.721 2.698-1.441 4.037-2.162l-4.664-8.291c-1.274.699-2.511 1.383-3.757 2.017zm17.9 1.347l-6.01-9.156.302-.194a152.477 152.477 0 004.103-2.803l.295-.209 6.312 8.955-.295.201c-1.44 1.002-2.879 2.017-4.405 3.004l-.302.202zm-5.038-8.947l5.225 7.924c1.288-.85 2.562-1.722 3.786-2.586l-5.477-7.773a67.447 67.447 0 01-3.513 2.457l-.021-.022zm17.942-.468l-6.866-8.501.281-.23a151.7 151.7 0 003.678-3.091l.403-.345 7.161 8.284-.403.346a160.515 160.515 0 01-3.951 3.313l-.303.224zm-5.88-8.407l5.988 7.391a149.477 149.477 0 003.513-2.954l-6.219-7.203a70.947 70.947 0 01-3.26 2.787l-.022-.021zm-206.897-4.827l-.252-.259a112.994 112.994 0 01-3.598-3.912l-.238-.266 8.14-7.319.245.273a161.582 161.582 0 003.376 3.638l.251.26-7.924 7.585zm-3.102-4.38a152.222 152.222 0 003.124 3.365l6.852-6.592a106.853 106.853 0 01-2.879-3.126l-7.097 6.353zm-7.413-7.679l-.223-.281a148.744 148.744 0 01-3.217-4.25l-.216-.288 8.831-6.484.216.289a150.865 150.865 0 003.001 3.969l.216.281-8.608 6.764zm-2.648-4.668a178.156 178.156 0 002.771 3.66l7.478-5.871a160.704 160.704 0 01-2.584-3.408l-7.665 5.619zm-6.607-8.385l-.195-.303a153.557 153.557 0 01-2.778-4.56l-.18-.309 9.436-5.547.187.317a92.186 92.186 0 002.584 4.243l.194.302-9.248 5.857zm-2.159-4.913a156.709 156.709 0 002.389 3.919l8.032-5.086c-.72-1.203-1.504-2.428-2.224-3.652l-8.197 4.819zm275.19-5.814l-9.68-5.107.166-.317a134.307 134.307 0 002.231-4.423l.158-.324 9.853 4.769-.158.324a170.825 170.825 0 01-2.397 4.761l-.173.317zm-8.708-5.41l8.406 4.438c.72-1.354 1.404-2.73 2.066-4.092l-8.558-4.142a88.668 88.668 0 01-1.9 3.818l-.014-.022zM227.258 253.3l-.159-.324a162.608 162.608 0 01-2.303-4.82l-.144-.331 9.954-4.553.144.332c.72 1.498 1.439 3.004 2.159 4.48l.158.325-9.809 4.891zm-1.656-5.122a154.65 154.65 0 001.98 4.149l8.507-4.243a140.493 140.493 0 01-1.843-3.854l-8.644 3.948zm289.326-6.174l-10.148-4.099.137-.331a159.23 159.23 0 001.771-4.632l.122-.339 10.285 3.746-.123.339a160.625 160.625 0 01-1.907 4.978l-.137.338zm-9.212-4.495l8.816 3.559a173.227 173.227 0 001.641-4.286l-8.931-3.256a95.81 95.81 0 01-1.519 4.005l-.007-.022zm-284.885 1.124l-.123-.339a160.571 160.571 0 01-1.806-5.042l-.115-.339 10.364-3.515.115.338a153.897 153.897 0 001.677 4.697l.129.332-10.241 3.868zm-1.13-5.273a201.647 201.647 0 001.547 4.322l8.903-3.285c-.497-1.325-.979-2.68-1.44-4.041l-9.01 3.004zm-3.786-9.999l-.094-.346c-.446-1.707-.878-3.45-1.274-5.194l-.079-.353 10.666-2.435.08.346c.367 1.607.763 3.235 1.187 4.834l.094.353-10.58 2.795zm-.59-5.352c.345 1.498.719 3.004 1.101 4.473l9.191-2.428c-.36-1.383-.72-2.78-1.022-4.163l-9.27 2.118zm-2.75-10.331l-.05-.353a106.642 106.642 0 01-.72-5.294l-.043-.361 10.861-1.34.043.353c.201 1.643.439 3.3.72 4.935l.057.353-10.868 1.707zm-.043-5.381c.195 1.506.41 3.04.648 4.56l9.356-1.484a158.793 158.793 0 01-.597-4.243l-9.407 1.167zm-1.684-10.546v-.36a149.806 149.806 0 01-.209-5.338v-.361l10.94-.237v.36c0 1.664.101 3.335.194 4.97v.361l-10.925.605zm.497-5.353c0 1.527.1 3.069.18 4.596l9.486-.533c-.072-1.405-.13-2.838-.166-4.272l-9.5.209zm304.202-6.714v-.36c0-1.642-.093-3.314-.187-4.97v-.361l10.925-.598v.361c.101 1.75.166 3.544.209 5.338v.36l-10.947.23zm.547-5.042c.072 1.44.13 2.881.159 4.272l9.5-.202c0-1.542-.094-3.083-.173-4.596l-9.486.526zm-294.436 1.556l-10.932-.497v-.361c.079-1.772.194-3.565.331-5.33v-.353l10.961.915v.36a141.491 141.491 0 00-.309 4.963l-.051.303zm-10.184-1.182l9.493.425c.072-1.44.159-2.881.267-4.264l-9.472-.721a206.232 206.232 0 00-.281 4.618l-.007-.058zm303.044-10.251l-.043-.36a145.456 145.456 0 00-.684-4.92l-.057-.353 10.795-1.707.058.36c.273 1.75.525 3.537.72 5.295l.043.36-10.832 1.325zm.043-5.042c.209 1.383.41 2.809.59 4.235l9.429-1.152c-.187-1.52-.403-3.047-.634-4.56l-9.385 1.477zm-291.485 1.62l-10.796-1.592.051-.353c.259-1.75.547-3.515.863-5.266l.065-.353 10.796 1.953-.065.353a152.825 152.825 0 00-.806 4.906l-.108.352zm-10.011-2.197l9.407 1.383c.201-1.383.431-2.795.719-4.214l-9.356-1.7a82.243 82.243 0 00-.799 4.596l.029-.065zm298.941-9.033l-.079-.353a148.811 148.811 0 00-1.187-4.827l-.087-.353 10.58-2.788.094.353a164.43 164.43 0 011.273 5.202l.08.352-10.674 2.414zm-.475-5.043c.36 1.376.72 2.774 1.015 4.157l9.27-2.104c-.338-1.477-.72-2.982-1.094-4.481l-9.191 2.428zm-285.612 1.686l-10.616-2.68.087-.346c.431-1.722.899-3.45 1.389-5.151l.1-.345 10.515 3.033-.1.345a140.024 140.024 0 00-1.289 4.791l-.086.353zm-9.738-3.127l9.213 2.32c.352-1.383.719-2.759 1.108-4.121l-9.126-2.629c-.396 1.426-.821 2.91-1.195 4.43zm291.816-7.881l-.108-.338a139.225 139.225 0 00-1.669-4.69l-.13-.338 10.242-3.854.129.338a145.389 145.389 0 011.792 5.043l.116.338-10.372 3.501zm-.971-4.941c.496 1.332.979 2.687 1.439 4.027l9.011-3.033a146.352 146.352 0 00-1.547-4.323l-8.903 3.329zm-276.782 1.736l-10.284-3.739.122-.339a140.373 140.373 0 011.9-4.977l.137-.339 10.148 4.092-.13.331a137.63 137.63 0 00-1.77 4.632l-.123.339zm-9.356-4.171l8.932 3.249c.489-1.34 1-2.673 1.518-3.984l-8.816-3.544a110.545 110.545 0 00-1.648 4.279h.014zm281.683-6.484l-.144-.324a107.026 107.026 0 00-2.159-4.488l-.159-.324 9.796-4.899.158.325c.806 1.62 1.576 3.248 2.296 4.826l.144.324-9.932 4.56zm-1.476-4.812a135.87 135.87 0 011.836 3.861l8.636-3.94a163.495 163.495 0 00-1.979-4.157l-8.493 4.236zm-265.107 1.758l-9.867-4.74.151-.324a154.347 154.347 0 012.396-4.762l.166-.324 9.687 5.1-.165.317c-.72 1.441-1.505 2.932-2.224 4.423l-.144.31zm-8.932-5.115l8.565 4.135a143.447 143.447 0 011.907-3.803l-8.413-4.424c-.677 1.333-1.339 2.709-2.059 4.092zm268.663-5.093l-.18-.31a198.581 198.581 0 00-2.584-4.243l-.194-.309 9.256-5.843.187.303a154.314 154.314 0 012.778 4.56l.18.31-9.443 5.532zm-1.943-4.618c.72 1.175 1.482 2.399 2.224 3.653l8.197-4.812a164.5 164.5 0 00-2.382-3.92l-8.039 5.079zm-250.699 1.729l-9.356-5.763.187-.302c.935-1.52 1.9-3.04 2.879-4.503l.201-.302 9.119 6.058-.201.296c-.857 1.383-1.771 2.787-2.642 4.228l-.187.288zm-8.334-5.972l8.097 4.964c.719-1.218 1.525-2.421 2.295-3.602l-7.916-5.259c-.807 1.29-1.663 2.586-2.476 3.897zm16.74-6.325l-8.694-6.656.223-.288a89.053 89.053 0 013.311-4.185l.23-.274 8.457 6.944-.223.281a155.554 155.554 0 00-3.088 3.89l-.216.288zm-7.679-6.793l7.543 5.763a132.482 132.482 0 012.655-3.35l-7.348-6.015a152.542 152.542 0 00-2.85 3.602zm17.273-4.589l-7.96-7.499.252-.266a167.405 167.405 0 013.721-3.825l.252-.253 7.715 7.766-.252.26a135.15 135.15 0 00-3.469 3.558l-.259.26zm-6.952-7.535l6.923 6.484c.972-1.03 1.972-2.053 2.98-3.062l-6.701-6.75c-1.072 1.117-2.144 2.226-3.188 3.328h-.014zm17.662-2.816l-7.198-8.277.497-.433a171.143 171.143 0 014.117-3.45l.316-.202 6.888 8.515-.281.23a130.268 130.268 0 00-3.807 3.192l-.532.425zm-6.154-8.205l6.225 7.203a152.083 152.083 0 013.527-2.968l-5.974-7.39a144.74 144.74 0 00-3.764 3.154h-.014zm190.725.914l-.288-.216a135.623 135.623 0 00-4.038-2.881l-.295-.21 6.211-9.011.303.202c1.439.994 2.879 2.038 4.318 3.112l.295.216-6.506 8.788zm-3.599-3.493c1.152.8 2.318 1.635 3.469 2.485l5.621-7.665a164.394 164.394 0 00-3.735-2.673l-5.355 7.852zm-8.78-4.791l-.31-.18c-1.439-.872-2.922-1.7-4.318-2.471l-.31-.173 5.262-9.602.316.18c1.519.828 3.073 1.714 4.628 2.636l.309.188-5.577 9.422zm-3.973-3.105c1.209.67 2.461 1.383 3.714 2.118l4.843-8.183a180.258 180.258 0 00-3.98-2.277l-4.577 8.342zm-9.177-3.868l-.323-.151c-1.497-.72-3.023-1.37-4.535-2.01l-.331-.145 4.268-10.085.331.144c1.598.677 3.232 1.441 4.858 2.161l.324.152-4.592 9.934zm-4.246-2.687c1.303.554 2.606 1.138 3.894 1.729l3.994-8.645a169.913 169.913 0 00-4.181-1.851l-3.707 8.767zm-9.529-2.882l-.338-.122a158.164 158.164 0 00-4.714-1.542l-.346-.1 3.246-10.497.346.101a142.77 142.77 0 015.038 1.657l.338.115-3.57 10.388zm-4.498-2.255c1.36.418 2.72.865 4.052 1.326l3.102-8.998c-1.44-.497-2.922-.98-4.354-1.44l-2.8 9.112zm-9.781-1.945l-.353-.079c-1.626-.382-3.253-.72-4.851-1.059l-.352-.072 2.159-10.74.352.071c1.764.36 3.52.72 5.204 1.139l.346.079-2.505 10.661zm-4.707-1.772c1.375.281 2.771.584 4.167.908l2.159-9.257a155.41 155.41 0 00-4.476-.98l-1.85 9.33zm-60.06.915l-2.232-10.726.353-.072c1.713-.36 3.484-.72 5.247-1.002l.353-.064 1.871 10.805-.353.065a146.39 146.39 0 00-4.887.936l-.352.058zm-1.382-10.164l1.943 9.314a144.59 144.59 0 014.203-.807l-1.626-9.365c-1.519.26-3.038.548-4.52.858zm51.517 8.291l-.36-.05a154.819 154.819 0 00-4.937-.562h-.36l1.065-10.9h.353c1.742.166 3.519.368 5.297.606l.36.043-1.418 10.863zm-4.865-1.296c1.396.136 2.821.302 4.239.49l1.238-9.438a177.312 177.312 0 00-4.563-.518l-.914 9.466zm-30.545.828L351.567 25.3l.36-.044a190.48 190.48 0 015.319-.468h.359l.771 10.929h-.353c-1.663.122-3.332.266-4.959.439l-.331.036zm-.353-10.251l.994 9.459c1.439-.145 2.828-.267 4.26-.375l-.676-9.487a141.69 141.69 0 00-4.578.403zm20.915 9.48h-.36c-1.669-.05-3.346-.072-4.966-.065h-.359l-.044-10.95h.36c1.764 0 3.548 0 5.333.065h.36l-.324 10.95zm-4.865-.792c1.367 0 2.771 0 4.167.057l.281-9.509a163.386 163.386 0 00-4.585-.064v9.516h.137zm-57.167 223.735l-.202-.151a101.632 101.632 0 01-3.526-2.81l-1.684 2.046-.274-.237a97.427 97.427 0 01-4.469-4.006l-.259-.252 1.828-1.923c-.454-.433-.9-.872-1.346-1.319-.446-.446-1.058-1.08-1.583-1.628l-1.929 1.83-.245-.266a91.14 91.14 0 01-3.994-4.488l-.231-.274 2.044-1.707a91.45 91.45 0 01-2.576-3.257l-2.16 1.607-.215-.288a100.895 100.895 0 01-3.455-4.92l-.194-.303 2.224-1.441c-.72-1.138-1.476-2.319-2.16-3.522l-2.303 1.347-.18-.31a107.49 107.49 0 01-2.879-5.281l-.158-.324 2.39-1.203a89.893 89.893 0 01-1.922-4.091l-.115-.274 3.404-2.442.18.418a89.087 89.087 0 0018.95 27.914 90.742 90.742 0 0010.364 8.911l.425.317-3.75 2.327zm-3.815-3.976l.274.237c1.166.973 2.368 1.938 3.599 2.882l2.418-1.498a91.655 91.655 0 01-10.026-8.645 89.986 89.986 0 01-18.914-27.756l-2.202 1.577a91.613 91.613 0 001.943 4.114l.165.324-2.389 1.203a101.494 101.494 0 002.505 4.61l2.303-1.347.18.31c.82 1.441 1.677 2.788 2.54 4.106l.202.303-2.224 1.44a142.906 142.906 0 003.015 4.323l2.16-1.607.215.288a83.272 83.272 0 003.002 3.79l.23.281-2.044 1.707a100.588 100.588 0 003.483 3.912l1.929-1.823.245.259c.59.627 1.195 1.254 1.814 1.866.619.612 1.058 1.052 1.59 1.563l.267.245-1.836 1.924a99.937 99.937 0 003.901 3.501l1.655-2.089z" opacity=".6"/><path d="M278.732 171.912l-3.455-2.788-2.922-.454.051-.36a96.207 96.207 0 011.115-5.9l.079-.353 2.627.583c.295-1.318.626-2.665.994-4.019l-2.591-.721.1-.346a96.99 96.99 0 011.778-5.763l.115-.338 2.534.871c.46-1.318.95-2.622 1.439-3.875l-2.483-1.009.137-.331c.719-1.851 1.561-3.696 2.418-5.489l.158-.325 2.411 1.153a94.41 94.41 0 011.886-3.695l-2.346-1.276.172-.317c.958-1.75 1.98-3.493 3.038-5.186l.194-.303 2.253 1.441a88.792 88.792 0 012.296-3.458l-2.16-1.534.209-.296a101.96 101.96 0 013.599-4.797l.223-.281 2.073 1.664c.87-1.074 1.763-2.161 2.677-3.17l-1.986-1.765.244-.274a93.993 93.993 0 013.858-4.084l.525-.526 1.872 1.887c.971-.943 1.986-1.916 3.008-2.838l-1.77-1.981.266-.245c1.49-1.333 3.03-2.629 4.592-3.868l.28-.216 1.648 2.089a88.115 88.115 0 013.326-2.486l-1.541-2.204.31-.18a86.77 86.77 0 015.038-3.321l.309-.187 1.44 2.269a58.428 58.428 0 013.598-2.089l-1.389-2.342.317-.172a79.402 79.402 0 015.355-2.723l.324-.159 1.137 2.42a105.82 105.82 0 013.807-1.67l-1.008-2.472.331-.136a77.429 77.429 0 015.643-2.09l.338-.115.857 2.55a89.391 89.391 0 013.973-1.217l-.72-2.594.353-.093a95.709 95.709 0 015.836-1.44l.339-.087.561 2.636a67.96 67.96 0 014.081-.72l-.425-2.666.36-.057a91.618 91.618 0 015.959-.757h.353l.259 2.687a91.92 91.92 0 014.138-.288l-.122-2.694h.36a98.158 98.158 0 016.002-.072h.36l-.05 3.062.583 3.674h-.432a89.449 89.449 0 00-60.359 21.348 89.605 89.605 0 00-30.671 56.244l-.086.634zm-5.571-3.847l2.404.382 2.627 2.11a90.321 90.321 0 0130.895-56.129 90.166 90.166 0 0160.322-21.477l-.432-2.961.043-2.399c-1.741 0-3.505 0-5.239.065l.115 2.701h-.36c-1.648.072-3.267.18-4.815.332h-.36l-.259-2.68a97.591 97.591 0 00-5.196.663l.417 2.665-.316.101a89.158 89.158 0 00-4.75.879l-.353.072-.561-2.637a67.6 67.6 0 00-5.132 1.29l.72 2.586-.346.1a70.03 70.03 0 00-4.628 1.442l-.338.115-.849-2.608c-1.648.526-3.304 1.174-4.923 1.823l1.008 2.478-.339.137c-1.439.59-2.943 1.246-4.433 1.937l-.324.159-1.13-2.406c-1.569.72-3.131 1.527-4.671 2.355l1.288 2.349-.316.173a80.552 80.552 0 00-4.175 2.427l-.295.188-1.439-2.269a146.03 146.03 0 00-4.369 2.881l1.54 2.161-.295.209a112.554 112.554 0 00-3.865 2.882l-.28.223-1.627-2.053a94.324 94.324 0 00-4.009 3.378l1.771 1.974-.266.245a75.438 75.438 0 00-3.513 3.314l-.259.252-1.871-1.887a105.22 105.22 0 00-3.599 3.789l1.98 1.765-.238.266a89.473 89.473 0 00-3.116 3.696l-.231.281-2.072-1.664c-1.08 1.361-2.16 2.766-3.146 4.185l2.16 1.535-.209.295a99.39 99.39 0 00-2.677 4.02l-.195.309-2.252-1.44c-.922 1.44-1.814 2.996-2.649 4.524l2.339 1.325-.173.317a75.97 75.97 0 00-2.159 4.322l-.158.325-2.411-1.16c-.72 1.57-1.44 3.177-2.116 4.79l2.483 1.002-.137.338a91.62 91.62 0 00-1.677 4.517l-.122.339-2.534-.872a91.623 91.623 0 00-1.554 5.043l2.591.72-.094.346a101.803 101.803 0 00-1.166 4.682l-.072.353-2.627-.583a75.446 75.446 0 00-.986 5.093zm93.441 111.774h-.36c-1.986 0-4.009-.115-5.995-.267h-.36l.202-2.694a89.176 89.176 0 01-4.117-.425l-.346 2.68-.36-.043a99.736 99.736 0 01-5.923-.951l-.352-.065.503-2.651a83.008 83.008 0 01-4.044-.886l-.641 2.615-.353-.087a91.65 91.65 0 01-5.757-1.613l-.346-.108.806-2.572a109.147 109.147 0 01-4.253-1.441l-.151-.05-2.037-5.216.777.324a89.588 89.588 0 0065.93 1.164 89.692 89.692 0 0048.895-44.283 89.815 89.815 0 005.416-65.778 89.732 89.732 0 00-40.993-51.697l-.309-.173 1.813-3.263 1.526-2.622.317.18a101.344 101.344 0 015.088 3.184l.302.202-1.482 2.218a96.564 96.564 0 013.382 2.392l1.598-2.161.288.216a102.223 102.223 0 014.693 3.746l.273.238-1.72 2.024a96.406 96.406 0 013.088 2.766l1.821-1.938.266.253c.72.662 1.403 1.34 2.094 2.038.691.699 1.44 1.441 2.159 2.212l.245.259-1.936 1.823a94.41 94.41 0 012.757 3.097l2.029-1.721.23.273a96.734 96.734 0 013.736 4.704l.216.289-2.159 1.592a100.822 100.822 0 012.389 3.393l2.217-1.477.194.302a108.475 108.475 0 013.181 5.101l.18.31-2.31 1.339a101.729 101.729 0 011.979 3.646l2.382-1.218.166.317a96.398 96.398 0 012.569 5.446l.144.332-2.447 1.066a95.801 95.801 0 011.548 3.861l2.511-.944.123.339a83.364 83.364 0 011.936 5.698l.1.346-2.555.814c.404 1.34.771 2.68 1.102 4.005l2.612-.648.087.346c.482 1.93.906 3.911 1.266 5.878l.065.353-2.649.49c.238 1.361.454 2.737.641 4.099l2.67-.346.051.353c.259 1.981.453 3.998.59 5.986v.36l-2.692.18a97.42 97.42 0 01.173 4.15l2.699-.043v.36c0 1.995 0 4.02-.094 6.008v.36l-2.692-.13a101.353 101.353 0 01-.302 4.143l2.685.259v.36a98.074 98.074 0 01-.77 5.958l-.058.353-2.663-.425a188.555 188.555 0 01-.72 4.07l2.627.569-.072.353a96.546 96.546 0 01-1.439 5.828l-.101.345-2.591-.72a92.2 92.2 0 01-1.216 3.955l2.548.864-.116.339a102.557 102.557 0 01-2.094 5.626l-.137.332-2.533-.995a81.063 81.063 0 01-1.663 3.79l2.426 1.145-.159.324a96.139 96.139 0 01-2.727 5.353l-.173.317-2.339-1.29a103.436 103.436 0 01-2.087 3.602l2.26 1.441-.187.309a116.692 116.692 0 01-3.326 5.043l-.208.288-2.159-1.541a100.896 100.896 0 01-2.483 3.321l2.08 1.649-.224.281a89.69 89.69 0 01-3.872 4.596l-.237.267-1.951-1.895a71.128 71.128 0 01-2.878 3.019l1.878 1.873-.417.417a97.153 97.153 0 01-4.369 4.121l-.274.238-1.756-1.996a91.22 91.22 0 01-3.181 2.666l1.663 2.082-.288.23a103.56 103.56 0 01-4.808 3.602l-.295.202-1.526-2.161a93.133 93.133 0 01-3.462 2.283l1.44 2.262-.302.187a91.531 91.531 0 01-5.197 3.019l-.316.173-1.303-2.392a89.145 89.145 0 01-3.7 1.873l1.145 2.421-.324.158a96.202 96.202 0 01-5.513 2.406l-.331.137-1.001-2.493c-1.266.498-2.576.98-3.893 1.441l.863 2.543-.338.115a92.805 92.805 0 01-5.758 1.758l-.345.094-.72-2.594c-1.324.353-2.677.721-4.037.98l.575 2.637-.352.072a93.935 93.935 0 01-5.909 1.088l-.36.057-.403-2.672a95.995 95.995 0 01-4.117.525l.267 2.68-.36.036a92.662 92.662 0 01-5.988.411h-.36l-.101-2.702a98.362 98.362 0 01-4.146.051l-.014 2.723zm-5.945-.973c1.742.13 3.498.209 5.233.238l.043-2.701h.36c1.605 0 3.231 0 4.822-.058h.36l.1 2.716a98.282 98.282 0 005.233-.353l-.267-2.687.353-.036a95.244 95.244 0 004.793-.605l.36-.051.403 2.666a99.017 99.017 0 005.161-.951l-.576-2.63.352-.079a86.863 86.863 0 004.7-1.138l.346-.094.719 2.594c1.685-.468 3.376-.987 5.038-1.535l-.863-2.55.338-.115a87.625 87.625 0 004.541-1.671l.331-.13.994 2.485a89.309 89.309 0 004.815-2.096l-1.145-2.421.324-.158c1.44-.677 2.879-1.441 4.318-2.161l.31-.173 1.274 2.356a97.943 97.943 0 004.527-2.637l-1.44-2.262.303-.187a92.918 92.918 0 004.03-2.666l.295-.209 1.526 2.162a87.24 87.24 0 004.196-3.141l-1.655-2.082.28-.223a89.232 89.232 0 003.7-3.105l.266-.238 1.763 1.995a97.925 97.925 0 003.98-3.76l-1.878-1.866.252-.259a96.464 96.464 0 003.318-3.508l.237-.274 1.972 1.779a94.525 94.525 0 003.383-4.012l-2.087-1.65.223-.281c1-1.261 1.972-2.564 2.879-3.868l.208-.288 2.159 1.541c1.008-1.441 1.98-2.881 2.879-4.373l-2.26-1.44.187-.303a86.708 86.708 0 002.433-4.178l.18-.31 2.332 1.282a88.276 88.276 0 002.382-4.668l-2.389-1.123.158-.325c.72-1.44 1.339-2.953 1.936-4.416l.137-.331 2.476 1.016a102.187 102.187 0 001.828-4.906l-2.548-.864.115-.339c.511-1.52.993-3.069 1.44-4.61l.093-.346 2.591.72c.461-1.686.885-3.393 1.26-5.093l-2.635-.562.08-.353c.323-1.541.626-3.141.885-4.747l.057-.353 2.656.432c.274-1.722.497-3.465.677-5.201l-2.685-.267v-.353a91.8 91.8 0 00.346-4.819v-.36l2.691.122c.08-1.736.101-3.493.08-5.244l-2.699.043v-.36c0-1.628-.094-3.256-.202-4.826v-.361l2.692-.18a105.61 105.61 0 00-.518-5.223l-2.678.346-.043-.353a148.08 148.08 0 00-.72-4.776l-.064-.353 2.655-.49c-.323-1.714-.719-3.443-1.108-5.129l-2.613.649-.086-.353a88.402 88.402 0 00-1.281-4.661l-.108-.346 2.569-.785a91.02 91.02 0 00-1.684-4.971l-2.504.937-.13-.339a90.814 90.814 0 00-1.806-4.488l-.144-.331 2.432-1.059c-.719-1.6-1.439-3.199-2.252-4.755l-2.375 1.225-.166-.324a72.296 72.296 0 00-2.31-4.243l-.18-.31 2.31-1.34a93.821 93.821 0 00-2.771-4.452l-2.217 1.477-.194-.303a100.726 100.726 0 00-2.785-3.947l-.216-.289 2.159-1.592c-1.044-1.39-2.159-2.766-3.26-4.106l-2.023 1.722-.237-.274a85.798 85.798 0 00-3.21-3.602l-.245-.266 1.936-1.816a122.105 122.105 0 00-1.878-1.93 85.564 85.564 0 00-1.828-1.78l-1.814 1.931-.266-.245a103.887 103.887 0 00-3.599-3.22l-.273-.238 1.72-2.024a98.86 98.86 0 00-4.095-3.27l-1.598 2.161-.288-.216a94.565 94.565 0 00-3.937-2.788l-.302-.202 1.482-2.212a85.4 85.4 0 00-4.447-2.78l-1.145 1.959-1.439 2.637a90.451 90.451 0 0140.84 52.001 90.539 90.539 0 01-5.433 65.922 90.414 90.414 0 01-48.803 44.599 90.31 90.31 0 01-66.083-.566l1.31 3.342a79.96 79.96 0 004.412 1.506l.338.108-.798 2.564c1.662.519 3.353.987 5.038 1.441l.64-2.608.353.087c1.562.382 3.145.72 4.707 1.03l.352.065-.503 2.643a89.67 89.67 0 005.167.829l.346-2.68.36.051c1.597.201 3.209.367 4.8.489h.36l-.209 2.687zm241.76-33.433c-18.892 0-33.244-.151-33.697-.605l-.115-.266a.248.248 0 000 .086c-.598-1.361-21.635-22.036-35.633-35.594l.496-.518c10.307 9.984 33.683 32.748 35.705 35.738 2.987.814 78.558.309 118.293-.072v.72c-16.647.158-56.159.511-85.049.511zm-57.052 159.903a2.794 2.794 0 01-2.586-1.73 2.804 2.804 0 012.04-3.821 2.801 2.801 0 11.546 5.551zm0-4.884a2.09 2.09 0 00-1.922 1.285 2.09 2.09 0 00.451 2.269 2.078 2.078 0 003.201-.316c.228-.342.35-.744.35-1.156a2.088 2.088 0 00-2.08-2.082zm9.076 4.884a2.8 2.8 0 01-2.746-3.349 2.81 2.81 0 01.766-1.435 2.797 2.797 0 014.308.425 2.81 2.81 0 01-.349 3.538 2.796 2.796 0 01-1.979.821zm0-4.884a2.077 2.077 0 00-1.922 1.285 2.09 2.09 0 00.451 2.269 2.079 2.079 0 003.551-1.472 2.076 2.076 0 00-.609-1.472 2.09 2.09 0 00-.675-.452 2.093 2.093 0 00-.796-.158zm9.068 4.884a2.794 2.794 0 01-2.586-1.73 2.804 2.804 0 012.04-3.821 2.801 2.801 0 11.546 5.551zm0-4.884a2.076 2.076 0 00-1.921 1.285 2.082 2.082 0 002.717 2.72 2.077 2.077 0 00.673-3.393c-.39-.39-.918-.61-1.469-.612zm9.076 4.884a2.798 2.798 0 01-2.576-1.74 2.8 2.8 0 01.616-3.049 2.803 2.803 0 013.049-.601 2.8 2.8 0 011.725 2.588 2.8 2.8 0 01-2.814 2.802zm0-4.884a2.076 2.076 0 00-1.912 1.295 2.086 2.086 0 001.526 2.83 2.077 2.077 0 002.131-.888 2.082 2.082 0 00-1.745-3.237zm9.076 4.884a2.798 2.798 0 01-2.592-1.725 2.805 2.805 0 012.036-3.825 2.792 2.792 0 012.876 1.19 2.804 2.804 0 01-2.32 4.36zm0-4.884a2.082 2.082 0 10-.014 4.163 2.082 2.082 0 00.014-4.163zm9.068 4.884a2.8 2.8 0 01-2.746-3.349 2.81 2.81 0 01.766-1.435 2.797 2.797 0 014.308.425 2.802 2.802 0 01-2.328 4.359zm0-4.884a2.077 2.077 0 00-1.922 1.285 2.09 2.09 0 00.451 2.269 2.078 2.078 0 003.2-.316 2.077 2.077 0 00-.26-2.626c-.39-.39-.918-.61-1.469-.612zm9.076 4.884a2.8 2.8 0 01-2.746-3.349 2.802 2.802 0 012.199-2.202 2.801 2.801 0 012.526 4.73 2.796 2.796 0 01-1.979.821zm0-4.884a2.077 2.077 0 00-1.922 1.285 2.078 2.078 0 003.651 1.953 2.077 2.077 0 00-.261-2.626 2.084 2.084 0 00-1.468-.612zm-56.52-36.696a1.617 1.617 0 01-.997 1.491 1.607 1.607 0 01-1.758-.353 1.608 1.608 0 01-.344-1.761 1.609 1.609 0 012.11-.868 1.614 1.614 0 01.869.874c.08.196.121.405.12.617z" opacity=".6"/><path d="M541.68 365.73a1.973 1.973 0 01-1.404-3.367 1.971 1.971 0 013.369 1.393 1.976 1.976 0 01-1.965 1.974zm0-3.228a1.255 1.255 0 00-.895 2.138 1.253 1.253 0 10.895-2.138zm-159.532 51.652a1.614 1.614 0 01-2.752 1.141 1.61 1.61 0 112.28-2.282c.302.302.472.713.472 1.141z" opacity=".6"/><path d="M380.536 416.128a1.97 1.97 0 01-1.934-2.359 1.97 1.97 0 013.573-.712 1.974 1.974 0 01-1.639 3.071zm0-3.228a1.25 1.25 0 00-1.157.774 1.251 1.251 0 102.409.48 1.254 1.254 0 00-1.252-1.254zm537.534-37.95a104.802 104.802 0 00-29.134-20.61l-.338-.158 3.462-6.779a113.065 113.065 0 00-38.318-11.526l-.979 8.681h-.345a105.701 105.701 0 00-49.344 7.852l-.223.093-23.348-23.369h-46.018l-34.878 34.91H547.805v-.72h150.507l34.878-34.91h46.608l23.218 23.239a106.366 106.366 0 0149.114-7.837l.979-8.71.352.044a113.714 113.714 0 0139.247 11.807l.323.158-3.454 6.764a105.483 105.483 0 0129.004 20.596l-.511.475zm-528.3-6.836l-.339-7.78-6.153 4.164 6.492 3.616zm-9.234.404l-.339-7.781-6.153 4.164 6.492 3.617zm-9.544.59l.303-7.78-6.478 3.638 6.175 4.142zm-9.882-.338l.922-7.73-6.751 3.112 5.829 4.618zm199.427-246.14l-7.708 1.031 4.692 5.763 3.016-6.794zm1.223 9.164l-7.708 1.03 4.7 5.77 3.008-6.8zm1.447 9.465l-7.766.389 4.196 6.138 3.57-6.527zm.547 9.884l-7.773-.223 3.699 6.447 4.074-6.224zM341.203 532.937h-2.879v-1.441h2.879v1.441zm-6.477 0h-2.879v-1.441h2.879v1.441zm-6.478 0h-2.878v-1.441h2.878v1.441zm-6.477 0h-2.879v-1.441h2.879v1.441zm-6.478 0h-2.878v-1.441h2.878v1.441zm-6.477 0h-2.879v-1.441h2.879v1.441zm-6.477 0h-2.879v-1.441h2.879v1.441zm-6.478 0h-2.879v-1.441h2.879v1.441zm-6.477 0h-2.879v-1.441h2.879v1.441zm-6.478 0h-2.879v-1.441h2.879v1.441zm-6.477 0h-2.879v-1.441h2.879v1.441zm-6.478 0h-2.879v-1.441h2.879v1.441zm-6.477 0h-2.109l-.799-1.376 1.245-.72.382.655h1.281v1.441zm81.659-.864l-1.245-.721 1.439-2.499 1.245.72-1.439 2.5zm-86.366-3.602l-1.439-2.5 1.245-.72 1.439 2.499-1.245.721zm89.605-1.989l-1.245-.72 1.439-2.492 1.245.72-1.439 2.492zm-92.844-3.601l-1.439-2.493 1.245-.72 1.439 2.492-1.245.721zm96.082-1.981l-1.245-.721 1.44-2.5 1.245.721-1.44 2.5zm-99.32-3.602l-1.44-2.5 1.245-.72 1.44 2.499-1.245.721zm102.559-1.989l-1.245-.72 1.439-2.493 1.246.721-1.44 2.492zm-105.798-3.602l-1.44-2.492 1.245-.72 1.44 2.492-1.245.72zm109.037-2.125l-1.245-.72 1.439-2.493 1.245.721-1.439 2.492zm-112.276-3.602l-1.439-2.499 1.245-.721 1.439 2.5-1.245.72zm115.515-1.981l-1.246-.72 1.44-2.5 1.245.721-1.439 2.499zm-118.754-3.602l-1.439-2.492 1.245-.72 1.439 2.492-1.245.72zm121.992-1.981l-1.245-.72 1.44-2.492 1.245.72-1.44 2.492zm-125.23-3.601l-1.44-2.493 1.245-.72 1.44 2.492-1.245.721zm128.469-1.982l-1.245-.72 1.439-2.5 1.245.721-1.439 2.499zm-131.708-3.601l-1.44-2.5 1.246-.72 1.439 2.499-1.245.721zm134.947-1.989l-1.245-.72 1.439-2.493 1.245.721-1.439 2.492zm-138.186-3.602l-1.439-2.492 1.245-.72 1.439 2.492-1.245.72zm141.424-1.981l-1.245-.72 1.44-2.5 1.245.721-1.44 2.499zm-144.663-3.602l-1.439-2.499 1.245-.721 1.44 2.5-1.246.72zm147.902-1.988l-1.245-.72 1.439-2.493 1.246.721-1.44 2.492zm-151.14-3.602l-1.44-2.492 1.245-.721 1.44 2.493-1.245.72zm154.379-1.981l-1.245-.72 1.439-2.493 1.245.721-1.439 2.492zm-157.618-3.602l-1.439-2.499 1.245-.721 1.439 2.5-1.245.72zm160.857-1.981l-1.245-.72 1.439-2.5 1.245.721-1.439 2.499zm-162.786-3.638l-1.245-.72 1.439-2.492 1.246.72-1.44 2.492zm162.426-1.981l-1.44-2.492 1.245-.721 1.44 2.493-1.245.72zm-159.187-3.602l-1.245-.72 1.439-2.492 1.245.72-1.439 2.492zm155.948-2.218l-1.439-2.5 1.245-.72 1.439 2.499-1.245.721zm-152.709-3.602l-1.246-.721 1.44-2.499 1.245.72-1.439 2.5zm149.47-2.017l-1.439-2.493 1.245-.72 1.439 2.492-1.245.721zm-146.232-3.602l-1.245-.721 1.44-2.492 1.245.72-1.44 2.493zm142.994-1.981l-1.44-2.5 1.245-.72 1.44 2.499-1.245.721zm-139.755-3.602l-1.245-.721 1.439-2.499 1.245.72-1.439 2.5zm136.516-1.988l-1.44-2.493 1.246-.72 1.439 2.492-1.245.721zm-133.277-3.602l-1.245-.721 1.439-2.492 1.245.72-1.439 2.493zm130.038-1.981l-1.439-2.493 1.245-.72 1.439 2.492-1.245.721zm-126.8-3.602l-1.245-.721 1.44-2.492 1.245.72-1.44 2.493zm123.561-1.981l-1.439-2.5 1.245-.72 1.44 2.499-1.246.721zm-120.322-3.638l-1.245-.721 1.44-2.492 1.245.72-1.44 2.493zm117.084-1.981l-1.44-2.493 1.245-.72 1.44 2.492-1.245.721zm-113.845-3.602l-1.245-.721 1.439-2.492 1.245.72-1.439 2.493zm110.606-1.981l-1.439-2.5 1.245-.72 1.439 2.499-1.245.721zm-107.367-3.602l-1.245-.72 1.439-2.5 1.245.72-1.439 2.5zm104.128-1.988l-1.439-2.493 1.245-.72 1.439 2.492-1.245.721zm-100.89-3.602l-1.245-.721 1.44-2.492 1.245.72-1.44 2.493zm97.652-2.147l-1.44-2.492 1.245-.721 1.44 2.493-1.245.72zm-94.413-3.602l-1.245-.72 1.439-2.5 1.246.72-1.44 2.5zm91.174-1.981l-1.44-2.5 1.245-.72 1.44 2.5-1.245.72zm-87.935-3.638l-1.245-.72 1.439-2.493 1.245.721-1.439 2.492zm84.696-1.981l-.972-1.765h-2.461v-1.441h3.296l1.382 2.406-1.245.8zm-7.032-1.765h-2.878v-1.441h2.878v1.441zm-6.477 0h-2.879v-1.441h2.879v1.441zm-6.477 0h-2.879v-1.441h2.879v1.441zm-6.478 0h-2.879v-1.441h2.879v1.441zm-6.477 0h-2.879v-1.441h2.879v1.441zm-6.478 0h-2.879v-1.441h2.879v1.441zm-6.477 0h-2.879v-1.441h2.879v1.441zm-6.478 0h-2.879v-1.441h2.879v1.441zm-6.477 0h-2.879v-1.441h2.879v1.441zm-6.478 0h-2.878v-1.441h2.878v1.441zm-6.477 0h-2.879v-1.441h2.879v1.441zm-6.477 0h-2.879v-1.441h2.879v1.441z" opacity=".6"/><path d="M678.621 398.81h-2.462v-1.441h1.605l.216-.382 1.252.72-.611 1.103zm-6.032 0h-2.878v-1.441h2.878v1.441zm-6.477 0h-2.879v-1.441h2.879v1.441zm-6.477 0h-2.879v-1.441h2.879v1.441zm-6.478 0h-2.879v-1.441h2.879v1.441zm-6.477 0h-2.879v-1.441h2.879v1.441zm-6.974-.584l-1.44-2.493 1.245-.72 1.44 2.493-1.245.72zm41.354-3.638l-1.252-.72 1.44-2.493 1.252.721-1.44 2.492zm-44.622-1.974l-1.439-2.492 1.245-.721 1.439 2.493-1.245.72zm47.832-3.638l-1.252-.72 1.44-2.493 1.252.721-1.44 2.492zm-51.099-1.974l-1.44-2.499 1.245-.721 1.44 2.5-1.245.72zm54.309-3.601l-1.252-.721 1.439-2.5 1.253.721-1.44 2.5zm-57.577-1.981l-1.439-2.493 1.245-.72 1.439 2.492-1.245.721zm60.874-3.667l-1.253-.721 1.44-2.492 1.252.72-1.439 2.493zm-64.055-1.974l-1.439-2.5 1.245-.72 1.439 2.5-1.245.72zm67.265-3.638l-1.253-.72 1.44-2.5 1.252.72-1.439 2.5zm-70.533-1.981l-1.439-2.493 1.245-.72 1.44 2.493-1.246.72zm73.742-3.638l-1.252-.72.252-.425-.777-1.347 1.245-.721 1.195 2.068-.663 1.145zm-74.296-1.981l-1.252-.72 1.439-2.5 1.253.72-1.44 2.5zm70.784-3.638l-1.439-2.5 1.245-.72 1.439 2.5-1.245.72zm-67.545-1.981l-1.252-.72 1.439-2.493 1.252.721-1.439 2.492zm64.307-3.638l-1.44-2.492 1.245-.721 1.44 2.493-1.245.72zm-61.068-1.974l-1.253-.72 1.44-2.493 1.252.721-1.439 2.492zm57.822-3.652l-1.44-2.493 1.245-.72 1.44 2.493-1.245.72zm-54.591-1.974l-1.252-.72 1.439-2.5 1.253.72-1.44 2.5zm51.352-3.602l-1.439-2.499 1.245-.721 1.439 2.5-1.245.72zm-48.106-2.002l-1.252-.721 1.439-2.492 1.253.72-1.44 2.493zm44.874-3.638l-1.439-2.493 1.245-.72 1.44 2.492-1.246.721zm-41.635-1.974l-1.252-.721 1.439-2.499 1.252.72-1.439 2.5zm39.124-3.105h-2.879v-1.441h2.879v1.441zm-6.478 0h-2.879v-1.441h2.879v1.441zm-6.477 0h-2.879v-1.441h2.879v1.441zm-6.478 0h-2.879v-1.441h2.879v1.441zm-6.477 0h-2.879v-1.441h2.879v1.441zm-6.478 0h-2.878v-1.441h2.878v1.441zm-55.986 19.897h-2.879v-1.441h2.879v1.441zm-6.478 0h-2.879v-1.441h2.879v1.441zm-6.477 0h-2.879v-1.441h2.879v1.441zm-6.478 0h-.532l-1.591-2.759 1.245-.721 1.382 2.399-.504.288v.793zm22.261-2.759l-1.245-.721 1.439-2.492 1.245.72-1.439 2.493zm-26.176-3.091l-1.439-2.492 1.245-.721 1.439 2.493-1.245.72zm29.415-2.521l-1.245-.72 1.439-2.5 1.245.72-1.439 2.5zm-32.654-3.09l-1.439-2.5 1.245-.72 1.439 2.499-1.245.721zm35.892-2.529l-1.245-.72 1.44-2.493 1.245.721-1.44 2.492zm-39.13-3.09l-.72-1.261 1.13-1.952 1.245.72-.72 1.232.31.54-1.245.721zm39.246-2.522l-1.44-2.492 1.253-.721 1.439 2.493-1.252.72zm-35.799-3.09l-1.245-.72 1.439-2.493 1.245.72-1.439 2.493zm32.56-2.521l-1.439-2.5 1.252-.721 1.439 2.5-1.252.721zm-29.321-3.091l-1.245-.72 1.439-2.5 1.245.72-1.439 2.5zm26.082-2.528l-1.439-2.493 1.252-.72 1.44 2.492-1.253.721zm-22.844-3.091l-1.245-.72 1.188-2.06h1.331v1.44h-.503l-.771 1.34zm20.707-1.34h-2.879v-1.44h2.879v1.44zm-6.478 0h-2.879v-1.44h2.879v1.44zm-6.477 0h-2.879v-1.44h2.879v1.44zm-72.634 146.98h-2.879v-1.441h2.879v1.441zm-6.477 0h-2.879v-1.441h2.879v1.441zm-6.478 0h-2.879v-1.441h2.879v1.441zm-6.477 0h-2.879v-1.441h2.879v1.441zm-6.478 0h-2.879v-1.441h2.879v1.441zm-6.477 0h-2.879v-1.441h2.879v1.441zm-6.478 0h-2.878v-1.441h2.878v1.441zm-6.477 0h-2.879v-1.441h2.879v1.441zm-6.478 0h-2.878v-1.441h2.878v1.441zm55.037-2.104l-1.245-.72 1.44-2.493 1.245.72-1.44 2.493zm-61.097-.072l-1.439-2.5 1.252-.72 1.44 2.5-1.253.72zm64.336-5.54l-1.245-.72 1.439-2.493 1.245.721-1.439 2.492zm-67.574-.079l-1.44-2.493 1.253-.72 1.439 2.493-1.252.72zm70.813-5.533l-1.245-.72 1.439-2.5 1.245.721-1.439 2.499zm-74.052-.079l-1.439-2.5 1.252-.72 1.439 2.5-1.252.72zm77.29-5.54l-1.245-.72 1.44-2.492 1.245.72-1.44 2.492zm-80.529-.079l-1.439-2.492 1.252-.721 1.44 2.493-1.253.72zm83.768-5.525l-1.252-.72 1.439-2.5 1.245.72-1.432 2.5zm-87.006-.079l-1.44-2.493 1.252-.72 1.44 2.492-1.252.721zm90.245-5.54l-1.245-.72 1.439-2.493 1.245.72-1.439 2.493zm-93.484-.079l-1.44-2.493 1.253-.72 1.439 2.492-1.252.721zm96.723-5.533l-1.246-.72 1.44-2.493 1.245.721-1.439 2.492zm-99.962-.079l-1.439-2.493 1.252-.72 1.439 2.493-1.252.72zm103.2-5.54l-1.245-.72 1.44-2.493 1.245.721-1.44 2.492zm-106.439-.072l-1.439-2.5 1.252-.72 1.44 2.5-1.253.72zm109.678-5.54l-1.245-.72 1.439-2.492 1.245.72-1.439 2.492zm-112.916-.079l-1.44-2.492 1.253-.721 1.439 2.493-1.252.72zm112.383-5.554l-1.439-2.5 1.252-.72 1.44 2.5-1.253.72zm-111.793-.079l-1.245-.721 1.439-2.499 1.245.72-1.439 2.5zm108.555-5.54l-1.44-2.492 1.253-.721 1.439 2.493-1.252.72zm-105.316-.079l-1.246-.721 1.44-2.492 1.245.72-1.439 2.493zm102.077-5.518l-1.44-2.471 1.253-.721 1.439 2.5-1.252.692zm-98.839-.079l-1.245-.721 1.44-2.492 1.245.72-1.44 2.493zm95.6-5.54l-1.439-2.493 1.252-.72 1.439 2.492-1.252.721zm-92.361-.072l-1.245-.721 1.439-2.499 1.245.72-1.439 2.5zm89.122-5.54l-1.439-2.492 1.252-.721 1.44 2.493-1.253.72zm-85.883-.079l-1.245-.721 1.439-2.492 1.245.72-1.439 2.493zm82.659-5.569l-1.439-2.492 1.252-.721 1.439 2.493-1.252.72zm-79.406-.072l-1.245-.72 1.439-2.5 1.245.72-1.439 2.5zm76.153-5.511l-1.439-2.492 1.252-.721 1.439 2.493-1.252.72zm-72.929-.079l-1.245-.72 1.44-2.493 1.245.721-1.44 2.492zm69.69-5.532l-1.439-2.5 1.252-.721 1.44 2.5-1.253.721zm-66.451-.08l-1.245-.72 1.439-2.5 1.245.721-1.439 2.499zm63.213-5.539l-1.44-2.493.266-.151h-2.814v-1.441h2.879v1.405l.921-.533 1.44 2.492-1.252.721zm-59.974-.08l-1.245-.72 1.439-2.493 1.245.721-1.439 2.492zm52.402-2.557h-2.879v-1.441h2.879v1.441zm-6.477 0h-2.879v-1.441h2.879v1.441zm-6.478 0h-2.879v-1.441h2.879v1.441zm-6.477 0h-2.879v-1.441h2.879v1.441zm-6.478 0h-2.878v-1.441h2.878v1.441zm-6.477 0h-2.879v-1.441h2.879v1.441zm-6.477 0h-2.879v-1.441h2.879v1.441zm-6.478 0h-2.879v-1.441h2.879v1.441z" opacity=".6"/><path d="M699.176 467.066l-52.503-52.552H385.437v-.72h261.538l52.712 52.767-.511.505z" opacity=".6"/></g><defs><clipPath id="clip0_5_105"><path fill="#fff" d="M0 0h851v575H0z"/></clipPath></defs></svg>