<svg width="48" height="48" fill="none" xmlns="http://www.w3.org/2000/svg"><path d="M27.852 33.478l7.172-11.53a.653.653 0 00.058-.118 12.769 12.769 0 001.892-6.682c0-7.065-5.748-12.814-12.814-12.814S11.346 8.083 11.346 15.148c0 2.356.655 4.664 1.894 6.685.014.035.03.07.051.103l6.914 11.571c-5.367.759-8.897 2.966-8.897 5.643 0 3.317 5.637 5.915 12.833 5.915 7.196 0 12.833-2.599 12.833-5.915 0-2.69-3.694-4.946-9.122-5.672zM14.528 21.187a11.34 11.34 0 01-1.747-6.039c0-6.274 5.104-11.379 11.38-11.379 6.274 0 11.378 5.105 11.378 11.38 0 2.131-.604 4.219-1.746 6.038a.682.682 0 00-.06.119l-7.576 12.181c-.114.175-.137.214-.276.443l-1.913 3.076-9.376-15.69a.729.729 0 00-.064-.13zm9.614 22.443c-6.717 0-11.398-2.362-11.398-4.48 0-1.923 3.525-3.735 8.267-4.296l2.329 3.899c.129.215.36.347.61.349h.006a.718.718 0 00.609-.339l2.449-3.937c4.817.522 8.525 2.38 8.525 4.324 0 2.119-4.68 4.48-11.397 4.48z" fill="#B3966F"/><path d="M28.8 15.148c0-2.569-2.09-4.659-4.659-4.659s-4.659 2.09-4.659 4.66a4.665 4.665 0 004.66 4.659 4.664 4.664 0 004.659-4.66zm-7.883 0a3.228 3.228 0 013.224-3.224 3.228 3.228 0 013.225 3.224 3.228 3.228 0 01-3.224 3.225 3.228 3.228 0 01-3.225-3.225z" fill="#B3966F"/></svg>