<svg width="48" height="48" fill="none" xmlns="http://www.w3.org/2000/svg"><path d="M41.87 5.532H12.691c-1.742 0-3.138 1.225-3.178 2.807v6.12a.716.716 0 101.432 0V8.357c.02-.768.803-1.392 1.746-1.392h29.18c.963 0 1.747.637 1.747 1.421v23.378c0 .784-.784 1.422-1.748 1.422H12.691c-.962 0-1.746-.638-1.746-1.422v-3.347a.716.716 0 10-1.432 0v3.347c0 1.574 1.425 2.855 3.178 2.855h13.764v6.178H17.36a.716.716 0 100 1.433H36.9a.717.717 0 000-1.433h-9.013V34.62H41.87c1.754 0 3.18-1.281 3.18-2.856V8.386c0-1.574-1.426-2.854-3.18-2.854z" fill="#B3966F"/><path d="M22.51 17.221h15.355a.716.716 0 100-1.432H22.51a.716.716 0 100 1.432zm0 4.537h15.355a.716.716 0 100-1.433H22.51a.716.716 0 100 1.433zm0 4.788h15.355a.717.717 0 000-1.433H22.51a.716.716 0 100 1.433zm-12.427-3.274a.715.715 0 00.507-.21l10.35-10.351a.716.716 0 10-1.013-1.013l-9.922 9.923-6.163-4.388a.717.717 0 00-.83 1.168l6.656 4.738a.71.71 0 00.415.133z" fill="#B3966F"/></svg>