<svg width="48" height="48" fill="none" xmlns="http://www.w3.org/2000/svg"><path d="M23.488 24.125c-5.82 0-10.554 4.734-10.554 10.553 0 .397.32.718.717.718h19.674a.718.718 0 00.717-.718c0-5.82-4.735-10.553-10.554-10.553zm-9.091 9.836c.367-4.694 4.305-8.402 9.091-8.402 4.787 0 8.724 3.708 9.09 8.402h-18.18zm8.919-10.784a6.203 6.203 0 006.196-6.196 6.203 6.203 0 00-6.196-6.196 6.203 6.203 0 00-6.196 6.196 6.203 6.203 0 006.196 6.196zm0-10.957a4.767 4.767 0 014.76 4.761 4.767 4.767 0 01-4.76 4.761 4.766 4.766 0 01-4.761-4.761 4.766 4.766 0 014.76-4.761z" fill="#B3966F"/><path d="M9.461 28.084a6.6 6.6 0 013.343.907.717.717 0 10.727-1.237 8.033 8.033 0 00-12.1 6.924c0 .397.321.718.718.718h9.093a.717.717 0 100-1.435H2.905c.359-3.3 3.162-5.877 6.556-5.877zm-.127-2.581c2.64 0 4.79-2.148 4.79-4.79a4.795 4.795 0 00-4.79-4.79 4.795 4.795 0 00-4.79 4.79 4.796 4.796 0 004.79 4.79zm0-8.145a3.359 3.359 0 013.355 3.355 3.359 3.359 0 01-3.355 3.355 3.358 3.358 0 01-3.355-3.355 3.358 3.358 0 013.355-3.355zm28.239 9.291a8.04 8.04 0 00-4.07 1.105.717.717 0 10.727 1.237 6.603 6.603 0 013.343-.907c3.394 0 6.197 2.577 6.556 5.877h-8.336a.718.718 0 000 1.435h9.092a.718.718 0 00.718-.718c0-4.427-3.602-8.03-8.03-8.03zm.127-1.146a4.795 4.795 0 004.79-4.79 4.795 4.795 0 00-4.79-4.79 4.795 4.795 0 00-4.79 4.79c0 2.641 2.15 4.79 4.79 4.79zm0-8.145a3.359 3.359 0 013.355 3.355 3.359 3.359 0 01-3.354 3.355 3.359 3.359 0 01-3.356-3.355 3.36 3.36 0 013.356-3.355z" fill="#B3966F"/></svg>