<svg width="49" height="48" fill="none" xmlns="http://www.w3.org/2000/svg"><path d="M39.819 18.286c.054-8.462-6.786-15.39-15.248-15.445-8.473-.05-15.39 6.786-15.444 15.247-.04 6.12 3.528 11.436 8.706 13.931l.05 13.368a.716.716 0 00.718.715.72.72 0 00.496-.199l5.303-5.065 5.338 5.03a.718.718 0 001.21-.525l-.046-13.226c5.227-2.423 8.877-7.7 8.917-13.831zM29.507 43.678l-4.62-4.35a.717.717 0 00-.987.002l-4.588 4.383-.041-11.09c1.595.576 3.312.898 5.103.91h.1c1.748 0 3.427-.298 4.994-.84l.039 10.985zm-5.033-11.58h-.09c-7.671-.05-13.872-6.33-13.822-14 .05-7.641 6.28-13.823 13.91-13.823h.09c7.67.05 13.871 6.33 13.822 14.001-.05 7.64-6.28 13.822-13.91 13.822z" fill="#B3966F"/><path d="M31.448 15.982l-4.363-.662-1.925-3.967a.717.717 0 00-.64-.404h-.006a.718.718 0 00-.641.396l-1.976 3.942-4.369.606a.717.717 0 00-.405 1.22l3.138 3.1-.773 4.342a.717.717 0 001.036.763l3.916-2.027 3.892 2.077a.719.719 0 001.046-.75l-.718-4.351 3.178-3.059a.719.719 0 00-.39-1.226zm-4.055 3.513a.715.715 0 00-.21.634l.542 3.289-2.942-1.57a.717.717 0 00-.668-.005l-2.96 1.532.585-3.282a.716.716 0 00-.203-.637l-2.372-2.342 3.303-.458a.718.718 0 00.543-.389l1.493-2.98 1.456 3c.103.212.305.36.538.395l3.298.5-2.403 2.313z" fill="#B3966F"/></svg>