<svg width="38" height="37" fill="none" xmlns="http://www.w3.org/2000/svg"><ellipse cx="18.862" cy="18.5" rx="18.621" ry="18.5" fill="#B3966F"/><path d="M18.862 21.738c-1.746 0-3.259-1.388-3.259-3.238a3.242 3.242 0 013.259-3.238c1.746 0 3.259 1.388 3.259 3.238 0 1.734-1.513 3.238-3.26 3.238z" fill="#292929"/><path fill-rule="evenodd" clip-rule="evenodd" d="M22.819 10.637h-7.914c-.931.116-1.396.232-1.746.347-.465.116-.814.347-1.164.694-.276.275-.406.55-.564.88-.042.088-.085.18-.134.276l-.06.17a4.039 4.039 0 00-.289 1.565v7.862c.117.925.233 1.388.35 1.735.116.462.348.809.697 1.156.277.274.553.404.887.56.088.042.18.085.277.134l.172.06a4.13 4.13 0 001.574.287h7.914c.93-.116 1.396-.232 1.745-.347.466-.116.815-.347 1.164-.694.276-.275.407-.55.565-.88a8.47 8.47 0 01.134-.276l.06-.17c.122-.331.289-.783.289-1.565V14.57c-.117-.925-.233-1.388-.35-1.735-.116-.462-.349-.809-.698-1.156-.276-.274-.552-.404-.886-.56-.088-.042-.18-.085-.277-.134a6.139 6.139 0 01-.172-.06 4.13 4.13 0 00-1.574-.287zm-3.957 2.891c-2.793 0-5.004 2.197-5.004 4.972 0 2.775 2.21 4.972 5.004 4.972 2.793 0 5.004-2.197 5.004-4.972 0-2.775-2.211-4.972-5.004-4.972zm6.284-.116a1.16 1.16 0 01-1.163 1.157 1.16 1.16 0 01-1.164-1.157 1.16 1.16 0 011.164-1.156 1.16 1.16 0 011.163 1.156z" fill="#292929"/><path fill-rule="evenodd" clip-rule="evenodd" d="M.241 18.5C.241 8.283 8.578 0 18.861 0c10.285 0 18.622 8.283 18.622 18.5S29.146 37 18.862 37C8.578 37 .242 28.717.242 18.5zm14.664-9.597h7.914c1.047.116 1.745.231 2.327.463.699.347 1.164.578 1.746 1.156a5.047 5.047 0 011.164 1.734c.233.578.465 1.272.465 2.313v7.862c-.116 1.04-.232 1.735-.465 2.313-.35.694-.582 1.156-1.164 1.734a5.086 5.086 0 01-1.746 1.156c-.582.232-1.28.463-2.327.463h-7.914c-1.047-.116-1.746-.231-2.328-.463-.698-.346-1.163-.578-1.745-1.156a5.045 5.045 0 01-1.164-1.734c-.233-.578-.466-1.272-.466-2.313V14.57c.117-1.04.233-1.735.466-2.313.35-.694.582-1.156 1.164-1.734a5.084 5.084 0 011.745-1.156c.582-.232 1.28-.463 2.328-.463z" fill="#292929"/></svg>