<svg width="53" height="45" fill="none" xmlns="http://www.w3.org/2000/svg"><path fill-rule="evenodd" clip-rule="evenodd" d="M17.39 6.429V0C11.564 1.448 7.209 4.72 4.325 9.817 1.442 14.913 0 21.834 0 30.579V45h19.597V25.714H11.21v-1.998c0-4.69.515-8.47 1.545-11.337 1.03-2.866 2.574-4.85 4.634-5.95zm32.661 0V0c-5.826 1.448-10.18 4.72-13.065 9.817-2.883 5.096-4.325 12.017-4.325 20.762V45h19.597V25.714h-8.386v-1.998c0-4.69.515-8.47 1.545-11.337 1.03-2.866 2.574-4.85 4.634-5.95z" fill="#B3966F"/></svg>