<svg width="23" height="35" fill="none" xmlns="http://www.w3.org/2000/svg"><path d="M22.518 0H.438C.175 0 0 .177 0 .441v28.556c0 .265.175.442.438.442h7.448v5.12c0 .176.087.309.263.397.131.088.35.044.481-.044l2.892-2.34 2.891 2.34a.62.62 0 00.263.088c.044 0 .132 0 .175-.044.132-.088.263-.22.263-.397v-5.12h7.448c.263 0 .438-.177.438-.442V.441C22.956.221 22.781 0 22.518 0zM7.141 23.922c-.088-.044-.088-.088-.088-.088 0-.045-.043-.089 0-.133a1.09 1.09 0 00-.219-1.368c-.044-.044-.044-.088-.044-.132 0-.045 0-.089.044-.133.395-.309.526-.927.22-1.368-.044-.044-.044-.133 0-.133 0-.044.043-.088.087-.088.482-.176.789-.706.7-1.191 0-.089 0-.133.045-.133 0-.044.044-.044.131-.044.482 0 .964-.353 1.052-.883 0-.088.043-.088.087-.132.044 0 .088-.044.132 0 .482.176 1.051 0 1.27-.486.044-.044.088-.088.132-.088.043 0 .087 0 .131.044.394.353.964.353 1.358 0 .044-.044.131-.044.131-.044.044 0 .088.044.132.088.263.442.788.662 1.27.486.044-.044.132 0 .132 0 .044 0 .087.044.087.132.088.53.526.883 1.052.883.044 0 .131.044.131.044 0 .044.044.088.044.133-.088.53.175 1.015.701 1.191.088.044.088.088.088.088 0 .045.044.089 0 .133a1.09 1.09 0 00.219 1.368c.043.044.043.088.043.133 0 .044 0 .088-.043.132-.395.309-.526.927-.22 1.368.045.044.045.133 0 .133 0 .044-.043.088-.087.088a1.077 1.077 0 00-.7 1.191c0 .089 0 .133-.045.133 0 .044-.044.044-.131.044-.526-.044-.964.353-1.052.883 0 .088-.043.088-.087.132-.044 0-.088.044-.132 0-.482-.176-1.051 0-1.27.486-.044.044-.088.088-.132.088-.043 0-.087 0-.131-.044-.175-.177-.438-.265-.7-.265-.264 0-.483.088-.702.265-.044.044-.131.044-.131.044-.044 0-.088-.044-.132-.088-.263-.442-.788-.662-1.27-.486-.044.044-.132 0-.132 0-.043 0-.087-.044-.087-.132a1.043 1.043 0 00-1.052-.883.191.191 0 01-.131-.044c0-.044-.044-.088-.044-.133.088-.53-.175-1.015-.657-1.191zm1.62 3.178c.264.132.57.132.833.044.088-.044.176 0 .22.088.13.265.437.486.744.53.175.044.35 0 .526-.044v4.104l-2.322 1.854V27.1zm3.155 4.678v-4.06a.956.956 0 00.35.044h.176c.307-.044.57-.265.745-.53.043-.088.131-.088.219-.088.263.088.57.088.832-.044v6.532l-2.322-1.854zm10.164-3.222h-6.966v-2.383c.263-.044.526-.133.701-.353.22-.265.307-.574.22-.883 0-.088.043-.177.13-.177.307-.088.526-.353.658-.618.131-.264.087-.617-.088-.882-.044-.088-.044-.177.044-.22a1.03 1.03 0 00.394-.84 1.09 1.09 0 00-.394-.838c-.044-.044-.088-.132-.044-.22.175-.266.175-.619.088-.883-.088-.31-.35-.53-.657-.618-.088-.044-.132-.089-.132-.177.044-.309 0-.618-.219-.883a1.015 1.015 0 00-.832-.397c-.088 0-.175-.044-.175-.132a1.014 1.014 0 00-.526-.75c-.263-.177-.613-.177-.876-.089-.088.044-.176 0-.22-.088a1.042 1.042 0 00-.744-.53 1.098 1.098 0 00-.876.265c-.044.044-.176.044-.22 0-.218-.22-.569-.309-.876-.265-.306.044-.57.265-.744.53-.044.088-.132.088-.22.088a.887.887 0 00-.876.088c-.262.177-.481.442-.525.75 0 .089-.088.133-.175.133-.351 0-.614.133-.833.397-.219.265-.307.574-.219.883 0 .088-.044.177-.131.177-.307.088-.526.353-.657.618-.088.308-.088.617.087.882.044.089.044.177-.044.22a1.03 1.03 0 00-.394.84c0 .308.131.617.394.838.044.044.088.133.044.22-.175.266-.175.619-.087.883.087.265.35.53.657.618.087.044.131.089.131.177-.044.309 0 .618.22.883a.91.91 0 00.7.353v2.383H.788V.883h21.204v27.673h.088z" fill="#B3966F"/><path d="M10.733 22.245l-.132.794c0 .044 0 .088.044.088h.088l.7-.397.702.398h.088c.043-.045.043-.045.043-.089l-.131-.794.57-.574c.043-.044.043-.088.043-.088 0-.044-.044-.044-.087-.088l-.789-.133-.35-.75c-.044-.088-.132-.088-.176 0l-.35.75-.789.133c-.044 0-.087.044-.087.088s0 .088.043.088l.57.574zM4.863 5.032H18.18c.263 0 .438-.177.438-.442s-.175-.441-.438-.441H4.863c-.263 0-.438.176-.438.441a.44.44 0 00.438.442zm0 2.957H18.18c.263 0 .438-.177.438-.442s-.175-.441-.438-.441H4.863c-.263 0-.438.176-.438.441a.44.44 0 00.438.442zm0 2.913H18.18c.263 0 .438-.177.438-.442s-.175-.441-.438-.441H4.863c-.263 0-.438.176-.438.441a.44.44 0 00.438.442zm0 2.913H18.18c.263 0 .438-.177.438-.442s-.175-.441-.438-.441H4.863c-.263 0-.438.176-.438.441a.44.44 0 00.438.442z" fill="#B3966F"/></svg>