<svg width="28" height="31" fill="none" xmlns="http://www.w3.org/2000/svg"><path d="M27.97 9.48L25.075.788a.523.523 0 00-.496-.358H4.3a.523.523 0 00-.497.358L.907 9.479a.523.523 0 00-.027.166v20.277c0 .29.234.524.523.524h26.071a.523.523 0 00.524-.524V9.645a.522.522 0 00-.027-.166zm-1.15-.147c-1.073.784-2.272 1.156-3.753 1.156-1.34 0-2.632-.417-3.76-1.2V1.478h4.894l2.618 7.856zM10.616 1.477h7.644v7.814a6.561 6.561 0 01-3.76 1.198c-1.391 0-2.728-.45-3.884-1.294V1.477zm-5.94 0H9.57v7.718c-1.156.844-2.492 1.294-3.884 1.294a6.595 6.595 0 01-3.649-1.093l2.64-7.919zM1.927 29.4V10.551a7.638 7.638 0 003.759.985c1.577 0 3.093-.49 4.408-1.422a7.572 7.572 0 004.407 1.422 7.594 7.594 0 004.283-1.33 7.597 7.597 0 004.283 1.33c1.476 0 2.753-.344 3.884-1.035v18.898H1.926z" fill="#B3966F"/><path d="M19.603 14.004H9.275a.523.523 0 00-.523.524v9.6c0 .29.234.524.523.524h10.328a.523.523 0 00.523-.523v-9.601a.523.523 0 00-.523-.524zm-9.805 1.047h4.17v8.555h-4.17V15.05zm9.282 8.555h-4.065V15.05h4.064v8.555z" fill="#B3966F"/></svg>