<svg width="35" height="35" fill="none" xmlns="http://www.w3.org/2000/svg"><path d="M32.455 15.357L27.692 5.218a.542.542 0 00-.143-.183.508.508 0 00-.339-.128h-7.059A2.25 2.25 0 0017.97 3.17a2.25 2.25 0 00-2.181 1.737H8.71a.52.52 0 00-.488.345.513.513 0 00-.14.178L3.319 15.568s-.106.179-.106.368c0 3.233 2.494 5.863 5.559 5.863 3.064 0 5.558-2.63 5.558-5.863 0-.167-.016-.216-.148-.464L9.29 5.949h6.498c.195.823.835 1.47 1.65 1.67V27.14h-4.96a.52.52 0 00-.52.522v2.431a.52.52 0 00.52.521h11.028a.52.52 0 00.521-.52v-2.432a.52.52 0 00-.52-.521H18.48V7.625a2.256 2.256 0 001.67-1.676h6.218l-4.777 9.311c-.132.248-.148.297-.148.464 0 3.233 2.494 5.863 5.558 5.863 3.065 0 5.559-2.63 5.559-5.863 0-.189-.106-.367-.106-.367zm-23.683 5.4c-2.325 0-4.246-1.887-4.49-4.3h8.98c-.245 2.414-2.165 4.3-4.49 4.3zm4.217-5.342l-8.505.11 4.095-8.668 4.41 8.558zm9.996 12.767v1.39h-9.986v-1.39h9.986zM19.162 5.528a1.205 1.205 0 01-1.192 1.116 1.21 1.21 0 01-1.202-1.216c0-.67.54-1.216 1.202-1.216.629 0 1.14.493 1.192 1.116a.536.536 0 000 .2zm8.034 1.117l4.095 8.668-8.506-.11 4.41-8.558zm-.194 13.9c-2.325 0-4.246-1.886-4.49-4.3h8.98c-.244 2.414-2.165 4.3-4.49 4.3z" fill="#B3966F"/></svg>