<svg width="29" height="27" fill="none" xmlns="http://www.w3.org/2000/svg"><path d="M7.793 9.475a4.529 4.529 0 004.523-4.523A4.529 4.529 0 007.793.429 4.527 4.527 0 003.27 4.952a4.528 4.528 0 004.522 4.523zm0-8.004a3.485 3.485 0 013.481 3.481 3.485 3.485 0 01-3.481 3.481 3.485 3.485 0 01-3.48-3.481c0-1.92 1.561-3.48 3.48-3.48zm11.361 12.223a.521.521 0 10.319.992 6.018 6.018 0 017.853 5.724.521.521 0 101.042 0 7.06 7.06 0 00-9.214-6.716zm2.363-1.509a4.165 4.165 0 004.16-4.16 4.164 4.164 0 00-4.16-4.16 4.163 4.163 0 00-4.158 4.16 4.164 4.164 0 004.158 4.16zm0-7.277a3.121 3.121 0 013.118 3.117 3.121 3.121 0 01-3.118 3.118 3.12 3.12 0 01-3.116-3.118 3.12 3.12 0 013.116-3.117z" fill="#B3966F"/><path d="M28.48 25.919a.547.547 0 00.005-.233l-.007-.033a.503.503 0 00-.045-.116l-2.973-5.379a.52.52 0 10-.912.505l2.545 4.605H19.51a5.117 5.117 0 00-5.083-4.588 5.116 5.116 0 00-5.082 4.588H4.766v-6.756a.521.521 0 10-1.042 0v6.756H1.285V11.92H13.85v1.204a3.46 3.46 0 00-2.974 3.42 3.462 3.462 0 003.458 3.46 3.463 3.463 0 003.46-3.46 3.461 3.461 0 00-2.902-3.409V11.4a.521.521 0 00-.521-.521H.764a.521.521 0 00-.521.521v14.39a.52.52 0 00.521.521h27.212a.514.514 0 00.132-.017c.019-.005.035-.014.053-.021.022-.01.045-.015.067-.027l.003-.002.016-.011a.537.537 0 00.082-.062l.025-.026a.517.517 0 00.057-.072c.004-.007.01-.011.014-.017.002-.004.002-.008.005-.012a.536.536 0 00.047-.112l.003-.012zm-11.73-9.374a2.42 2.42 0 01-2.417 2.416 2.419 2.419 0 01-2.416-2.416 2.419 2.419 0 012.416-2.417 2.42 2.42 0 012.417 2.417zm-2.325 5.177a4.07 4.07 0 014.03 3.546h-8.059a4.07 4.07 0 014.03-3.546z" fill="#B3966F"/></svg>