<svg width="35" height="35" fill="none" xmlns="http://www.w3.org/2000/svg"><path d="M17.621 18.19A11.436 11.436 0 006.186 29.625a.52.52 0 00.52.52h21.831a.52.52 0 00.52-.52A11.436 11.436 0 0017.621 18.19zM7.236 29.109a10.396 10.396 0 0120.767 0H7.236zM17.43 3.788a6.584 6.584 0 106.585 6.584 6.609 6.609 0 00-6.584-6.584zm0 12.153a5.545 5.545 0 115.545-5.545 5.569 5.569 0 01-5.544 5.545z" fill="#B3966F"/><path d="M8.844 13.861h.693a.52.52 0 00.512-.52V7.105a.521.521 0 000-.107 8.133 8.133 0 0114.902.28v6.065a.514.514 0 000 .11 8.117 8.117 0 01-1.733 2.652.52.52 0 10.738.73 9.146 9.146 0 001.968-2.973h.232a3.639 3.639 0 000-7.277h-.377a9.17 9.17 0 00-16.693 0h-.239a3.639 3.639 0 000 7.277h-.003zm19.918-3.638a2.602 2.602 0 01-2.599 2.599h-.173V7.624h.166a2.602 2.602 0 012.606 2.599zm-19.918-2.6h.166v5.199h-.166a2.599 2.599 0 110-5.198z" fill="#B3966F"/></svg>