<svg width="35" height="35" fill="none" xmlns="http://www.w3.org/2000/svg"><path d="M23.625 30.8H8.4V14.35l8.96-7.7 8.89 7.497v3.178a.525.525 0 101.05 0v-2.296l2.985 2.52a.525.525 0 00.68-.802l-13.269-11.2a.525.525 0 00-.683 0L4.033 16.712a.53.53 0 10.7.799l2.618-2.265v16.079a.525.525 0 00.525.525h15.75a.525.525 0 100-1.05z" fill="#B3966F"/><path d="M32.2 24.965a4.729 4.729 0 01-3.444-1.442 5.127 5.127 0 01-1.456-3.268v-.207a.504.504 0 00-.035-.171.532.532 0 00-.521-.452.525.525 0 00-.511.525v.308c-.091 2.566-2.338 4.648-5.114 4.676H21a.525.525 0 100 1.05 5.19 5.19 0 015.138 5.068.7.7 0 00.588.623.525.525 0 00.525-.525c-.028-2.8 2.149-5.103 4.816-5.134h.133a.525.525 0 000-1.05zM26.68 28.7a6.3 6.3 0 00-3.15-3.181 6.107 6.107 0 003.241-3.045c.3.663.717 1.267 1.229 1.785a5.9 5.9 0 001.75 1.224 6.062 6.062 0 00-3.07 3.217zM6.125 6.426h.035a2.87 2.87 0 012.8 2.8.623.623 0 00.567.574.525.525 0 00.518-.532 2.748 2.748 0 012.646-2.828h.084a.525.525 0 100-1.05 2.552 2.552 0 01-1.89-.791A2.831 2.831 0 0110.08 2.8v-.122a.52.52 0 00-.024-.147.518.518 0 00-.719-.388.525.525 0 00-.317.489v.182a2.776 2.776 0 01-2.825 2.558h-.084a.525.525 0 100 1.05l.014.004zm3.427-1.855a3.85 3.85 0 001.298 1.34A3.815 3.815 0 009.492 7.35c-.18-.31-.4-.593-.655-.843a3.93 3.93 0 00-.731-.557 3.85 3.85 0 001.446-1.379zm5.323 11.179a.525.525 0 00-.525.525v5.6a.525.525 0 00.525.525h5.6a.525.525 0 00.525-.525v-5.6a.525.525 0 00-.525-.525h-5.6zm5.075 5.6H15.4V16.8h4.55v4.55z" fill="#B3966F"/></svg>