<svg width="35" height="35" fill="none" xmlns="http://www.w3.org/2000/svg"><path d="M17.5 18.55A11.739 11.739 0 005.775 30.275a.525.525 0 00.525.525h22.4a.525.525 0 00.525-.525A11.739 11.739 0 0017.5 18.55zm4.42 2.012l-4.42 4.421-4.42-4.42a10.65 10.65 0 018.844 0h-.003zm-9.817.508l5.026 5.026h.021v3.654H6.839a10.686 10.686 0 015.264-8.68zm6.097 8.68v-3.983l4.697-4.697a10.687 10.687 0 015.25 8.68H18.2zm-6.3-16.1a6.751 6.751 0 0011.62-.329h.032c.766-.35 1.526-1.48 1.62-1.62.496-.753.75-1.64.728-2.542 0-4.473-3.759-8.109-8.375-8.109h-.046c-4.62 0-8.379 3.636-8.379 8.11v1.69a2.733 2.733 0 00.83 1.963 2.88 2.88 0 001.97.837zm5.705 2.1a5.664 5.664 0 01-5.177-3.315.865.865 0 010-.181l.091-.056c1.631-1.002 3.658-2.251 4.855-3.399 1.299-1.246 2.65-2.754 3.224-3.405a5.576 5.576 0 012.677 4.756 5.642 5.642 0 01-5.67 5.6zM10.15 9.16c0-3.91 3.287-7.06 7.325-7.06h.046c4.043 0 7.329 3.15 7.329 7.06a3.339 3.339 0 01-.57 1.956l-.032.049a6.625 6.625 0 00-3.5-6.905.525.525 0 00-.64.122c0 .021-1.771 2.062-3.438 3.658-1.13 1.06-3.104 2.285-4.69 3.262l-.16.098a1.138 1.138 0 00-.441 1.067v.035a1.827 1.827 0 01-.7-.434 1.694 1.694 0 01-.529-1.218V9.16z" fill="#B3966F"/><path d="M15.225 28.35a.875.875 0 100-1.75.875.875 0 000 1.75z" fill="#B3966F"/></svg>