<svg width="29" height="35" fill="none" xmlns="http://www.w3.org/2000/svg"><path d="M14.38 20.026C6.45 20.026 0 26.477 0 34.406c0 .329.266.594.593.594h27.574a.593.593 0 00.594-.593c0-7.93-6.452-14.381-14.382-14.381zm6.722 13.788l-2.053-7.539a.593.593 0 10-1.145.312l1.968 7.227h-4.698v-7.318a.593.593 0 10-1.187 0v7.318H8.922l1.888-7.233a.593.593 0 00-1.148-.3l-1.967 7.533H1.2c.312-7.002 6.104-12.601 13.18-12.601s12.87 5.6 13.181 12.6h-6.458zM6.741 14.595a2.88 2.88 0 001.318-.32 6.486 6.486 0 006.088 4.25 6.447 6.447 0 006.202-4.598 2.88 2.88 0 001.305.313 2.904 2.904 0 002.295-4.676 2.904 2.904 0 00-2.507-4.668C20.401 1.987 17.532 0 14.285 0c-3.619 0-6.404 1.905-7.25 4.902A2.904 2.904 0 003.84 7.788c0 .737.273 1.427.756 1.954a2.88 2.88 0 00-.757 1.952c0 1.6 1.301 2.9 2.901 2.9zm7.405 2.742a5.297 5.297 0 01-5.105-3.882 2.882 2.882 0 00.602-1.762 2.88 2.88 0 00-.672-1.856c.15-.14.277-.3.377-.47.46.196.886.116 1.438.01l.077-.014c.659-.124 1.162-.4 1.605-.643.553-.303 1.032-.565 1.79-.565.873 0 1.55.355 2.206.699.391.205.761.399 1.15.5a3.03 3.03 0 001.683-.03c.032.062.066.125.103.187a2.89 2.89 0 00-.06 3.57 5.268 5.268 0 01-5.194 4.256zM5.832 9.24a1.706 1.706 0 01-.804-1.451 1.716 1.716 0 012.056-1.68.595.595 0 00.216.003.595.595 0 00.772-.447c.538-2.72 2.977-4.478 6.214-4.478 2.91 0 5.37 1.778 6.151 4.453a.59.59 0 00.8.485 1.716 1.716 0 012.131 1.664c.001.51-.225.991-.618 1.318a.593.593 0 000 .913 1.716 1.716 0 01-1.095 3.033 1.716 1.716 0 01-1.092-3.036.594.594 0 00.001-.914c-.098-.081-.291-.448-.406-.768a.592.592 0 00-.883-.3c-.361.237-.87.3-1.36.172-.258-.067-.556-.223-.9-.404-.709-.371-1.591-.834-2.756-.834-1.062 0-1.752.379-2.36.712-.402.22-.782.428-1.255.517l-.079.015c-.753.143-.753.142-1.102-.208a.594.594 0 00-1.013.392.897.897 0 01-.64.772.594.594 0 00-.159 1.075c.505.316.806.859.806 1.451 0 .945-.769 1.714-1.714 1.714a1.716 1.716 0 01-1.715-1.714c0-.591.301-1.134.805-1.45a.592.592 0 000-1.005z" fill="#B3966F"/></svg>