<svg width="16" height="16" fill="none" xmlns="http://www.w3.org/2000/svg"><path fill-rule="evenodd" clip-rule="evenodd" d="M2.667 2H5c.367 0 .667.3.667.667 0 .833.133 1.633.38 2.38a.669.669 0 01-.167.68L4.413 7.193a10.1 10.1 0 004.394 4.394l1.466-1.467a.683.683 0 01.68-.16 7.6 7.6 0 002.38.38c.367 0 .667.3.667.667v2.326c0 .367-.3.667-.667.667C7.073 14 2 8.927 2 2.667 2 2.3 2.3 2 2.667 2zM4.36 3.333a8.2 8.2 0 00.3 1.727l-.8.8a9.884 9.884 0 01-.507-2.527H4.36zm6.573 8.014c.567.16 1.147.26 1.734.3v.993c-.88-.06-1.727-.233-2.534-.5l.8-.793z" fill="#E5E5E5"/></svg>