<svg width="38" height="37" fill="none" xmlns="http://www.w3.org/2000/svg"><ellipse cx="18.621" cy="18.5" rx="18.621" ry="18.5" fill="#B3966F"/><path d="M12.451 14.88c.1 4.81 2.52 7.696 6.766 7.696h.248v-2.75c1.558.154 2.737 1.289 3.209 2.75h2.203a6.073 6.073 0 00-1.175-2.27 6.12 6.12 0 00-2.009-1.59 5.9 5.9 0 001.762-1.64c.468-.66.794-1.41.957-2.202h-1.999c-.434 1.53-1.725 2.917-2.948 3.046v-3.04H17.46v5.328c-1.241-.308-2.806-1.8-2.874-5.328h-2.135z" fill="#292929"/><path fill-rule="evenodd" clip-rule="evenodd" d="M18.62 0c10.285 0 18.621 8.283 18.621 18.5S28.905 37 18.621 37 0 28.717 0 18.5 8.337 0 18.62 0zM9.31 18.13c0-4.187 0-6.278 1.304-7.585C11.936 9.25 14.04 9.25 18.248 9.25h.745c4.215 0 6.319 0 7.635 1.295 1.303 1.313 1.303 3.404 1.303 7.585v.74c0 4.187 0 6.278-1.303 7.585-1.323 1.295-3.427 1.295-7.635 1.295h-.745c-4.214 0-6.318 0-7.634-1.295C9.31 25.142 9.31 23.051 9.31 18.87v-.74z" fill="#292929"/></svg>